<svg width="240" height="80" viewBox="0 0 240 80" fill="none" xmlns="http://www.w3.org/2000/svg">
<g clip-path="url(#clip0_253_2)">
<rect width="238.933" height="80" transform="translate(0.126587)" fill="white"/>
<path d="M28.9973 8.05759C26.9417 12.0508 22.4201 12.9661 18.9209 14.4311C16.0498 15.6325 13.4048 17.4866 11.331 19.8465C9.40301 22.0414 8.10194 25.6906 4.85892 26.2039C2.19998 26.6251 1.53659 23.873 1.81202 21.6116C2.1539 18.808 4.11086 14.3689 7.90367 11.052C10.2057 9.03929 12.5335 7.52388 14.6727 6.38786C14.4476 7.76716 14.2493 8.99213 14.1711 9.48513C13.7981 9.80878 13.5248 10.156 13.3909 10.4465C13.3159 10.6094 13.3287 10.8173 13.4777 10.9716C13.6588 11.157 13.9332 11.1709 14.0789 11.0638C14.6201 10.6672 15.335 10.2043 16.2256 9.9749C16.9115 9.79914 17.6349 9.77449 17.89 9.71447C18.1439 9.65446 18.3401 9.48084 18.3679 9.21934C18.3937 8.97177 18.2715 8.7092 17.9853 8.60524C17.876 8.56559 17.7378 8.53236 17.5834 8.50557L17.1397 5.19825C21.0194 3.50708 23.808 3.12662 23.808 3.12662C23.808 3.12662 21.6399 5.08143 20.6711 8.23228C23.5122 9.34901 26.8249 8.54523 28.9973 8.05759ZM6.47936 21.1336C5.25009 21.0704 3.73147 23.9287 5.3787 24.3081C5.57054 24.352 5.77202 24.3209 5.95957 24.2609C6.73443 24.0112 7.62717 22.5397 7.36567 21.7049C7.26493 21.3855 6.99378 21.1594 6.47936 21.1336ZM11.9387 10.7433C11.8122 10.5793 11.5861 10.5193 11.3803 10.5408C10.6119 10.6211 9.51768 11.5214 9.67522 12.3702C9.70523 12.531 9.78883 12.6896 9.93029 12.7732C10.0857 12.8643 10.2818 12.8471 10.4565 12.8032C10.9709 12.6746 12.0459 11.8986 12.0823 11.1902C12.0898 11.0359 12.048 10.8837 11.9387 10.7433ZM5.38727 17.4566C5.13756 17.3708 4.8557 17.4426 4.63386 17.5852C3.98011 18.0074 3.12916 19.7972 4.30484 20.1369C4.62207 20.228 4.97466 20.1166 5.22866 19.9055C5.74094 19.4778 6.1214 18.5336 5.83632 17.8863C5.82882 17.8703 5.82132 17.8542 5.81275 17.8381C5.72272 17.6634 5.57161 17.5187 5.38727 17.4566ZM7.84794 12.8042C7.76006 12.771 7.66146 12.7699 7.56715 12.7839C6.74836 12.9007 5.68414 14.206 6.14605 15.0313C6.23179 15.1845 6.38612 15.3056 6.56081 15.3206C6.68084 15.3303 6.79873 15.2917 6.90804 15.2435C7.38389 15.0345 7.77078 14.6037 7.99262 14.1396C8.09015 13.9338 8.19947 13.5995 8.18232 13.3112C8.16946 13.0872 8.07943 12.891 7.84794 12.8042ZM9.85634 15.8415C9.43945 15.6711 8.78677 16.163 8.52313 16.4234C8.12766 16.8135 7.79436 17.3483 7.81901 17.9228C7.83615 18.3247 8.05157 18.7276 8.47276 18.7855C9.45981 18.9227 10.5187 17.3408 10.4201 16.4877C10.3911 16.2262 10.2304 15.9958 9.85634 15.8415ZM12.2034 14.459C12.0191 14.9284 11.9741 15.5543 12.6021 15.6636C13.4766 15.8147 14.5012 14.8244 14.7059 14.0356C14.8045 13.653 14.6469 13.2619 14.2375 13.1225C13.4262 12.8589 12.4713 13.7774 12.2034 14.459ZM19.8512 5.39866C19.3743 5.39651 18.8256 5.65051 18.4612 6.10064C18.2768 6.33856 18.2222 6.68044 18.3411 6.83798C18.5651 7.04053 18.8116 7.20022 19.1899 7.13055C19.6851 7.05232 20.2381 6.73402 20.5489 6.22924C20.9486 5.6205 20.2724 5.37294 19.8512 5.39866ZM17.4559 11.4925C17.0797 11.7261 16.4271 12.2073 16.8257 12.6949C17.2126 13.1686 18.1847 12.8664 18.6209 12.6306C19.0056 12.4634 19.6369 11.9619 19.4364 11.4689C19.3882 11.3499 19.31 11.2642 19.2125 11.2063C18.7441 10.9266 17.8181 11.2663 17.4559 11.4925ZM23.4597 9.96418C22.6891 9.61802 21.089 10.3436 21.6303 11.3371C21.7739 11.6007 22.0514 11.7389 22.3376 11.7861C22.8509 11.8718 23.5251 11.6854 23.8251 11.2331C24.0395 10.9127 24.0009 10.4968 23.7758 10.2118C23.6944 10.1078 23.5883 10.0221 23.4597 9.96418ZM59.0375 23.6136C58.8039 23.4732 58.5081 23.4132 58.2498 23.425C57.8608 23.4432 57.4846 23.6125 57.1996 23.8772C56.7516 24.2931 56.9177 24.8943 57.3796 25.2276C57.7718 25.5095 58.3045 25.4345 58.7085 25.2201C59.1008 25.0122 59.582 24.5514 59.4159 24.0616C59.3483 23.8655 59.2101 23.7176 59.0375 23.6136ZM58.6689 27.549C58.6764 27.3239 58.5756 27.1053 58.4117 26.937C58.148 26.668 57.7376 26.4954 57.4128 26.4601C56.8812 26.4011 56.0432 26.6551 55.9778 27.2767C55.966 27.3936 55.9735 27.5147 55.996 27.6336C53.2374 27.6229 50.1037 27.2885 48.465 26.0882C49.66 25.9006 50.9482 25.5384 52.2182 25.1001C52.201 25.3176 52.2493 25.5406 52.3725 25.7313C52.7058 26.2468 53.4239 26.4269 53.9962 26.3229C54.4495 26.2415 54.9672 25.9392 55.0797 25.4602C55.1429 25.1922 55.0743 24.919 54.9039 24.7046C54.7667 24.5289 54.5728 24.3895 54.3681 24.2877C56.832 23.2857 58.9529 22.2054 59.7867 21.8871C60.2089 22.992 60.9238 26.2575 61.092 27.0838C61.1242 27.2435 61.0074 27.2992 60.9356 27.3121C60.5047 27.3861 59.6913 27.4814 58.6689 27.549ZM38.0619 61.3949L37.7993 57.376L36.8176 57.4403L37.1445 62.4409L41.9147 62.129L41.8515 61.1463L38.0619 61.3949ZM35.6323 60.6404L35.569 59.6587L33.76 59.7766L33.685 58.631L35.494 58.512L35.4286 57.5303L32.639 57.7125L32.8426 60.8237L35.6323 60.6404ZM31.9038 61.7968L31.6412 57.7779L30.6584 57.8422L30.9864 62.8428L35.7566 62.5309L35.6923 61.5492L31.9038 61.7968ZM41.7914 60.2385L41.7271 59.2558L39.9181 59.3747L39.8441 58.228L41.6521 58.1101L41.5878 57.1273L38.7971 57.3106L39.0007 60.4207L41.7914 60.2385ZM51.3169 59.6159L54.1076 59.4337L54.0433 58.4509L52.2353 58.5699L52.1603 57.4231L53.9694 57.3052L53.9051 56.3225L51.1143 56.5057L51.3169 59.6159ZM50.1155 56.5711L49.1338 56.6343L49.4607 61.635L54.232 61.3242L54.1677 60.3414L50.3791 60.589L50.1155 56.5711ZM44.221 60.992L43.9574 56.973L42.9757 57.0373L43.3026 62.038L48.0728 61.7261L48.0096 60.7444L44.221 60.992ZM47.9495 59.8356L47.8852 58.8528L46.0772 58.9718L46.0022 57.8261L47.8102 57.7071L47.747 56.7254L44.9562 56.9076L45.1588 60.0178L47.9495 59.8356ZM29.4099 64.4097L29.5267 50.353C31.8437 50.6027 33.5885 50.1537 36.2817 48.8826C39.9974 47.1303 44.9594 42.8874 49.0716 37.1912L50.5324 35.2C49.5582 41.3591 43.8716 48.6029 41.2063 52.5768C41.0177 52.8587 40.8473 53.1823 40.7894 53.5199C40.7626 53.685 40.7412 53.97 40.933 54.0472C41.0637 54.1008 41.2341 54.0386 41.3456 53.9658C41.5214 53.8489 41.666 53.6893 41.8075 53.5328C41.9833 53.3377 42.1558 53.1405 42.323 52.938C42.8749 52.2692 43.4172 51.6466 43.9317 50.9478C47.7416 45.4542 50.3791 41.4363 51.4701 36.5643C51.5023 36.7314 51.5355 36.8976 51.5677 37.0615C52.5644 42.5219 51.1133 44.7393 49.4285 47.9481C49.2152 48.3553 48.9966 48.829 49.0974 49.277C49.2324 49.8782 49.5668 49.7753 50.0983 49.2234C51.4069 47.5397 52.3629 45.5988 52.8762 43.5229L56.2136 62.6478L29.4099 64.4097Z" fill="#E66200"/>
<path d="M42.1687 13.7531C42.338 14.3533 42.7539 14.8966 43.3122 15.2631C43.8674 15.634 44.5897 15.8365 45.3506 15.6983C45.7279 15.6275 46.1019 15.455 46.4138 15.2053C46.7128 14.9416 46.9496 14.6169 47.0761 14.275C47.1082 14.1893 47.1404 14.1046 47.1597 14.0189C47.1822 13.9342 47.209 13.8506 47.2176 13.766C47.2433 13.5956 47.2497 13.4316 47.2529 13.2698C47.2369 12.9472 47.1811 12.6428 47.0686 12.3609L47.03 12.2613C46.9689 12.1069 46.8178 11.9976 46.641 11.9976C46.4106 11.9987 46.2241 12.1852 46.2241 12.4167C46.2252 12.8968 46.1587 13.3683 45.9679 13.7263C45.8715 13.9053 45.7547 14.0575 45.6068 14.1721C45.461 14.2857 45.2842 14.3575 45.0934 14.3983C44.7097 14.4862 44.2639 14.3972 43.8674 14.2054C43.667 14.11 43.4783 13.9835 43.3079 13.8367C43.1322 13.6909 42.9746 13.5216 42.8407 13.333C42.7464 13.2033 42.5781 13.139 42.4163 13.1851C42.2083 13.243 42.0862 13.4594 42.1451 13.6674L42.1687 13.7531ZM23.465 49.4049C21.566 46.5391 18.8181 42.3466 17.2609 39.2225V39.0928L17.2716 37.9836C17.2962 37.9954 17.3177 38.0072 17.338 38.0168C17.5856 38.1401 17.891 38.05 18.0282 37.8068C18.2468 37.4199 17.5095 36.8829 17.7956 34.807C17.936 33.79 18.5855 32.6904 18.6027 32.6389C18.6241 32.5778 18.6102 32.5114 18.5898 32.4503C18.5609 32.3571 18.5158 32.2681 18.459 32.1888C18.4194 32.1342 18.3679 32.0924 18.3144 32.0516C18.1204 31.9048 17.8332 31.8501 17.2373 32.9669C16.77 33.8425 16.6243 34.6152 15.8065 34.3644C14.4047 33.9336 16.3017 31.579 16.755 31.1139C17.2619 30.5919 18.1322 30.1986 18.9017 30.1976C20.2167 30.1943 20.0227 33.5435 19.8041 35.494C19.7558 35.8305 19.5468 37.5195 19.5479 37.5228C19.5479 37.5228 20.6293 39.9277 21.641 41.5739C21.9496 42.0765 22.7341 43.2404 23.3139 44.0431C23.6772 44.5479 23.9666 44.9112 24.0191 44.9005C24.1917 44.8673 25.004 44.0795 25.3256 43.8138C25.7349 43.4762 29.322 39.9781 30.1119 39.2782C30.1569 39.2547 30.234 39.2504 30.279 39.2375C30.3498 39.2236 30.4269 39.2107 30.5084 39.2032C30.6702 39.185 30.8449 39.1796 31.0207 39.185C31.37 39.1946 31.6873 39.2311 32.0088 39.2568L32.0892 39.2632C32.3667 39.2857 32.6433 39.1389 32.774 38.8731C32.9455 38.5248 32.8019 38.1036 32.4536 37.9332C31.9852 37.7017 31.5555 37.6203 31.0785 37.5967C30.8395 37.5871 30.6027 37.5731 30.353 37.5967C30.2276 37.6085 30.0797 37.6192 29.9468 37.6439C29.7903 37.6782 29.6682 37.6996 29.5256 37.7639C29.4677 37.7896 29.4131 37.8175 29.3595 37.8464C27.5687 35.5851 26.5302 32.222 26.3919 31.7033C26.2751 31.2639 26.1722 30.8224 26.0843 30.3776C26.1283 30.3776 26.1754 30.3787 26.2226 30.3787C26.3737 30.3787 26.5387 30.3712 26.7081 30.353C27.663 30.2447 28.3307 29.8096 28.6382 29.0958C28.7776 28.7732 28.7615 28.5396 28.59 28.4003C28.485 28.3145 28.2128 28.0959 26.8324 28.889C27.0917 28.5289 27.3597 28.1034 27.6308 27.6029C27.7948 27.5804 28.3071 27.4947 28.8408 27.2546C29.7175 26.8613 30.2201 26.244 30.2962 25.4713C30.3316 25.1219 30.2447 24.9022 30.039 24.8218C29.9104 24.7714 29.5696 24.6407 28.4271 25.9203C28.6029 25.4949 28.7797 25.034 28.9544 24.5325C29.1848 24.4767 29.5899 24.3578 30.0036 24.1391C30.8535 23.6912 31.3165 23.0438 31.3443 22.2679C31.3561 21.9164 31.2564 21.7042 31.0464 21.6367C30.9124 21.5938 30.563 21.4834 29.4892 22.8541C29.6585 22.2743 29.8257 21.6549 29.9875 20.9883C30.0058 20.9133 30.024 20.8404 30.0433 20.7664C30.2844 20.7214 30.6574 20.6335 31.0432 20.4674C31.9241 20.0859 32.4364 19.4761 32.5232 18.7044C32.5618 18.354 32.4782 18.1354 32.2746 18.0518C32.1385 17.996 31.7698 17.8481 30.4516 19.3443C30.6606 18.6948 30.8878 18.0936 31.1268 17.5373C31.3025 17.5352 31.8137 17.5116 32.3625 17.3444C33.282 17.0647 33.8586 16.5171 34.0322 15.7594C34.1104 15.4164 34.0526 15.1892 33.8586 15.0831C33.7235 15.0092 33.3474 14.8045 31.6787 16.367C32.1192 15.5107 32.58 14.7873 33.0291 14.1807C33.132 14.1914 33.2927 14.2021 33.4878 14.2021C33.7 14.2021 33.9508 14.1893 34.2144 14.1453C35.1629 13.9899 35.807 13.5227 36.0792 12.7939C36.2014 12.4649 36.1735 12.2313 35.9956 12.1016C35.8906 12.0244 35.6258 11.8326 34.418 12.5817C34.8521 12.1616 35.2175 11.8754 35.4672 11.6975C39.4079 9.73415 44.7505 8.44273 51.8742 8.42773C57.4493 8.41594 59.1972 9.4137 59.1972 10.1725C59.1972 12.676 51.9278 17.2887 47.1768 18.5887C46.1791 18.8952 45.3785 19.0763 45.894 20.1588L46.7975 22.2561C44.6787 22.5005 40.5311 21.8842 38.4648 21.4427C38.7992 20.9958 39.199 20.6014 39.6384 20.1877L39.6577 20.1695C39.7777 20.0569 39.8313 19.8812 39.7809 19.7129C39.7091 19.4739 39.4583 19.3378 39.2193 19.4086C38.8785 19.5104 38.5463 19.654 38.2387 19.8437C38.0812 19.9337 37.9375 20.0441 37.7875 20.148C37.6493 20.2649 37.5024 20.3774 37.376 20.5081C36.8476 21.014 36.4371 21.6367 36.1499 22.2936C35.8584 22.9517 35.6826 23.6461 35.6076 24.3406C35.569 24.6878 35.5605 25.0362 35.5723 25.3823C35.5905 25.7338 35.6226 26.065 35.7127 26.4305C35.7523 26.5944 35.8841 26.7284 36.061 26.7627C36.301 26.8088 36.5347 26.6502 36.5807 26.409L36.5893 26.364C36.644 26.0832 36.6965 25.766 36.7608 25.4723C36.823 25.1733 36.8969 24.8797 36.9751 24.5903C37.063 24.2688 37.1616 23.9537 37.2731 23.6472C42.0154 31.3004 48.1703 31.0678 49.5646 31.2521C49.5796 31.2532 49.7704 31.2661 49.9365 31.28L50.4467 33.073C37.3813 51.2215 29.5867 48.8058 29.5867 48.8058L29.5803 46.2551C29.9007 45.8532 31.6744 43.7055 31.309 43.1C31.1921 42.906 30.6595 42.5963 30.2748 43.0625C28.5986 45.0902 25.6781 48.285 23.465 49.4049ZM36.4671 15.3671C36.6451 15.9523 37.0598 16.4871 37.631 16.8364C37.914 17.0176 38.2419 17.1387 38.5913 17.204C38.9417 17.264 39.3168 17.248 39.6855 17.1526C40.051 17.0497 40.4004 16.8504 40.6747 16.5846C40.9416 16.3113 41.1463 15.993 41.2534 15.6629C41.4817 15.0027 41.4314 14.3586 41.2417 13.8045L41.2116 13.7156C41.1548 13.5473 40.9941 13.4284 40.8076 13.4327C40.5761 13.4369 40.3929 13.6288 40.3971 13.8592C40.4068 14.3372 40.3543 14.8077 40.1828 15.1892C40.0124 15.5718 39.7177 15.8462 39.3426 15.9448C38.9728 16.0594 38.5302 16.008 38.139 15.8183C37.9418 15.7251 37.7575 15.5986 37.5914 15.4507C37.421 15.306 37.2688 15.1356 37.1391 14.947C37.0448 14.812 36.8701 14.7444 36.7029 14.7948C36.4961 14.858 36.3793 15.0767 36.4414 15.2835L36.4671 15.3671ZM67.2062 24.3192C67.0476 24.5957 66.8954 24.8968 66.8236 25.2108C66.6682 25.8892 64.4358 38.5688 64.4358 38.5688C64.4358 38.5688 62.3674 39.1775 54.0894 41.2963L53.2996 38.2408C56.1739 37.6964 61.9891 36.6064 62.107 36.4811C62.2077 36.3739 63.1412 31.998 63.527 29.8846C63.5977 29.4999 63.7778 28.7186 63.3962 29.0433C62.8411 29.517 61.7104 30.2093 61.1071 29.5374C60.8723 29.2748 60.8927 28.9544 61.0224 28.6768C61.3032 28.6361 61.5765 28.5911 61.824 28.5482C62.3995 28.4464 62.7682 27.9019 62.6535 27.3329C63.5077 26.4369 65.8162 23.6729 65.1528 21.3141C64.4937 18.967 61.256 19.3689 59.432 20.7353C58.8039 21.2048 58.7096 21.0547 58.6539 20.9765C58.6099 20.9154 58.611 20.8018 58.6142 20.73C58.6571 19.9144 60.6141 17.1172 63.3084 18.5051C63.4906 18.5994 63.7713 18.728 63.9782 18.7269C64.9374 18.7248 62.6075 14.0918 63.2901 13.7917C63.8099 13.5623 64.4455 14.7326 64.9695 16.0348C65.4282 17.1751 65.6083 18.4494 65.9116 18.4279C66.3456 18.3969 66.8172 13.0136 67.6949 13.2097C68.5137 13.3919 67.6767 17.8363 67.5995 18.3197C67.5234 18.802 67.4977 18.9863 67.6628 19.0463C67.9961 19.1664 68.4494 18.414 68.952 17.6091C69.6905 16.427 70.2992 15.59 70.5639 15.8022C71.4063 16.4785 68.7516 21.6152 67.2062 24.3192ZM39.6287 65.4882C40.2171 65.4196 41.5139 65.3628 42.1344 65.335C42.1344 65.335 41.4667 71.851 41.4667 72.15C41.4667 72.5991 39.7327 73.1928 39.5891 72.8316C39.5473 70.7321 39.5601 67.5888 39.6287 65.4882ZM43.0657 74.3588C43.0657 74.3588 41.8579 75.7392 41.3756 78.5396C41.0723 78.5396 39.9652 78.5353 39.5408 78.4978L39.5805 74.3267C39.9706 74.3267 41.366 73.9837 41.366 73.9837C41.366 73.9837 43.085 74.2752 43.0657 74.3588ZM44.7558 74.9569L46.2466 75.5409C45.4257 76.4948 45.012 77.8312 44.9873 78.5846C44.5125 78.5953 43.2383 78.53 43.2383 78.53C43.2383 78.53 43.3744 76.3104 44.7558 74.9569ZM47.9496 76.2268C48.374 76.3533 49.2796 76.8077 49.2796 76.8077C48.8048 77.3018 48.5862 78.2942 48.5047 78.77L46.7278 78.6618C46.7707 78.1795 47.2294 76.8324 47.9496 76.2268ZM38.1626 72.8316C38.019 73.1928 36.286 72.6001 36.286 72.15C36.286 71.8606 35.6591 66.0509 35.6237 65.7272L38.1262 65.5697C38.1937 67.6681 38.2044 70.7439 38.1626 72.8316ZM38.1723 78.4978C37.7468 78.5353 36.6793 78.5396 36.3771 78.5396C35.8948 75.7403 34.687 74.3588 34.687 74.3588C34.6667 74.2763 36.3857 73.9837 36.3857 73.9837C36.3857 73.9837 37.7811 74.3267 38.1723 74.3267V78.4978ZM32.7654 78.5846C32.7397 77.8312 32.326 76.4958 31.5051 75.542L32.9958 74.9569C34.3773 76.3104 34.5134 78.53 34.5134 78.53C34.5134 78.53 33.2402 78.5964 32.7654 78.5846ZM29.248 78.77C29.1655 78.2942 28.9469 77.3028 28.4732 76.8077C28.4732 76.8077 29.3777 76.3533 29.8021 76.2279C30.5223 76.8324 30.981 78.1795 31.0239 78.6618L29.248 78.77ZM16.4335 36.2303C16.4281 36.1424 16.4078 36.0899 16.3188 36.0031C16.2309 35.9227 16.0841 35.8434 15.9201 35.7834C15.7551 35.7212 15.5718 35.6751 15.3821 35.6398C15.2868 35.6215 15.1903 35.6065 15.0896 35.5937L14.7777 35.5497C14.5741 35.524 14.3747 35.5004 14.1915 35.494C13.9053 35.4844 13.6427 35.4994 13.4991 35.7726C13.3352 36.0824 13.3502 36.57 13.7274 36.7168C13.8464 36.7618 14.0221 36.7822 14.2075 36.7865C14.3951 36.7919 14.5955 36.7822 14.8023 36.7704L15.1281 36.7501C15.2407 36.7458 15.335 36.7425 15.4314 36.7361C15.6243 36.7222 15.8076 36.6975 15.9694 36.6525C16.1302 36.6086 16.2663 36.5421 16.336 36.4735C16.4035 36.405 16.4281 36.3503 16.4335 36.2303ZM14.812 38.7167C14.812 38.7167 14.1915 38.7777 14.0596 38.7145C13.9964 38.6824 13.7349 38.6534 13.7349 38.2923C13.7349 37.93 14.0211 37.8689 14.0821 37.8368C14.2086 37.7671 14.8398 37.8046 14.8398 37.8046C14.8398 37.8046 16.0745 37.7521 16.0745 38.2097C16.0745 38.6674 14.812 38.7167 14.812 38.7167ZM14.5076 32.9669C14.3576 32.9958 14.2107 33.0312 14.0736 33.0741C13.8142 33.1534 13.5827 33.2723 13.482 33.3966C13.4273 33.4567 13.4027 33.5145 13.3845 33.5874C13.3662 33.6592 13.3598 33.7514 13.3716 33.8596C13.3802 33.9679 13.4037 34.0568 13.4359 34.119C13.468 34.1833 13.5045 34.2251 13.5656 34.2669C13.6792 34.3558 13.916 34.4223 14.1775 34.4491C14.2997 34.463 14.4262 34.4694 14.5569 34.4737C14.2161 34.0825 14.334 33.462 14.5076 32.9669ZM14.9095 32.042C14.7573 32.0173 14.1968 31.9584 13.9385 31.7526C13.826 31.6626 13.8496 31.4279 13.93 31.3196C14.2579 30.8674 15.3575 30.5995 15.9544 30.5491C15.6661 30.8256 15.0799 31.6487 14.9095 32.042ZM25.7403 28.0037C25.6846 27.3929 25.6535 26.7809 25.6449 26.1679C25.8453 26.5751 26.1615 26.9256 26.4637 27.1807C26.2215 27.6136 25.9879 27.9716 25.7682 28.2674C25.7585 28.1795 25.7489 28.0916 25.7403 28.0037ZM27.4272 19.1063C27.4551 19.9412 28.126 20.5746 28.7272 20.9358C28.5557 21.6227 28.3821 22.254 28.2074 22.837C27.947 21.5284 27.6287 21.1662 27.3811 21.1212C27.1571 21.0794 26.961 21.2208 26.797 21.5413C26.2097 22.6859 27.0467 23.7072 27.7541 24.2334C27.5183 24.9043 27.2814 25.4938 27.0489 26.0104C26.8485 24.556 26.5312 24.1509 26.2762 24.093C26.0747 24.047 25.8893 24.1541 25.7232 24.4081C25.9129 22.7309 26.4434 20.9058 27.4272 19.1063ZM28.9265 16.8514C29.1023 17.2576 29.3831 17.6166 29.6532 17.8803C29.456 18.4022 29.2695 18.9552 29.0969 19.5436C28.6993 18.3819 28.3596 18.0271 28.1131 17.9714C28.3628 17.5941 28.6329 17.2201 28.9265 16.8514ZM31.4322 14.3007C31.0389 14.9127 30.6488 15.6082 30.278 16.397C30.2512 16.0101 30.2062 15.709 30.1504 15.4753C30.547 15.0745 30.9724 14.6823 31.4322 14.3007ZM51.0457 77.485C51.0747 77.454 53.4646 78.5846 53.7079 78.7636C53.8419 78.8622 53.7283 78.9983 53.5632 78.9897C53.5364 78.9887 50.3352 78.8836 50.3352 78.8836C50.3352 78.8836 50.5002 78.1013 51.0457 77.485ZM24.1895 78.9897C24.0234 78.9983 23.9109 78.8622 24.0438 78.7636C24.2871 78.5857 26.6781 77.454 26.7059 77.4861C27.2514 78.1013 27.4165 78.8836 27.4165 78.8836C27.4165 78.8836 24.2153 78.9897 24.1895 78.9897Z" fill="white"/>
<path d="M8.18275 13.3109C8.16989 13.0869 8.07986 12.8908 7.84837 12.804C7.75942 12.7708 7.66082 12.7708 7.56651 12.7836C6.74771 12.9005 5.68457 14.2058 6.14648 15.031C6.23222 15.1843 6.38654 15.3054 6.56123 15.3204C6.6802 15.3311 6.79809 15.2925 6.90847 15.2443C7.38432 15.0343 7.77013 14.6034 7.99198 14.1394C8.09058 13.9336 8.19989 13.6003 8.18275 13.3109ZM19.1893 7.13033C19.6855 7.05209 20.2374 6.7338 20.5493 6.23009C20.9491 5.62028 20.2717 5.37272 19.8516 5.39844C19.3747 5.39737 18.8249 5.65029 18.4605 6.10041C18.2762 6.33941 18.2226 6.68021 18.3405 6.83775C18.5645 7.04031 18.8121 7.2 19.1893 7.13033ZM14.238 13.1223C13.4256 12.8597 12.4707 13.7771 12.2038 14.4587C12.0195 14.9292 11.9745 15.554 12.6025 15.6634C13.477 15.8145 14.5016 14.8242 14.7052 14.0354C14.8049 13.6539 14.6474 13.2627 14.238 13.1223ZM11.3808 10.5405C10.6123 10.622 9.51704 11.5212 9.67565 12.37C9.70566 12.5318 9.78925 12.6904 9.92965 12.7729C10.085 12.864 10.2812 12.848 10.4569 12.804C10.9714 12.6743 12.0463 11.8984 12.0827 11.1911C12.0902 11.0357 12.0484 10.8846 11.9391 10.742C11.8127 10.5791 11.5855 10.5191 11.3808 10.5405ZM9.8557 15.8413C9.43987 15.6709 8.7872 16.1628 8.52355 16.4232C8.12809 16.8133 7.79478 17.3492 7.81943 17.9225C7.83658 18.3244 8.05093 18.7274 8.47211 18.7864C9.45916 18.9225 10.5191 17.3417 10.4205 16.4886C10.3905 16.226 10.2308 15.9956 9.8557 15.8413ZM19.4358 11.4687C19.3876 11.3497 19.3104 11.264 19.2118 11.205C18.7445 10.9264 17.8186 11.2672 17.4563 11.4922C17.0802 11.7259 16.4275 12.2071 16.8262 12.6947C17.2131 13.1684 18.1851 12.8662 18.6202 12.6304C19.005 12.4632 19.6362 11.9627 19.4358 11.4687ZM38.0612 61.3936L37.7986 57.3757L36.817 57.44L37.1438 62.4407L41.9151 62.1288L41.8508 61.1471L38.0612 61.3936ZM42.1691 13.7525C42.3374 14.3537 42.7532 14.896 43.3116 15.2625C43.8667 15.6333 44.5901 15.8359 45.3511 15.6977C45.7272 15.628 46.1023 15.4554 46.4131 15.2057C46.7132 14.9421 46.949 14.6163 47.0754 14.2744C47.1087 14.1898 47.1398 14.104 47.1601 14.0193C47.1815 13.9347 47.2083 13.85 47.2169 13.7653C47.2437 13.596 47.2501 13.431 47.2534 13.2702C47.2362 12.9466 47.1805 12.6432 47.069 12.3603L47.0304 12.2617C46.9683 12.1074 46.8182 11.9981 46.6414 11.9981C46.411 11.9981 46.2245 12.1856 46.2245 12.4161C46.2256 12.8973 46.1591 13.3677 45.9673 13.7268C45.8719 13.9047 45.7551 14.0579 45.6072 14.1715C45.4604 14.2862 45.2835 14.3569 45.0938 14.3977C44.7102 14.4866 44.2643 14.3977 43.8678 14.2058C43.6674 14.1104 43.4788 13.984 43.3073 13.8361C43.1326 13.6914 42.975 13.5221 42.84 13.3334C42.7468 13.2038 42.5785 13.1395 42.4167 13.1845C42.2077 13.2434 42.0866 13.4588 42.1445 13.6667L42.1691 13.7525ZM36.4676 15.3665C36.6444 15.9517 37.0602 16.4875 37.6304 16.8369C37.9144 17.018 38.2413 17.138 38.5906 17.2045C38.9422 17.2645 39.3173 17.2474 39.6859 17.153C40.0514 17.0502 40.4008 16.8498 40.6751 16.584C40.942 16.3117 41.1456 15.9934 41.2528 15.6623C41.4821 15.0032 41.4318 14.3591 41.2421 13.8039L41.2121 13.715C41.1542 13.5478 40.9934 13.4288 40.807 13.432C40.5765 13.4374 40.3933 13.6282 40.3976 13.8597C40.4072 14.3376 40.3536 14.8071 40.1832 15.1897C40.0117 15.5712 39.717 15.8466 39.343 15.9452C38.9732 16.0588 38.5296 16.0074 38.1395 15.8177C37.9423 15.7244 37.7579 15.5991 37.5907 15.4512C37.4214 15.3054 37.2692 15.1361 37.1385 14.9464C37.0452 14.8113 36.8705 14.7449 36.7033 14.7953C36.4965 14.8585 36.3797 15.0761 36.4418 15.2829L36.4676 15.3665ZM35.6327 60.6413L35.5684 59.6585L33.7604 59.7775L33.6854 58.6307L35.4934 58.5128L35.4291 57.5301L32.6383 57.7123L32.8419 60.8235L35.6327 60.6413ZM41.7919 60.2383L41.7265 59.2566L39.9185 59.3745L39.8435 58.2288L41.6515 58.1109L41.5882 57.1282L38.7975 57.3104L39.0011 60.4205L41.7919 60.2383ZM31.9031 61.7966L31.6405 57.7776L30.6588 57.8419L30.9857 62.8437L35.7559 62.5318L35.6927 61.549L31.9031 61.7966ZM6.47978 21.1334C5.25052 21.0702 3.73082 23.9285 5.37806 24.3078C5.57097 24.3529 5.77245 24.3207 5.96 24.2596C6.73378 24.011 7.6276 22.5395 7.3661 21.7057C7.26535 21.3853 6.99421 21.1591 6.47978 21.1334ZM51.3173 59.6156L54.1081 59.4334L54.0438 58.4517L52.2358 58.5696L52.1608 57.4229L53.9687 57.305L53.9044 56.3233L51.1148 56.5044L51.3173 59.6156ZM59.038 23.6144C58.8043 23.473 58.5086 23.413 58.2492 23.4258C57.8612 23.444 57.484 23.6123 57.2 23.8759C56.752 24.2928 56.9181 24.8951 57.379 25.2285C57.7712 25.5092 58.3049 25.4353 58.709 25.221C59.1001 25.013 59.5824 24.5511 59.4152 24.0614C59.3488 23.8652 59.2095 23.7173 59.038 23.6144ZM67.2056 24.3186C67.0469 24.5961 66.8958 24.8973 66.824 25.2102C66.6686 25.8897 64.4362 38.5692 64.4362 38.5692C64.4362 38.5692 62.3678 39.1779 54.0888 41.2957L53.3 38.2402C56.1743 37.6958 61.9884 36.6058 62.1074 36.4815C62.2081 36.3743 63.1405 31.9985 63.5274 29.884C63.5971 29.4993 63.7782 28.719 63.3967 29.0438C62.8415 29.5175 61.7108 30.2098 61.1075 29.5368C60.8728 29.2753 60.8931 28.9538 61.0228 28.6772C61.3025 28.6365 61.5769 28.5915 61.8244 28.5476C62.4 28.4468 62.7686 27.9024 62.6529 27.3333C63.5081 26.4374 65.8166 23.6734 65.1532 21.3135C64.493 18.9664 61.2554 19.3694 59.4313 20.7347C58.8033 21.2052 58.71 21.0552 58.6543 20.9769C58.6104 20.9159 58.6104 20.8012 58.6147 20.7294C58.6575 19.9138 60.6134 17.1177 63.3077 18.5056C63.491 18.5988 63.7718 18.7285 63.9786 18.7274C64.9378 18.7242 62.6079 14.0911 63.2906 13.7911C63.8093 13.5628 64.4459 14.7331 64.9699 16.0352C65.4276 17.1745 65.6087 18.4488 65.9109 18.4273C66.346 18.3962 66.8176 13.013 67.6953 13.2091C68.5141 13.3924 67.676 17.8368 67.6 18.3191C67.5228 18.8024 67.4971 18.9868 67.6632 19.0457C67.9954 19.1657 68.4498 18.4134 68.9525 17.6096C69.6909 16.4264 70.2996 15.5905 70.5643 15.8027C71.4067 16.4779 68.7521 21.6157 67.2056 24.3186ZM56.2129 62.6475L29.4103 64.4105L29.526 50.3528C31.8442 50.6035 33.5889 50.1534 36.2822 48.8834C39.9967 47.1312 44.9599 42.8872 49.0721 37.1921L50.5328 35.1997C49.5586 41.3589 43.8721 48.6026 41.2067 52.5766C41.0181 52.8574 40.8466 53.1832 40.7898 53.5208C40.7619 53.6847 40.7416 53.9698 40.9324 54.0481C41.0642 54.1006 41.2346 54.0384 41.345 53.9655C41.5218 53.8498 41.6665 53.6901 41.8069 53.5336C41.9826 53.3375 42.1563 53.1403 42.3234 52.9377C42.8743 52.269 43.4177 51.6463 43.931 50.9476C47.7421 45.4539 50.3785 41.4361 51.4695 36.5651C51.5027 36.7312 51.5359 36.8973 51.5681 37.0613C52.5637 42.5217 51.1137 44.7391 49.4289 47.9489C49.2146 48.3562 48.996 48.8277 49.0978 49.2768C49.2317 49.878 49.5661 49.7751 50.0988 49.2232C51.4063 47.5395 52.3633 45.5986 52.8756 43.5227L56.2129 62.6475ZM39.6291 65.4887C40.2175 65.4211 41.5143 65.3622 42.1359 65.3343C42.1359 65.3343 41.4661 71.8515 41.4661 72.1494C41.4661 72.5995 39.7331 73.1922 39.5884 72.8321C39.5477 70.7315 39.5606 67.5882 39.6291 65.4887ZM43.0661 74.3582C43.0661 74.3582 41.8572 75.7396 41.375 78.539C41.0717 78.539 39.9657 78.5347 39.5402 78.4972L39.5798 74.3271C39.971 74.3261 41.3664 73.9831 41.3664 73.9831C41.3664 73.9831 43.0854 74.2757 43.0661 74.3582ZM44.7562 74.9573L46.247 75.5403C45.4261 76.4952 45.0124 77.8306 44.9877 78.584C44.5119 78.5958 43.2387 78.5304 43.2387 78.5304C43.2387 78.5304 43.3748 76.3098 44.7562 74.9573ZM47.95 76.2273C48.3744 76.3527 49.28 76.8071 49.28 76.8071C48.8052 77.3022 48.5866 78.2946 48.5041 78.7694L46.7282 78.6622C46.7711 78.1789 47.2298 76.8317 47.95 76.2273ZM38.163 72.8321C38.0194 73.1932 36.2864 72.6006 36.2864 72.1494C36.2864 71.86 35.6595 66.0502 35.6241 65.7266L38.1255 65.569C38.1941 67.6685 38.2048 70.7433 38.163 72.8321ZM38.1716 78.4983C37.7461 78.5358 36.6798 78.539 36.3765 78.539C35.8942 75.7396 34.6864 74.3582 34.6864 74.3582C34.666 74.2757 36.3861 73.9831 36.3861 73.9831C36.3861 73.9831 37.7804 74.3261 38.1716 74.3271V78.4983ZM32.7648 78.584C32.7401 77.8306 32.3264 76.4952 31.5055 75.5414L32.9963 74.9573C34.3777 76.3098 34.5128 78.5304 34.5128 78.5304C34.5128 78.5304 33.2406 78.5958 32.7648 78.584ZM29.2474 78.7705C29.1649 78.2946 28.9473 77.3022 28.4725 76.8071C28.4725 76.8071 29.3781 76.3537 29.8025 76.2273C30.5227 76.8317 30.9814 78.1789 31.0243 78.6622L29.2474 78.7705ZM23.4655 49.4054C21.5653 46.5396 18.8185 42.346 17.2613 39.223V39.0922L17.272 37.9841C17.2956 37.9958 17.3181 38.0066 17.3384 38.0162C17.586 38.1405 17.8915 38.0505 18.0286 37.8062C18.2462 37.4193 17.5089 36.8834 17.7961 34.8075C17.9365 33.7904 18.5859 32.6898 18.6031 32.6394C18.6245 32.5783 18.6106 32.5108 18.5902 32.4508C18.5613 32.3565 18.5163 32.2686 18.4584 32.1893C18.4198 32.1346 18.3673 32.0917 18.3137 32.051C18.1197 31.9053 17.8325 31.8495 17.2377 32.9663C16.7704 33.8429 16.6236 34.6146 15.807 34.3649C14.4051 33.934 16.3021 31.5795 16.7544 31.1133C17.2624 30.5913 18.1326 30.1991 18.9021 30.198C20.2171 30.1948 20.022 33.5439 19.8045 35.4934C19.7562 35.8299 19.5473 37.5189 19.5483 37.5232C19.5483 37.5232 20.6297 39.9271 21.6403 41.5743C21.949 42.077 22.7346 43.2408 23.3144 44.0436C23.6766 44.5483 23.966 44.9116 24.0185 44.9009C24.191 44.8677 25.0045 44.08 25.326 43.8142C25.7343 43.4766 29.3213 39.9785 30.1123 39.2776C30.1573 39.2551 30.2344 39.2508 30.2795 39.238C30.3502 39.224 30.4274 39.2101 30.5088 39.2026C30.6706 39.1855 30.8453 39.1801 31.02 39.1844C31.3705 39.194 31.6866 39.2305 32.0092 39.2562L32.0885 39.2626C32.3672 39.2851 32.6437 39.1383 32.7744 38.8725C32.9459 38.5242 32.8023 38.103 32.454 37.9326C31.9856 37.7022 31.5559 37.6207 31.0779 37.5961C30.8389 37.5864 30.6031 37.5725 30.3534 37.5972C30.2269 37.6079 30.0801 37.6186 29.9472 37.6443C29.7897 37.6786 29.6686 37.699 29.525 37.7644C29.4682 37.7901 29.4135 37.8179 29.3599 37.8458C27.568 35.5855 26.5306 32.2225 26.3923 31.7027C26.2755 31.2644 26.1726 30.8218 26.0837 30.377C26.1287 30.3781 26.1748 30.3791 26.223 30.3791C26.3741 30.3791 26.5392 30.3716 26.7085 30.3523C27.6634 30.2441 28.33 29.8101 28.6376 29.0963C28.7769 28.7737 28.7619 28.539 28.5904 28.3997C28.4854 28.315 28.2132 28.0953 26.8317 28.8894C27.0922 28.5293 27.3601 28.1039 27.6302 27.6034C27.7941 27.5809 28.3064 27.4941 28.8401 27.2551C29.7168 26.8618 30.2205 26.2444 30.2966 25.4707C30.3309 25.1213 30.2441 24.9037 30.0394 24.8233C29.9097 24.7719 29.57 24.6401 28.4265 25.9197C28.6033 25.4953 28.7801 25.0334 28.9548 24.5329C29.1842 24.4761 29.5903 24.3571 30.003 24.1396C30.8539 23.6916 31.3169 23.0443 31.3437 22.2673C31.3565 21.9158 31.2569 21.7036 31.0468 21.6371C30.9128 21.5943 30.5624 21.4839 29.4896 22.8546C29.6589 22.2748 29.8251 21.6543 29.988 20.9877C30.0062 20.9137 30.0244 20.8398 30.0426 20.7658C30.2848 20.7219 30.6567 20.634 31.0425 20.4679C31.9245 20.0853 32.4368 19.4765 32.5226 18.7038C32.5622 18.3544 32.4786 18.1347 32.275 18.0522C32.1389 17.9965 31.7702 17.8475 30.4509 19.3447C30.661 18.6953 30.8882 18.094 31.1272 17.5378C31.303 17.5346 31.8131 17.5121 32.3629 17.3449C33.2813 17.0652 33.859 16.5164 34.0315 15.7598C34.1098 15.4169 34.0519 15.1886 33.859 15.0836C33.724 15.0096 33.3467 14.8049 31.6781 16.3664C32.1185 15.5112 32.5804 14.7878 33.0284 14.1812C33.1324 14.1908 33.2921 14.2037 33.4882 14.2037C33.6993 14.2037 33.9512 14.1897 34.2148 14.1458C35.1622 13.9904 35.8074 13.5231 36.0785 12.7954C36.2018 12.4653 36.1739 12.2317 35.996 12.101C35.891 12.0249 35.6263 11.833 34.4174 12.5822C34.8514 12.161 35.2179 11.8748 35.4677 11.6969C39.4073 9.73354 44.7509 8.44319 51.8746 8.42711C57.4497 8.4164 59.1977 9.41309 59.1977 10.1729C59.1977 12.6754 51.9271 17.2892 47.1762 18.5881C46.1784 18.8957 45.3789 19.0768 45.8944 20.1592L46.7979 22.2566C44.6791 22.5009 40.5315 21.8836 38.4653 21.4421C38.7986 20.9962 39.1983 20.6018 39.6388 20.1871L39.6581 20.1699C39.7781 20.0574 39.8306 19.8816 39.7803 19.7134C39.7095 19.4744 39.4587 19.3383 39.2197 19.409C38.8789 19.5098 38.5467 19.6555 38.2381 19.8441C38.0816 19.9342 37.938 20.0435 37.7869 20.1485C37.6486 20.2653 37.5028 20.3768 37.3753 20.5075C36.847 21.0134 36.4376 21.6371 36.1503 22.2941C35.8588 22.9521 35.6831 23.6466 35.608 24.34C35.5695 24.6872 35.5609 25.0355 35.5727 25.3828C35.5909 25.7332 35.6231 26.0644 35.712 26.4299C35.7517 26.5938 35.8835 26.7289 36.0603 26.7621C36.3015 26.8092 36.534 26.6506 36.5812 26.4095L36.5897 26.3655C36.6433 26.0848 36.6958 25.7665 36.7612 25.4728C36.8223 25.1727 36.8963 24.8791 36.9756 24.5897C37.0634 24.2682 37.162 23.9542 37.2735 23.6477C42.0159 31.3008 48.1707 31.0683 49.5651 31.2526C49.5801 31.2537 49.7708 31.2665 49.9359 31.2805L50.446 33.0734C37.3807 51.2209 29.5861 48.8063 29.5861 48.8063L29.5807 46.2545C29.9011 45.8526 31.6748 43.7049 31.3094 43.1004C31.1915 42.9065 30.6599 42.5957 30.2741 43.0619C28.5979 45.0896 25.6786 48.2854 23.4655 49.4054ZM16.3364 36.4729C16.2667 36.5415 16.1306 36.609 15.9688 36.6519C15.808 36.6969 15.6237 36.7216 15.4319 36.7355C15.3354 36.743 15.2411 36.7462 15.1286 36.7494L14.8028 36.7709C14.5959 36.7827 14.3944 36.7923 14.208 36.7869C14.0225 36.7827 13.8468 36.7612 13.7268 36.7173C13.3506 36.5705 13.3356 36.0818 13.4985 35.7731C13.6432 35.4987 13.9047 35.4848 14.1908 35.4945C14.3751 35.4998 14.5745 35.5234 14.7781 35.5502L15.0889 35.593C15.1907 35.607 15.2861 35.622 15.3815 35.6402C15.5712 35.6756 15.7555 35.7217 15.9195 35.7827C16.0845 35.8438 16.2314 35.9221 16.3192 36.0046C16.4071 36.0903 16.4286 36.1418 16.4328 36.2307C16.4286 36.3497 16.4039 36.4054 16.3364 36.4729ZM14.8124 38.7171C14.8124 38.7171 14.1919 38.7782 14.059 38.7139C13.9968 38.6828 13.7353 38.6539 13.7353 38.2916C13.7353 37.9305 14.0204 37.8683 14.0815 37.8362C14.209 37.7665 14.8403 37.804 14.8403 37.804C14.8403 37.804 16.0738 37.7515 16.0738 38.2091C16.0738 38.6678 14.8124 38.7171 14.8124 38.7171ZM13.3849 33.5879C13.4031 33.515 13.4267 33.4571 13.4813 33.3971C13.5821 33.2717 13.8146 33.1538 14.0729 33.0734C14.2112 33.0306 14.3569 32.9963 14.508 32.9663C14.3344 33.4625 14.2165 34.0819 14.5573 34.4731C14.4266 34.4699 14.2991 34.4635 14.1779 34.4495C13.9164 34.4217 13.6785 34.3552 13.566 34.2673C13.5049 34.2255 13.4685 34.1827 13.4363 34.1194C13.4042 34.0562 13.3795 33.9683 13.372 33.8601C13.3602 33.7518 13.3656 33.6586 13.3849 33.5879ZM13.9293 31.319C14.2583 30.8668 15.3579 30.5988 15.9549 30.5485C15.6666 30.825 15.0803 31.6491 14.9089 32.0424C14.7577 32.0178 14.1962 31.9578 13.939 31.7531C13.8253 31.6631 13.85 31.4283 13.9293 31.319ZM11.3315 19.8463C9.40343 22.0412 8.1013 25.6904 4.85827 26.2037C2.19934 26.6249 1.53701 23.8727 1.81245 21.6103C2.15325 18.8078 4.11128 14.3687 7.9041 11.0518C10.2051 9.03906 12.5339 7.52365 14.6731 6.3887C14.448 7.76693 14.2498 8.99191 14.1704 9.48597C13.7986 9.80963 13.5242 10.1569 13.3902 10.4462C13.3163 10.6091 13.3281 10.8181 13.4781 10.9714C13.6582 11.1568 13.9325 11.1707 14.0793 11.0635C14.6195 10.667 15.3343 10.204 16.2249 9.97575C16.9108 9.79891 17.6342 9.77534 17.8904 9.71532C18.1433 9.65424 18.3394 9.48061 18.3673 9.21911C18.3941 8.97154 18.2719 8.70898 17.9847 8.60502C17.8764 8.56536 17.7382 8.53214 17.5839 8.50642L17.1402 5.19802C21.0198 3.50792 23.8084 3.12639 23.8084 3.12639C23.8084 3.12639 21.6393 5.08228 20.6704 8.23313C23.5116 9.34772 26.8242 8.54607 28.9977 8.05737C26.9421 12.0517 22.4195 12.9658 18.9203 14.4309C16.0492 15.6323 13.4052 17.4864 11.3315 19.8463ZM25.7407 28.0031C25.685 27.3933 25.6539 26.7803 25.6443 26.1673C25.8447 26.5756 26.1608 26.925 26.4641 27.1801C26.2219 27.6141 25.9883 27.971 25.7675 28.2678C25.7589 28.18 25.7482 28.0921 25.7407 28.0031ZM27.4265 19.1079C27.4555 19.9417 28.1264 20.5751 28.7276 20.9362C28.5561 21.6221 28.3825 22.2555 28.2078 22.8374C27.9474 21.5289 27.628 21.1656 27.3815 21.1206C27.1575 21.0798 26.9614 21.2213 26.7964 21.5417C26.2101 22.6874 27.0461 23.7077 27.7545 24.2328C27.5187 24.9048 27.2819 25.4942 27.0493 26.0108C26.8489 24.5565 26.5317 24.1514 26.2766 24.0935C26.0751 24.0474 25.8886 24.1535 25.7236 24.4075C25.9133 22.7303 26.4438 20.9062 27.4265 19.1079ZM28.927 16.8519C29.1027 17.2581 29.3835 17.6171 29.6525 17.8807C29.4564 18.4016 29.2688 18.9546 29.0963 19.543C28.6997 18.3823 28.3589 18.0265 28.1124 17.9708C28.3622 17.5946 28.6333 17.2216 28.927 16.8519ZM31.4326 14.3001C31.0393 14.9132 30.6492 15.6087 30.2784 16.3975C30.2505 16.0106 30.2066 15.7094 30.1498 15.4758C30.5474 15.075 30.9729 14.6817 31.4326 14.3001ZM60.9724 20.9276C62.0592 20.6126 63.2638 20.544 63.76 21.7325C64.4684 23.4333 63.0226 25.1481 62.3282 25.9647C61.8791 24.1503 61.2682 21.9008 60.9724 20.9276ZM58.6682 27.5498C58.6768 27.3237 58.5761 27.104 58.411 26.9368C58.1485 26.6678 57.7369 26.4952 57.4133 26.4588C56.8806 26.4009 56.0436 26.6549 55.9782 27.2765C55.9664 27.3944 55.9739 27.5144 55.9954 27.6345C53.2378 27.6237 50.1041 27.2883 48.4655 26.088C49.6604 25.9015 50.9476 25.5382 52.2176 25.0998C52.2015 25.3174 52.2497 25.5414 52.373 25.7311C52.7063 26.2466 53.4232 26.4266 53.9955 26.3238C54.4489 26.2423 54.9676 25.939 55.0801 25.4599C55.1434 25.192 55.0737 24.9187 54.9044 24.7044C54.7661 24.5286 54.5721 24.3893 54.3674 24.2875C56.8313 23.2854 58.9533 22.2062 59.7871 21.8868C60.2094 22.9918 60.9231 26.2573 61.0914 27.0836C61.1246 27.2444 61.0078 27.3001 60.936 27.3119C60.5041 27.3858 59.6907 27.4823 58.6682 27.5498ZM51.0462 77.4855C51.074 77.4533 53.465 78.5851 53.7083 78.764C53.8412 78.8616 53.7287 78.9977 53.5626 78.9902C53.5358 78.9891 50.3356 78.8841 50.3356 78.8841C50.3356 78.8841 50.5007 78.1017 51.0462 77.4855ZM24.1889 78.9902C24.0238 78.9977 23.9102 78.8616 24.0442 78.764C24.2875 78.5851 26.6774 77.4544 26.7053 77.4855C27.2519 78.1017 27.4169 78.8841 27.4169 78.8841C27.4169 78.8841 24.2157 78.9891 24.1889 78.9902ZM71.3252 14.6367C70.5129 14.1479 69.3683 15.1082 68.8453 16.1006C69.1239 14.3151 69.2933 11.833 68.0779 11.6058C66.7854 11.3658 65.8295 14.3741 65.7502 15.4619C65.7502 15.4619 64.4512 11.6819 63.0762 12.1267C61.713 12.5682 62.0549 14.6484 62.9733 17.3267C59.7099 15.6291 57.3125 19.5901 57.5697 21.4828C56.3994 22.1901 53.3418 23.7259 46.4399 25.6475C46.3906 25.6604 46.277 25.6861 46.277 25.6861C46.277 25.6861 46.3145 25.7879 46.3499 25.8522C46.5321 26.1823 47.2876 28.1521 54.9826 28.8262C56.5934 28.9602 58.217 28.943 59.7914 28.8123C59.7174 29.0395 59.6864 29.2774 59.7153 29.5143C59.7753 30.0169 59.9993 30.4509 60.3798 30.75C60.697 30.9986 61.2157 31.1336 61.6283 31.0918C61.7419 31.0811 61.8534 31.0522 61.9563 31.0029C61.9734 30.9943 62.0677 30.9579 62.072 30.9343C62.072 30.9343 61.5372 33.6918 60.9199 35.4023C60.5588 35.4902 60.3058 35.6691 52.8649 36.5544L52.4791 35.0647C51.9968 33.5482 51.0923 29.78 51.0923 29.78C42.1841 30.1412 38.6067 22.8942 38.5767 22.8739C38.6732 22.8889 40.3075 23.3079 43.602 23.6573C44.9191 23.7966 46.2824 23.9263 47.6059 23.847C48.1472 23.8138 48.9327 23.6391 48.8438 22.9371C48.7881 22.4945 47.9232 20.5697 47.6767 20.0788C49.0378 19.5966 50.4374 19.1893 51.7256 18.5602C54.0073 17.436 60.6027 13.5724 60.5941 10.1654C60.592 8.63074 59.1784 8.04237 58.0649 7.72407C54.227 6.63091 45.1539 6.53017 38.1555 8.95654C38.0162 9.00477 37.879 9.05406 37.7418 9.10336C37.774 8.94046 37.7869 8.77435 37.7761 8.60287C37.7536 8.25135 37.6325 8.04987 37.4171 8.00378C37.2649 7.97163 36.833 7.88161 35.637 9.95002C35.4794 10.0208 35.324 10.0915 35.1697 10.1633C35.3926 9.48061 35.3326 9.16766 35.1987 9.02941C35.039 8.86758 34.7968 8.86866 34.4774 9.03371C33.6543 9.46239 33.4732 10.2662 33.5375 10.9949C33.3939 11.0753 33.2524 11.1557 33.112 11.2372C33.0509 10.9317 32.9427 10.787 32.828 10.7281C32.6244 10.6252 32.3961 10.7045 32.1464 10.9639C31.7938 11.3315 31.662 11.7441 31.662 12.1524C25.7986 16.1681 23.9863 21.5653 23.9949 25.8704C23.996 26.2905 24.0067 26.6999 24.027 27.1007C23.8727 26.9775 23.7709 26.9829 23.7109 26.985C23.4901 26.9979 23.3401 27.1779 23.2629 27.5219C23.0947 28.2796 23.3797 29.0213 24.0871 29.6675C24.0378 29.6793 24.011 29.6814 24.011 29.6814C23.6927 29.6729 23.4076 29.9215 23.3872 30.2612C23.3669 30.6021 23.6262 30.8968 23.967 30.915C23.9788 30.9161 23.996 30.9161 24.0174 30.9161C24.1085 30.9161 24.2703 30.9043 24.489 30.84C25.3378 34.994 27.0707 37.6786 28.0224 38.9679C27.9431 39.0558 25.6743 41.5175 24.0667 42.7446C23.4569 41.9248 22.9843 41.2774 22.5867 40.6709C21.8525 39.4887 21.3006 38.3367 20.8333 37.2339C20.8462 37.146 20.948 36.3411 21.0294 35.7324C21.1645 34.8289 21.3113 33.6232 21.307 32.6855C21.306 32.4615 21.441 28.9602 18.8871 28.9655C18.3491 28.9666 17.7961 29.1574 17.272 29.4671C17.2741 29.2892 17.2763 29.1134 17.2795 28.9398C17.3138 26.7064 17.2731 21.994 17.2731 21.994C17.9633 21.5707 18.4262 20.8098 18.4262 19.9395C18.4262 19.5623 18.3373 19.2065 18.1819 18.8882C18.3973 18.871 18.752 18.8206 19.0253 18.7788C19.2547 18.7446 19.4401 18.5742 19.4926 18.3469L19.6887 17.5078C19.737 17.2988 19.6394 17.0823 19.4508 16.9805L18.4798 16.4554L18.4734 16.4018C18.7274 16.316 19.0103 16.2635 19.2558 16.1831C20.0863 15.9163 20.9062 15.6162 21.7132 15.2861C22.7946 14.8446 23.8556 14.3494 24.8769 13.7836C25.969 13.178 27.0246 12.49 27.9731 11.6744C28.868 10.9028 29.6825 10.0058 30.2334 8.95332C30.3909 8.65324 30.526 8.3403 30.6331 8.01771C30.7542 7.65547 31.0179 6.41764 30.9171 6.32868C30.8153 6.23759 27.1361 7.52258 24.7269 7.52258C23.5212 7.52258 22.6306 7.33717 22.6306 7.33717C23.5769 4.85936 27.1222 1.5456 27.0514 1.35912C26.97 1.14371 22.6874 1.30339 16.9226 3.58186L16.57 0.952942C16.3278 -0.332047 15.8605 -0.303108 15.5969 0.952942C15.5026 1.39771 15.2604 2.82416 15 4.40066C14.9399 4.42745 14.8799 4.45425 14.821 4.48212C14.4244 4.6986 9.57598 7.53115 7.24606 9.58885C4.84327 11.7109 3.87015 12.9123 2.23042 15.6794C0.841468 18.0233 -0.406013 21.7593 0.360266 24.5008C1.35053 28.0406 3.75547 28.9998 6.59982 27.4073C7.75406 26.761 8.82042 25.8983 9.66279 24.8769C11.0517 23.1954 12.2349 21.5128 13.6046 20.0188C13.6303 20.8065 14.0322 21.4978 14.6377 21.919C14.6666 21.979 14.6859 22.0433 14.6774 22.1183L14.7267 29.6504L14.7352 29.9279C14.6849 29.9333 14.6356 29.9397 14.5852 29.9472C14.2465 30.0008 13.8972 30.0791 13.5392 30.273C13.3634 30.3738 13.1823 30.5035 13.0301 30.6964C12.8769 30.885 12.7665 31.1368 12.7365 31.3866C12.7193 31.5119 12.7193 31.6309 12.7322 31.7542C12.7483 31.8806 12.7783 32.0114 12.834 32.141C12.8876 32.2696 12.9658 32.3865 13.0559 32.4861C12.9648 32.5408 12.8747 32.6051 12.789 32.6833C12.6175 32.8366 12.475 33.052 12.401 33.2771C12.326 33.5021 12.3078 33.725 12.3164 33.9265C12.3271 34.1269 12.3657 34.3488 12.4643 34.5685C12.55 34.7635 12.6915 34.9457 12.8554 35.084C12.8394 35.099 12.8244 35.1151 12.8104 35.1301C12.5543 35.3916 12.4889 35.7656 12.4846 36.1203C12.4793 36.6423 12.6089 37.0024 13.0291 37.3228C13.0644 37.3507 13.1019 37.3807 13.1405 37.4128C13.0901 37.4739 13.0494 37.5371 13.0248 37.6015C12.924 37.8437 12.9005 38.0666 12.8951 38.2734C12.893 38.4813 12.9069 38.7118 13.0108 38.9636C13.1062 39.2165 13.4406 39.4652 13.6946 39.5627C13.9475 39.6677 14.1769 39.6827 14.3837 39.6806C14.5037 39.6795 14.6174 39.6699 14.7267 39.657L14.7245 39.8778L14.7074 79.9976H17.2688L17.2613 42.0727C18.8592 44.7766 21.4045 49.0903 22.2491 50.3078C22.4613 50.6143 22.756 51.0344 23.1515 51.1083C23.5533 51.1833 23.9745 50.9143 24.3057 50.7204C24.5854 50.5542 24.8523 50.3667 25.1138 50.1738C25.7011 49.7408 26.2616 49.2714 26.8199 48.802C27.0075 48.6444 27.194 48.4858 27.3837 48.3315C27.4201 48.3004 27.7288 48.0303 27.7288 48.0303L27.5616 66.1938L33.933 65.8327L35.0947 72.9103L34.1366 73.219C34.1366 73.219 33.5396 72.6692 33.0906 72.7817C33.0809 72.7828 33.0724 72.7817 33.0638 72.7849C32.6126 72.9264 32.4722 73.7602 32.4722 73.7602L30.8978 74.3486C30.8978 74.3486 30.2184 73.8877 29.7297 74.0935C29.2399 74.2993 29.2024 75.0859 29.2024 75.0859L27.8188 75.7718C27.8188 75.7718 27.134 75.3035 26.7471 75.4964C26.3613 75.6893 26.3055 76.6088 26.3055 76.6088C22.3584 78.2753 20.4689 79.9933 22.7324 79.9976C24.1514 80.0008 53.6011 80.0008 55.0201 79.9976C57.2836 79.9933 55.3941 78.2753 51.4459 76.6088C51.4459 76.6088 51.3913 75.6893 51.0044 75.4964C50.6175 75.3035 49.9327 75.7718 49.9327 75.7718L48.5491 75.0859C48.5491 75.0859 48.5126 74.2993 48.0228 74.0924C47.5331 73.8866 46.8547 74.3486 46.8547 74.3486L45.2803 73.7602C45.2803 73.7602 45.1399 72.9253 44.6887 72.7849C44.2375 72.6424 43.6159 73.219 43.6159 73.219L42.6578 72.9103L43.9267 65.18L58.2878 64.269L54.3867 42.8625L65.2132 39.8371C65.5037 39.7535 65.7223 39.5155 65.778 39.2197C66.2635 36.6669 67.9718 25.4117 67.9718 25.4117C72.1955 17.9118 72.4773 15.3279 71.3252 14.6367ZM50.1159 56.5709L49.1342 56.6341L49.4611 61.6358L54.2324 61.324L54.1681 60.3412L50.3785 60.5888L50.1159 56.5709ZM44.2204 60.9917L43.9578 56.9728L42.9761 57.0371L43.303 62.0388L48.0732 61.7258L48.0089 60.7442L44.2204 60.9917ZM5.83675 17.8861C5.82818 17.87 5.82068 17.854 5.81317 17.8379C5.72208 17.6643 5.57204 17.5196 5.3877 17.4563C5.13799 17.3706 4.85506 17.4424 4.63428 17.5849C3.98053 18.0072 3.12959 19.797 4.30527 20.1367C4.62249 20.2289 4.97509 20.1174 5.22909 19.9052C5.74137 19.4776 6.12183 18.5334 5.83675 17.8861ZM47.95 59.8364L47.8857 58.8536L46.0777 58.9715L46.0016 57.8259L47.8106 57.708L47.7463 56.7252L44.9567 56.9074L45.1592 60.0186L47.95 59.8364ZM22.338 11.7869C22.8514 11.8727 23.5255 11.6851 23.8256 11.2329C24.0388 10.9124 24.0003 10.4966 23.7763 10.2115C23.6948 10.1086 23.5876 10.0218 23.459 9.96396C22.6895 9.61779 21.0884 10.3433 21.6307 11.3368C21.7732 11.6005 22.0508 11.7387 22.338 11.7869Z" fill="#231F20"/>
<path d="M163.481 44.0236C162.801 44.0236 162.477 44.315 161.604 46.1918C160.763 48.004 159.597 49.3945 158.239 49.3945C155.521 49.3945 153.288 46.1595 153.288 39.5259C153.288 34.4464 155.489 30.6944 158.336 30.6944C160.341 30.6944 161.377 31.8901 161.409 33.67L161.443 35.2565C161.443 35.8692 161.796 36.3233 162.445 36.3233C163.092 36.3233 163.447 35.7403 163.674 34.7045C163.837 33.9938 163.868 33.1527 164.354 31.9222C164.807 30.7587 165.261 30.337 165.261 29.496C165.261 29.1735 165.066 28.6873 164.418 28.6873C163.803 28.6873 163.512 29.0111 162.865 29.5605C161.377 28.6551 160.148 28.2009 158.368 28.2009C152.965 28.2009 148.758 33.6699 148.758 40.4326C148.758 48.004 152.868 52.2102 157.203 52.2102C158.885 52.2102 159.631 51.7884 160.504 51.1422C160.891 51.7562 161.377 51.9188 161.765 51.9188C162.153 51.9188 162.574 51.7562 162.769 51.2068C163.189 50.0098 163.157 49.0708 163.739 47.2908C164.03 46.3853 164.386 45.6411 164.386 44.9304C164.386 44.4119 164.062 44.0236 163.481 44.0236Z" fill="#E66200"/>
<path d="M166.909 41.3381C168.494 41.3381 168.074 37.3898 170.695 37.3898C172.216 37.3898 172.83 38.4269 172.83 41.5316V42.0501C172.377 42.0501 172.119 42.0824 171.86 42.1147C167.491 42.7286 165.097 45.0915 165.097 48.1652C165.097 50.5592 166.78 52.1766 168.786 52.1766C170.209 52.1766 172.119 51.1745 172.119 49.7827C172.119 49.5235 171.924 49.4281 171.373 49.4913C169.725 49.6538 168.915 48.876 168.915 47.3888C168.915 45.9971 170.112 44.6052 171.729 44.2828C171.989 44.2183 172.345 44.1526 172.83 44.1526L172.863 48.5535C172.863 51.11 172.799 51.7885 173.833 51.7885C174.448 51.7563 175.322 51.6917 176.228 51.6917C176.939 51.6917 177.943 51.7885 178.168 51.7885C178.655 51.7885 178.849 51.2712 178.849 50.8185C178.849 50.4625 178.751 50.171 178.266 50.0421C177.102 49.7506 176.617 49.0707 176.617 44.8V41.9211C176.617 40.0122 176.454 38.3934 175.807 37.1642C175.031 35.7402 173.672 34.867 171.633 34.867C170.307 34.867 169.337 35.3209 168.462 35.8046C167.913 35.4486 167.426 35.223 167.104 35.223C166.78 35.223 166.36 35.4486 166.36 35.9994V36.8726C166.36 37.9083 166.004 38.9752 166.004 40.0122C166.004 40.8854 166.294 41.3381 166.909 41.3381Z" fill="#E66200"/>
<path d="M184.607 41.7907C183.475 41.921 182.925 42.1468 182.925 42.9891C182.925 43.5385 183.313 43.7965 183.895 43.7965H187.26C188.62 43.7965 189.202 43.7965 189.622 43.247C189.881 42.891 189.914 42.3402 189.914 41.5959C189.914 37.876 188.198 35.0925 184.672 35.0925C181.242 35.0925 178.039 38.6526 178.039 43.8288C178.039 48.4567 180.433 52.2747 184.736 52.2747C187.616 52.2747 189.752 50.0097 189.752 48.2297C189.752 47.8428 189.59 47.5177 189.137 47.5177C188.62 47.5177 188.393 47.9704 188.005 48.3264C187.518 48.8114 186.937 49.1352 185.738 49.1352C184.219 49.1352 181.986 47.7124 181.986 42.5027V42.0177C181.986 39.0408 183.054 37.3897 184.38 37.3897C185.642 37.3897 186.452 38.944 186.452 40.5615C186.452 40.9175 186.452 41.2091 186.289 41.3703C186.096 41.5638 185.772 41.6295 184.607 41.7907Z" fill="#E66200"/>
<path d="M196.482 52.1766C199.943 52.1766 201.756 49.6215 201.756 47.0972C201.756 44.315 199.718 43.1168 197.322 41.8889L195.705 41.0467C194.41 40.3682 194.12 39.7528 194.12 38.9763C194.12 37.9083 194.929 37.3254 195.866 37.3254C197.16 37.3254 197.841 38.4591 198.39 39.5258C198.972 40.755 199.296 41.3058 200.008 41.3058C200.59 41.3058 200.849 40.8519 200.849 40.1734C200.849 39.2022 200.493 38.1354 200.493 37.0674V36.0316C200.493 35.5144 200.072 35.2874 199.718 35.2874C199.36 35.2874 199.135 35.5467 198.746 35.935C197.841 35.321 196.933 35.0926 195.931 35.0926C192.922 35.0926 190.851 37.4556 190.851 40.0766C190.851 42.2113 191.563 43.4083 195.22 45.3495L196.32 45.9326C197.451 46.5156 198.292 47.1954 198.292 48.2956C198.292 49.0398 197.646 49.7827 196.417 49.7827C194.798 49.7827 193.634 49.0063 192.662 46.5156C192.34 45.7391 192.113 45.512 191.628 45.512C191.046 45.512 190.657 45.9326 190.657 46.6768C190.657 47.2908 190.851 47.7435 190.98 48.3923C191.111 48.9417 191.111 49.6214 191.111 50.5914C191.111 51.3034 191.272 51.951 191.919 51.951C192.113 51.951 192.535 51.7563 193.118 51.2713C194.12 51.8208 195.285 52.1766 196.482 52.1766Z" fill="#E66200"/>
<path d="M224.501 38.7171C225.083 38.7171 225.535 39.0731 226.183 39.0731C227.153 39.0731 228.124 38.1999 228.124 36.8095C228.124 35.6112 227.315 34.6412 226.086 34.6412C224.371 34.6412 222.785 35.9671 221.814 39.1375V38.4578C221.814 36.8739 221.88 36.3232 221.88 35.9672C221.88 35.3855 221.524 35.0295 220.973 35.0295C219.776 35.0295 220.068 35.9013 216.153 36.7114C215.636 36.8094 215.475 37.1641 215.475 37.5523C215.475 37.9728 215.699 38.3302 216.185 38.3934C217.965 38.5882 218.418 39.3323 218.418 40.0766L218.482 48.035C218.482 49.1688 217.414 50.0421 216.218 50.0421C214.697 50.0421 213.985 49.4603 214.051 44.8323V41.9211C214.051 40.0122 213.856 38.3611 213.208 37.1319C212.464 35.7092 211.072 34.8657 209.067 34.8657C207.739 34.8657 206.769 35.321 205.896 35.806C205.347 35.45 204.86 35.223 204.538 35.223C204.214 35.223 203.794 35.4499 203.794 35.9994V36.8739C203.794 37.9083 203.438 38.9764 203.438 40.0122C203.438 40.8854 203.728 41.3381 204.279 41.3381C205.928 41.3381 205.508 37.3898 208.128 37.3898C209.585 37.3898 210.264 38.4269 210.264 41.5329V42.0501C209.811 42.0501 209.552 42.0824 209.294 42.1147C204.957 42.6977 202.531 45.0593 202.531 48.1652C202.531 50.5592 204.246 52.1766 206.22 52.1766C207.644 52.1766 209.552 51.1745 209.552 49.7827C209.552 49.5235 209.358 49.4281 208.809 49.4925C207.19 49.6215 206.349 48.876 206.349 47.3888C206.349 45.9648 207.579 44.6052 209.197 44.2828C209.455 44.217 209.811 44.1526 210.264 44.1526L210.296 48.5535C210.296 51.1087 210.231 51.7885 211.267 51.7885C211.915 51.724 212.788 51.6917 213.662 51.6917C215.409 51.6917 218.321 51.6273 219.647 51.6273H220.941C222.138 51.6273 223.433 51.7885 224.209 51.7885C224.727 51.7885 224.857 51.4001 224.857 50.9474C224.857 50.1387 224.047 50.0097 223.401 49.7827C222.656 49.5235 222.106 49.1366 222.106 48.2956L222.138 43.6999C222.202 41.3382 222.85 38.7171 224.501 38.7171Z" fill="#E66200"/>
<path d="M234.627 41.9534L233.01 41.0788C231.78 40.4003 231.488 39.7528 231.488 38.9763C231.488 37.9083 232.266 37.3254 233.171 37.3254C234.466 37.3254 235.145 38.4591 235.695 39.5258C236.277 40.755 236.601 41.3058 237.313 41.3058C237.895 41.3058 238.154 40.8519 238.154 40.1734C238.154 39.2022 237.798 38.1354 237.798 37.0674V36.0316C237.798 35.5144 237.377 35.2874 237.021 35.2874C236.665 35.2874 236.438 35.5467 236.051 35.935C235.145 35.321 234.239 35.0926 233.236 35.0926C230.26 35.0926 228.221 37.4556 228.221 40.0766C228.221 42.2113 228.933 43.3115 232.524 45.3172L233.624 45.9326C234.724 46.5478 235.599 47.1954 235.599 48.2956C235.599 49.0398 234.885 49.7827 233.559 49.7827C231.812 49.7827 230.486 49.0398 229.516 46.5156C229.192 45.7391 228.965 45.512 228.48 45.512C227.897 45.512 227.509 45.9326 227.509 46.6768C227.509 47.2908 227.704 47.7435 227.833 48.3923C227.963 48.9417 227.963 49.6214 227.963 50.5914C227.963 51.3034 228.124 51.951 228.772 51.951C228.965 51.951 229.386 51.7563 229.969 51.2713C231.035 51.853 232.33 52.1766 233.624 52.1766C237.183 52.1766 239.059 49.6215 239.059 47.0972C239.059 44.3473 236.989 43.2149 234.627 41.9534Z" fill="#E66200"/>
<path d="M137.542 52.392C140.426 52.392 142.563 50.1246 142.563 48.3426C142.563 47.954 142.401 47.6299 141.947 47.6299C141.429 47.6299 141.203 48.083 140.814 48.4394C140.327 48.9262 139.745 49.2491 138.547 49.2491C137.023 49.2491 134.789 47.8236 134.789 42.6108V42.1239C134.789 39.1437 135.858 37.4924 137.187 37.4924C138.449 37.4924 139.258 39.047 139.258 40.6662C139.258 41.0226 139.258 41.3131 139.097 41.4758C138.903 41.6695 138.578 41.734 137.412 41.8967C136.279 42.0271 135.728 42.2532 135.728 43.0951C135.728 43.6451 136.118 43.9059 136.699 43.9059H140.068C141.429 43.9059 142.012 43.9059 142.432 43.3545C142.693 42.9981 142.725 42.448 142.725 41.7017C142.725 37.9777 141.008 35.1912 137.478 35.1912C134.044 35.1912 130.837 38.7551 130.837 43.9369C130.837 48.5699 133.235 52.392 137.542 52.392Z" fill="#E66200"/>
<path d="M105.703 38.1393H106.675L106.643 47.954C106.643 51.3875 108.425 52.3262 110.238 52.3262C112.473 52.3262 114.286 50.3519 114.286 48.7314C114.286 48.5042 114.156 48.2445 113.866 48.2445C113.445 48.2445 113.313 48.4073 112.894 48.7314C112.602 48.9574 112.31 49.1846 111.792 49.1846C110.886 49.1846 110.431 48.5363 110.431 47.2089L110.496 38.1393H115.29L115.259 47.954C115.259 51.3875 117.04 52.3262 118.983 52.3262C121.056 52.3262 122.902 50.3519 122.902 48.7314C122.902 48.5042 122.773 48.2445 122.449 48.2445C122.06 48.2445 121.897 48.3427 121.509 48.6991C121.185 48.9574 120.893 49.1846 120.376 49.1846C119.501 49.1846 119.048 48.5363 119.048 47.2089L119.079 38.1393H122.092C123.096 38.1393 123.226 37.1683 123.226 36.5524C123.226 35.8732 122.934 35.7427 122.417 35.7427H119.048L119.079 31.8547C119.079 31.4351 118.82 31.1755 118.399 31.1755C116.909 31.1755 116.942 32.893 115.777 34.6413C115.095 35.6782 114.384 35.7427 113.185 35.7427H110.431L110.465 31.8547C110.465 31.4674 110.27 31.1755 109.784 31.1755C108.294 31.1755 108.326 32.893 107.16 34.6413C106.643 35.451 106.157 35.8073 105.249 36.2296C104.603 36.5201 104.44 36.746 104.44 37.3296C104.44 37.9455 104.699 38.1393 105.703 38.1393Z" fill="#E66200"/>
<path d="M80.3412 50.9343C80.3412 51.323 80.3735 51.9054 81.4104 51.9054C83.3537 51.9054 85.3293 51.6471 87.3372 51.6471H88.4399C92.8121 51.6471 94.1072 52.2939 94.9491 52.2939C95.4359 52.2939 95.6942 52.1327 95.76 51.744C95.8891 51.1604 95.7923 50.383 96.0828 49.3461C96.6006 47.5332 97.4761 45.9462 97.4761 45.0707C97.4761 44.6175 97.2811 44.0998 96.6342 44.0998C96.2778 44.0998 95.8891 44.2624 95.3713 45.1043L94.0749 47.3395C93.428 48.4397 92.4221 49.1524 91.2574 49.1524H90.0592C88.3741 49.1524 87.4999 48.8296 87.5322 47.1446L87.5967 33.0222C87.5967 30.5275 90.5769 31.1434 90.5769 29.5242C90.5769 29.1678 90.3174 28.8114 89.8965 28.8114C89.6369 28.8114 87.8563 29.0052 85.7825 29.0052H85.297C83.2246 29.0052 81.7345 28.8114 81.1844 28.8114C80.7622 28.8114 80.5039 29.1678 80.5039 29.5242C80.5039 31.1434 83.386 30.5275 83.386 33.0545V47.0476C83.386 50.2215 80.3412 49.3461 80.3412 50.9343Z" fill="#E66200"/>
<path d="M97.4761 38.3987C99.2244 38.5937 99.6777 39.4357 99.7099 40.2453L99.7758 48.4073C99.7758 49.3783 98.9985 49.8004 98.318 50.0264C97.7033 50.2214 97.0861 50.4151 97.0861 51.1279C97.0861 51.5488 97.2165 51.9053 97.7033 51.9053C98.4794 51.9053 99.7758 51.7439 100.942 51.7439H102.237C103.403 51.7439 104.699 51.9053 105.477 51.9053C105.93 51.9053 106.059 51.5488 106.059 51.1279C106.059 50.3518 105.282 50.1892 104.666 49.9619C103.954 49.736 103.371 49.3138 103.371 48.4073L103.435 38.6248C103.435 37.0378 103.5 36.4877 103.5 36.1649C103.5 35.5477 103.209 35.1913 102.756 35.1913C101.427 35.1913 101.718 35.9699 97.4761 36.8764C96.8924 37.0055 96.7633 37.3296 96.7633 37.7183C96.7633 38.0746 96.9893 38.3342 97.4761 38.3987Z" fill="#E66200"/>
<path d="M123.226 31.8883C124.943 32.1155 125.397 32.9252 125.428 33.7336L125.494 48.4073C125.494 49.346 124.813 49.736 124.197 49.9619C123.615 50.1569 123 50.4152 123 51.1925C123 51.6147 123.129 51.9053 123.583 51.9053C124.326 51.9053 125.558 51.7439 126.66 51.7439H127.955C129.088 51.7439 130.351 51.9053 131.129 51.9053C131.615 51.9053 131.777 51.6147 131.777 51.1925C131.777 50.3519 130.999 50.091 130.384 49.8973C129.64 49.6378 129.088 49.2815 129.088 48.4073L129.154 32.1156C129.154 30.5273 129.185 29.9773 129.185 29.6532C129.185 29.0708 128.927 28.7131 128.506 28.7131C127.534 28.7131 127.468 29.4918 123.194 30.3659C122.61 30.4951 122.481 30.8191 122.481 31.2091C122.481 31.5964 122.739 31.8237 123.226 31.8883Z" fill="#E66200"/>
<path d="M99.1276 31.6933C99.1276 30.4305 100.197 29.4272 101.525 29.4272C102.885 29.4272 103.922 30.4305 103.922 31.6933C103.922 32.9575 102.885 33.9286 101.525 33.9286C100.197 33.9286 99.1276 32.9575 99.1276 31.6933Z" fill="#E66200"/>
</g>
<defs>
<clipPath id="clip0_253_2">
<rect width="238.933" height="80" fill="white" transform="translate(0.126587)"/>
</clipPath>
</defs>
</svg>
