<svg width="81" height="80" viewBox="0 0 81 80" fill="none" xmlns="http://www.w3.org/2000/svg">
<g clip-path="url(#clip0_253_30)">
<path fill-rule="evenodd" clip-rule="evenodd" d="M0.384064 0H80.3841V80H0.384064V0Z" fill="white"/>
<path fill-rule="evenodd" clip-rule="evenodd" d="M50.9031 7.39584C50.9031 8.09559 49.7584 8.60442 50.5213 9.36766C53.7029 9.17716 56.565 11.2125 57.8379 13.9484C59.1104 16.2389 58.9833 19.929 57.456 22.0282C53.3841 21.9647 49.4401 21.6468 45.814 21.7738L45.5595 22.0282C46.6407 23.746 47.8497 25.3999 47.5318 27.6905C45.1138 29.3444 42.6966 31.8894 42.3148 34.8797C42.5692 35.1976 42.8871 35.2611 43.2055 35.5155C44.0322 32.5256 46.3224 29.9172 48.8034 28.0719C48.4224 26.3541 48.6129 24.4454 47.6588 22.9189C52.1121 22.8554 56.6924 23.1094 61.2731 23.2368C61.2731 23.6186 60.5733 24.2549 61.4005 24.3819C63.3097 24.3819 64.8357 25.7183 65.8538 27.2448C66.6175 29.4714 66.2995 32.2073 64.3908 33.7977C66.1725 37.1699 65.7268 42.1316 63.3727 45.0584C60.7643 48.4936 56.6924 49.8296 52.4943 49.5117C50.5852 49.1938 48.8034 48.5575 47.2774 47.412C42.8241 49.5117 35.9528 49.8292 31.69 47.1576C29.0819 50.084 25.5193 51.4839 21.6383 50.4023C18.648 49.7018 15.849 46.7758 15.3398 43.7855C14.8309 40.2867 15.6577 36.0239 19.2842 34.0517C19.5382 33.9247 19.8566 33.8612 20.0475 33.5429C20.0475 32.0164 19.5382 30.68 19.1568 29.344C22.5921 29.1535 26.1551 29.7258 29.7177 29.4714C28.9545 31.1253 31.1807 30.3621 31.8174 30.9348C32.8986 31.8255 33.7257 32.9706 33.9166 34.307C33.7892 35.1976 33.6622 36.2157 33.5352 36.9789L35.253 35.3889C35.698 32.844 34.1715 30.8717 32.1992 29.5992C31.4995 29.7902 31.4995 28.8991 31.563 28.5816C28.5096 28.2633 25.4554 28.5816 22.529 28.3268C23.1013 23.1102 26.9823 18.4021 31.4356 15.6031C32.1357 12.6132 30.6084 9.87732 29.5907 7.26884L29.7177 6.95093C37.1614 7.33234 43.3325 7.45934 50.9031 7.39584ZM49.5032 13.1216C48.041 13.249 48.9948 14.9664 48.6764 15.8571C50.5856 17.0022 52.1125 18.72 53.5759 20.4378C54.7214 19.1018 54.4661 17.1935 53.9569 15.6031C52.9392 13.8849 51.2206 13.376 49.5032 13.1216ZM60.0645 26.7355C59.874 27.1809 59.8101 27.6901 59.8101 28.1989C60.9556 29.0257 61.9728 30.3621 63.1183 31.1888L63.5001 30.4256C63.6907 29.471 63.5002 28.3894 62.8639 27.6897C62.0998 26.9904 61.0187 26.545 60.0645 26.7355Z" fill="#33A457"/>
<path fill-rule="evenodd" clip-rule="evenodd" d="M16.6122 46.4342C16.6122 46.4342 17.4075 48.0246 18.7995 48.8991C20.1907 49.7736 21.3839 50.6887 23.7301 50.6086C26.0758 50.5293 27.3882 50.4098 28.7395 49.4561C30.0917 48.5019 31.4434 47.2688 31.5231 47.1103C31.6024 46.9513 31.7618 46.9115 31.7618 46.9115C31.7618 46.9115 33.0338 47.9055 34.2271 48.2238C35.4199 48.5417 38.0441 49.178 41.3046 48.78C44.5655 48.382 45.6786 47.9848 46.3946 47.6669C47.1105 47.3481 47.3886 47.2688 47.3886 47.2688C47.3886 47.2688 47.8659 47.8657 49.377 48.4621C50.8881 49.0585 51.9614 49.5752 54.4661 49.3764C56.9708 49.1776 57.8067 48.8194 59.2373 48.184C60.6688 47.5469 61.1859 46.9509 61.1859 46.9509C61.1859 46.9509 61.2652 47.1099 62.7365 47.07C64.2078 47.0302 66.4344 46.9111 67.2695 47.1099C68.1045 47.3087 68.6615 47.6669 68.9005 48.0242C69.1388 48.3815 69.4168 49.0186 69.6551 50.0126C69.8941 51.0066 70.3312 52.717 70.8881 55.4201C71.4451 58.1232 73.3136 66.4736 73.3136 66.4736C73.3136 66.4736 73.5925 67.7461 72.7168 68.462C71.8423 69.178 71.4845 69.5752 69.4961 69.7345C67.5085 69.8935 55.3007 69.7744 55.3007 69.7744L31.2849 69.7345H17.129C17.129 69.7345 10.7669 69.9728 9.57454 69.4955C8.38133 69.0182 7.58612 68.8601 7.22837 67.9051C6.87061 66.9509 7.06941 66.0366 7.26821 65.4004C7.46701 64.7641 9.5347 57.8455 10.0518 56.1754C10.5685 54.5049 11.9203 49.654 12.1988 49.0186C12.4773 48.3815 13.0338 47.3884 13.5908 47.1493C14.1474 46.9111 15.9768 46.5525 15.9768 46.5525L16.6122 46.4342ZM34.6803 9.8769C34.9982 11.2129 35.2526 12.9303 34.9347 14.2032C34.6164 14.3937 34.1075 14.2667 33.6622 14.3302L33.4078 14.0758C33.1534 12.6128 33.4713 10.9585 32.581 9.7499C32.9629 9.11324 34.3619 9.17715 34.6803 9.8769ZM38.3699 16.4294C39.0697 17.7019 37.8607 18.1472 36.7791 18.0837C35.761 17.9563 34.3615 17.8293 33.153 17.7023C33.153 17.1935 33.0255 16.7482 33.28 16.1115C34.8073 16.6203 36.9708 16.3024 38.3699 16.4294ZM31.563 20.8827C31.245 21.4551 30.354 22.0278 29.9721 22.664C28.3178 23.873 28.9545 28.3263 25.6463 26.6085C26.2825 24.3819 27.4911 22.4735 28.9545 20.5648L31.563 20.8827ZM51.0301 26.0997C51.094 26.4815 50.967 26.9268 51.2206 27.2448C50.8396 27.3083 50.5208 27.4361 50.1398 27.3726C49.8211 26.418 49.6941 25.082 49.758 24.2549C51.0944 23.8095 50.8396 25.3999 51.0301 26.0997ZM53.1297 28.7082C53.3841 28.8987 53.2571 29.217 53.2571 29.4714C52.239 29.7897 50.3942 30.1077 49.6314 29.217C50.3307 28.0719 51.9851 29.2809 53.1297 28.7082ZM21.8927 31.8255L21.7653 32.9066C21.447 32.9066 21.129 32.9701 20.9385 32.6526C20.7476 32.0799 21.066 31.2527 20.5567 30.8078C21.447 29.9807 21.8927 31.1257 21.8927 31.8255ZM48.8034 31.5711C48.1842 32.4298 47.5276 33.2532 47.0499 34.1746C46.8885 34.4829 46.7516 34.8034 46.6407 35.1333C46.2588 35.3242 45.75 35.1968 45.3047 35.2607C45.0503 33.7977 46.4493 32.5252 47.2769 31.4441L48.8034 31.5711ZM31.1811 33.1619C32.0718 33.8616 31.7535 34.8797 31.4355 35.7699C30.6723 35.3246 30.227 34.434 29.3359 34.0521C28.6997 33.6068 28.8267 32.907 29.2089 32.3982C29.9086 32.5256 30.6723 32.5256 31.1811 33.1619ZM23.5466 34.434C22.9739 35.1337 21.7653 34.8158 20.9385 34.7519C20.6202 34.3705 20.7476 34.0521 21.066 33.7977C21.8288 34.243 23.5466 33.4794 23.5466 34.434ZM20.0475 36.2788C18.9659 37.1064 18.4567 38.1871 18.0757 39.3326H17.1846C16.8662 38.1236 18.0113 37.1699 18.5841 36.1518C19.0933 36.2153 19.6656 36.0883 20.0475 36.2788Z" fill="white"/>
<path fill-rule="evenodd" clip-rule="evenodd" d="M16.787 55.7675C17.1053 58.4395 18.1072 62.574 15.8963 63.9739C14.5844 64.7617 12.9301 64.7052 11.6974 63.7195C10.9977 62.8301 10.2979 61.8112 10.8068 60.6034C11.1882 60.2208 11.7132 59.839 12.0788 60.3474C12.5719 61.175 12.5399 62.0179 13.5418 62.574C14.4325 62.8919 15.1405 62.4628 15.3871 61.4929C15.832 58.757 13.6925 54.8523 14.8778 53.9235C16.4686 53.2229 16.5965 54.7893 16.787 55.7675ZM24.9303 57.9941C25.5666 60.0295 26.3858 64.0233 25.9484 64.4213C25.6301 64.6102 25.2246 64.6417 24.8033 64.5463C23.7537 64.2918 24.4215 62.8919 23.5947 62.3196C22.7838 62.3043 20.9464 61.7635 20.724 62.9965C20.724 63.6319 20.4853 64.4271 19.8412 64.5463C19.3319 64.5463 18.7596 64.5463 18.6322 63.9739C19.014 60.4113 20.1906 57.2305 21.9089 54.1763C22.2272 53.787 23.0224 53.9858 23.3403 54.1763C24.1036 55.3857 24.5489 56.6586 24.9303 57.9941ZM34.0913 56.2767C34.4732 57.6127 34.0913 59.3936 32.9463 60.3478C33.5186 61.6203 33.7099 63.2107 33.0733 64.5467C32.5005 64.8011 31.4828 64.6749 31.6103 63.8469C31.6738 62.7658 31.8008 61.5584 30.847 60.73C30.5287 60.73 30.2905 60.8168 30.0199 60.7632C29.5106 61.6518 29.67 62.7807 29.5106 63.8469C29.5666 64.5546 29.1292 64.6106 28.8744 64.6745C28.0476 64.6745 27.5861 64.4516 27.6658 63.4668L28.4925 54.5597C29.2724 53.4686 33.9249 54.2883 34.0913 56.2767ZM46.4971 55.0038C46.434 55.8941 46.2028 56.6673 46.06 57.7314C45.7413 60.0216 45.9878 64.157 45.479 64.6745C45.0972 64.865 44.7162 64.865 44.143 64.6745C43.2133 63.6718 43.5391 59.9282 43.7612 57.7414C43.8886 56.5942 44.0164 55.0673 45.0972 54.3037C45.7346 54.1763 46.3701 54.495 46.4971 55.0038ZM61.1377 56.1502C61.5835 58.8844 61.5113 62.8305 58.8397 64.8011C57.9885 65.2066 57.2257 64.9609 56.3981 64.6421C54.4258 63.8154 54.3229 59.968 55.0227 57.6123C55.5319 56.1501 56.6139 54.4315 58.3309 54.3033C59.412 54.2721 60.8198 55.0038 61.1377 56.1502ZM54.5134 55.0038C54.7678 55.5143 54.7678 56.6582 53.878 56.5303C53.3526 56.5386 52.6931 56.3398 52.1361 56.4689L52.0332 56.8175C51.8419 59.3936 51.8419 62.32 51.5239 64.8011C51.1658 65.2161 50.7603 64.9202 50.3154 64.9285C49.2201 64.8799 49.653 61.2895 49.7185 59.6725C49.7737 58.7499 49.9966 57.4853 49.8061 56.5307C48.9155 56.3402 47.77 57.1056 47.7065 55.7679C47.7065 55.2587 48.1514 54.4954 48.7237 54.5602C50.5291 54.3759 52.923 54.1692 54.5134 55.0038ZM68.1286 55.8941C68.1916 56.3398 68.0646 56.7864 67.6193 56.9122C66.5382 57.294 65.3927 55.5147 64.6929 57.0396V57.4853C65.6471 59.2031 68.5091 60.0299 68.383 62.3196C68.3191 63.2746 68.0003 64.1653 67.1736 64.8011C65.9019 65.5017 64.1202 65.1829 62.9112 64.5467C62.4019 64.1657 62.4019 63.4668 62.5933 62.9571C63.8018 62.2565 66.4738 64.6106 66.1559 61.939C64.8199 60.1573 61.8296 58.7574 62.7838 56.1506C63.1656 55.3222 64.1837 54.8789 65.1378 54.6859C66.2194 54.8125 67.6193 54.8125 68.1286 55.8941Z" fill="#33A457"/>
<path fill-rule="evenodd" clip-rule="evenodd" d="M32.3739 57.3255C32.4374 57.9003 31.7377 58.3436 31.3559 58.598C30.8869 58.8047 30.4021 59.1073 30.0199 58.4706C29.9883 57.6439 29.9481 56.7466 30.2747 55.9908C31.2048 55.7131 32.4777 56.2369 32.3739 57.3255ZM59.3486 57.4853C59.6665 59.3936 59.3963 62.6716 58.0126 62.8305C57.5033 63.0833 57.2489 62.4479 56.9945 62.1951C56.3582 60.6039 56.4852 58.4395 57.3763 57.0396C57.9487 55.8941 59.2846 56.4029 59.3486 57.4853ZM23.3399 60.4748H21.6864C21.8134 59.5206 22.1239 58.4395 22.5767 57.3579C22.7908 57.7584 23.2939 59.6514 23.3399 60.4748Z" fill="white"/>
<path fill-rule="evenodd" clip-rule="evenodd" d="M42.0201 56.2734C42.4019 57.6094 42.0201 59.3903 40.8746 60.3453C41.4478 61.6169 41.6383 63.2073 41.002 64.5433C40.4297 64.7986 39.4116 64.6707 39.539 63.8436C39.6025 62.7624 39.7295 61.5534 38.7758 60.7267C38.4575 60.7267 38.2192 60.8143 37.9486 60.7582C37.4398 61.6489 37.5988 62.7774 37.4398 63.8436C37.4954 64.5512 37.0584 64.6072 36.8036 64.6703C35.9768 64.6703 35.5153 64.4483 35.595 63.4618L36.4217 54.5556C37.2008 53.4653 41.8533 54.285 42.0201 56.2734Z" fill="#33A457"/>
<path fill-rule="evenodd" clip-rule="evenodd" d="M40.3023 57.3223C40.3658 57.8954 39.6661 58.3403 39.2842 58.5947C38.8153 58.8014 38.3305 59.104 37.9483 58.4673C37.9167 57.6406 37.8769 56.7416 38.2031 55.9859C39.1336 55.7086 40.4061 56.2336 40.3023 57.3223Z" fill="white"/>
<path fill-rule="evenodd" clip-rule="evenodd" d="M15.8963 42.9081C15.8963 42.9081 16.1354 42.7093 16.533 42.9081C16.9306 43.1069 17.368 43.5444 18.2027 43.7033C19.0377 43.8631 20.3102 44.1412 21.2644 43.7033C22.2181 43.2663 23.2524 42.5109 24.326 42.7093C25.3993 42.9081 25.916 43.6635 27.0694 43.9025C28.2228 44.1408 29.3758 44.2221 30.5287 43.3854C31.6821 42.5504 32.1988 42.8284 32.3976 42.8284C32.5964 42.8284 32.7554 42.9475 32.7554 42.9475C32.7554 42.9475 32.9542 44.1823 31.8406 45.8918C30.7275 47.6013 29.2562 49.2315 25.5587 49.8279C21.8612 50.4243 19.5943 48.6754 18.958 48.2774C18.3218 47.8802 17.4075 46.9651 16.8111 45.8125C16.2147 44.66 16.0154 43.9415 15.9366 43.5842C15.8565 43.2256 15.8963 42.9081 15.8963 42.9081Z" fill="#DB812E"/>
<path fill-rule="evenodd" clip-rule="evenodd" d="M32.7558 38.0573C32.7558 38.0573 34.0278 36.029 35.0621 35.3932C36.0959 34.7569 37.7262 33.9617 39.476 34.0812C41.2253 34.2004 41.5831 34.4386 42.1795 34.7175C42.7763 34.9956 43.1739 35.4729 43.1739 35.4729C43.1739 35.4729 42.9348 37.9381 43.054 39.0513C43.1739 40.1644 43.5429 41.7261 44.0737 43.0273C44.6444 44.4205 45.772 46.0508 46.2094 46.5679C46.6469 47.085 46.5132 46.9253 46.5132 46.9253C46.5132 46.9253 44.2866 48.0786 41.6619 48.2774C39.0427 48.4746 36.5728 48.2376 35.1418 47.8001C33.7103 47.3631 32.3187 46.687 32.3187 46.687C32.3187 46.687 32.84 45.5337 33.1139 44.8978C33.4713 44.0611 33.5115 42.8679 33.4713 42.0727C33.4314 41.2775 33.392 40.6014 33.2326 39.7265C33.0737 38.8525 32.7558 38.0573 32.7558 38.0573Z" fill="#DB812E"/>
<path fill-rule="evenodd" clip-rule="evenodd" d="M43.8886 39.6621C43.8886 39.6621 44.8436 40.6416 46.7922 40.8806C48.7399 41.1189 49.5351 41.3177 50.8873 40.5619C52.2387 39.8065 53.0347 39.1703 54.5446 39.6472C56.0565 40.124 56.936 41.1155 58.3625 41.238C58.3625 41.238 59.515 41.5953 61.1851 40.8408C62.8548 40.0846 63.1337 39.8858 63.7703 39.7671C64.4066 39.6476 64.7643 39.7269 64.7643 39.7269C64.7643 39.7269 64.8042 42.0332 63.4918 43.9025C62.1803 45.7726 61.0664 46.8061 59.0788 47.7602C57.0904 48.7152 54.7413 48.9933 52.6371 48.7152C50.7362 48.4608 48.9391 47.6013 47.7459 46.5678C46.5535 45.5336 45.7583 44.1407 45.1221 43.0674C44.4858 41.9933 44.2621 41.1583 44.1024 40.6412C43.943 40.1245 43.8886 39.6621 43.8886 39.6621Z" fill="#DB812E"/>
<path fill-rule="evenodd" clip-rule="evenodd" d="M15.3003 43.5842C15.3003 43.5842 15.4589 44.4209 15.7378 45.2161C15.9731 45.8856 16.4803 46.6476 16.4803 46.6476C16.4803 46.6476 15.0219 46.8464 14.4649 47.0456C13.9087 47.2444 13.2725 47.4826 12.8745 48.1189C12.4769 48.7551 12.3972 48.9933 12.1984 49.63C11.9996 50.2662 7.30764 66.0117 7.30764 66.0117C7.30764 66.0117 7.17608 66.858 7.33462 67.5623C7.43672 68.0163 8.14311 68.8746 8.73909 69.1137C9.33549 69.3519 10.0518 69.471 10.7669 69.5507C11.4829 69.63 12.5167 69.5906 12.5167 69.5906H68.2232C68.2232 69.5906 69.8937 69.6304 70.5304 69.4715C71.1658 69.3125 71.8817 69.0734 72.2399 68.7555C72.5972 68.4376 72.9953 68.1587 73.1144 67.6822C73.2335 67.205 73.2335 66.887 73.1542 66.4098C73.0749 65.9325 72.9151 64.9783 72.9151 64.9783L69.4164 49.3909C69.4164 49.3909 69.2176 48.6758 68.9001 48.2778C68.5814 47.8806 68.3432 47.5225 67.6671 47.3635C66.991 47.2037 65.6388 47.2037 65.3599 47.2037C65.0818 47.2037 61.305 47.19 61.305 47.19C61.305 47.19 62.3903 46.2612 62.6692 45.9433C63.0499 45.5021 63.4086 45.0425 63.7442 44.5662C64.1023 44.0491 64.341 43.6784 64.341 43.6784C64.341 43.6784 66.3132 43.7228 67.1894 43.8229C68.2228 43.942 69.6542 44.4209 70.2909 44.8189C70.9271 45.2161 71.9614 46.0906 72.2793 46.8464C72.5972 47.6021 72.9147 48.8746 72.9147 48.8746L76.7845 65.7449C76.7845 65.7449 77.0763 67.7615 76.4682 69.3627C76.0088 70.5705 74.9426 71.6699 73.7494 72.1754C72.8658 72.5473 72.1598 72.8116 71.3247 72.9299C70.4889 73.0499 68.8192 73.0499 68.8192 73.0499H11.9203C11.9203 73.0499 9.82689 72.9557 8.97815 72.7971C8.13024 72.6373 6.91087 72.2152 6.06255 71.5246C5.21339 70.8348 4.41819 69.8798 4.15423 68.9801C3.88861 68.0794 3.88861 66.858 3.9409 66.0117C3.99485 65.163 4.26048 64.0491 4.26048 64.0491L4.57715 62.6176L9.29648 47.4033C9.29648 47.4033 9.73558 46.2857 10.0917 45.8129C10.7279 44.9634 11.3638 44.4861 12 44.1682C12.6367 43.8503 13.3252 43.639 13.9614 43.5846C14.5989 43.5315 15.3003 43.5842 15.3003 43.5842Z" fill="#DB812E"/>
</g>
<defs>
<clipPath id="clip0_253_30">
<rect width="80" height="80" fill="white" transform="translate(0.384064)"/>
</clipPath>
</defs>
</svg>
