<svg width="190" height="80" viewBox="0 0 190 80" fill="none" xmlns="http://www.w3.org/2000/svg">
<rect x="0.138367" width="189.324" height="80" fill="white"/>
<path d="M111.381 59.7715L111.308 56.059C111.308 55.459 111.271 54.9715 111.235 54.5215L111.964 54.3715L112.037 55.3465H112.073C112.292 54.634 112.875 54.0715 113.567 53.884C114.15 53.6965 114.77 54.0715 114.916 54.634C114.916 54.6715 114.952 54.709 114.952 54.7465C115.171 53.9965 115.754 53.3965 116.519 53.209C117.175 53.059 117.795 53.4715 117.94 54.109C117.94 54.1465 117.977 54.2215 117.977 54.259C118.05 54.559 118.05 54.859 118.086 55.1215L118.159 58.234L117.321 58.4215L117.248 55.384C117.248 55.159 117.211 54.934 117.175 54.709C117.066 54.184 116.811 53.884 116.264 53.9965C115.644 54.1465 115.098 55.009 115.134 56.1715L115.207 58.8715L114.405 59.059L114.333 55.984C114.333 55.759 114.296 55.5715 114.26 55.3465C114.187 54.934 113.968 54.5215 113.349 54.634C112.729 54.7465 112.146 55.759 112.183 56.884L112.255 59.509L111.381 59.7715Z" fill="#00ADEF"/>
<path d="M122.824 57.2216C122.751 56.7716 122.678 56.3216 122.642 55.8716C122.314 57.0341 121.73 57.5591 121.038 57.7091C120.164 57.8966 119.471 57.2966 119.289 56.3591C118.852 54.409 120.018 52.459 121.876 52.009C121.913 52.009 121.913 52.009 121.949 52.009C122.386 51.8965 122.86 51.8965 123.297 51.934L123.334 54.6715C123.334 55.4591 123.443 56.2841 123.625 57.0716L122.824 57.2216ZM122.459 52.7215C122.241 52.7215 122.058 52.7215 121.876 52.759C120.601 53.059 119.872 54.634 120.127 56.0215C120.236 56.5841 120.564 57.1091 121.184 56.9591C121.803 56.8091 122.532 55.6841 122.496 54.2965L122.459 52.7215ZM122.824 49.759L121.767 51.559L121.111 51.709L121.803 49.984L122.824 49.759Z" fill="#00ADEF"/>
<path d="M124.719 55.909C125.083 56.0215 125.484 56.059 125.849 55.984C126.322 55.9465 126.65 55.4965 126.614 55.009V54.9715C126.541 54.559 126.322 54.3715 125.739 54.184C125.193 54.0715 124.755 53.659 124.61 53.0965C124.427 52.1965 125.011 51.3715 126.067 51.1465C126.432 51.0715 126.796 51.0715 127.161 51.184L127.051 51.8965C126.76 51.8215 126.468 51.784 126.14 51.859C125.703 51.8965 125.375 52.309 125.411 52.759V52.7965C125.484 53.1715 125.776 53.359 126.25 53.509C126.869 53.6965 127.343 54.0715 127.452 54.634C127.671 55.684 126.942 56.4715 125.922 56.734C125.484 56.8465 125.047 56.809 124.646 56.659L124.719 55.909Z" fill="#00ADEF"/>
<path d="M130.549 50.284L131.606 52.909C131.824 53.4715 131.97 53.809 132.116 54.184H132.152C132.225 53.8465 132.298 53.434 132.408 52.834L133.063 49.759L133.974 49.5715L132.918 53.809C132.699 54.859 132.335 55.909 131.788 56.8465C131.496 57.3715 131.059 57.784 130.549 58.0465L130.185 57.334C130.476 57.1465 130.768 56.9215 130.986 56.659C131.314 56.2465 131.533 55.7965 131.679 55.309C131.715 55.234 131.715 55.159 131.679 55.084L129.711 50.5465L130.549 50.284Z" fill="#00ADEF"/>
<path d="M136.854 54.1465L136.781 50.434C136.781 49.834 136.745 49.3465 136.708 48.934L137.437 48.784L137.51 49.759H137.546C137.765 49.0465 138.348 48.484 139.04 48.334C139.623 48.1465 140.243 48.5215 140.389 49.084C140.389 49.1215 140.425 49.159 140.425 49.1965C140.644 48.4465 141.227 47.8465 141.992 47.659C142.648 47.509 143.267 47.9215 143.413 48.559C143.413 48.5965 143.45 48.6715 143.45 48.709C143.523 49.009 143.559 49.2715 143.559 49.5715L143.632 52.684L142.794 52.8715L142.721 49.834C142.721 49.609 142.684 49.384 142.648 49.159C142.539 48.634 142.284 48.334 141.737 48.4465C141.117 48.559 140.571 49.459 140.607 50.6215L140.68 53.3215L139.878 53.509L139.806 50.434C139.806 50.209 139.769 50.0215 139.733 49.7965C139.66 49.384 139.441 48.934 138.822 49.084C138.202 49.234 137.619 50.209 137.656 51.334L137.728 53.959L136.854 54.1465Z" fill="#00ADEF"/>
<path d="M148.515 51.2965C148.077 51.6715 147.531 51.934 146.984 52.0465C145.672 52.3465 144.943 51.559 144.688 50.434C144.36 48.8965 145.126 46.9465 146.693 46.609C147.64 46.4215 148.26 46.8715 148.405 47.584C148.697 48.8965 147.312 49.5715 145.49 49.9465C145.526 50.284 145.599 50.584 145.782 50.884C146.073 51.2965 146.547 51.4465 147.021 51.334C147.494 51.2215 147.895 50.9965 148.26 50.6965L148.515 51.2965ZM147.604 47.7715C147.531 47.359 147.166 47.209 146.729 47.284C145.927 47.4715 145.49 48.409 145.454 49.234C146.765 48.9715 147.749 48.559 147.604 47.7715Z" fill="#00ADEF"/>
<path d="M150.409 45.8964L150.519 51.109C150.555 51.9715 150.482 52.5715 150.264 52.9465C150.045 53.3215 149.681 53.6215 149.243 53.6965C149.061 53.734 148.879 53.7715 148.66 53.7715L148.624 53.059C148.77 53.059 148.879 53.059 149.025 53.0215C149.462 52.909 149.717 52.5715 149.717 51.484L149.571 46.0839L150.409 45.8964ZM149.972 45.1089C149.717 45.1839 149.462 44.9964 149.389 44.7339V44.6964C149.316 44.3589 149.535 44.0589 149.826 43.9839C150.081 43.9089 150.373 44.0964 150.446 44.3964V44.4339C150.519 44.6964 150.3 45.0339 149.972 45.1089C150.009 45.1089 150.009 45.1089 149.972 45.1089Z" fill="#00ADEF"/>
<path d="M156.022 46.759C156.35 48.2965 155.621 50.1715 153.945 50.509C152.706 50.7715 151.831 49.984 151.576 48.859C151.248 47.209 152.05 45.409 153.617 45.0715C155.001 44.7715 155.803 45.6715 156.022 46.759ZM152.487 48.634C152.669 49.459 153.216 49.9465 153.945 49.7965C154.929 49.5715 155.439 48.109 155.184 46.909C155.074 46.309 154.637 45.559 153.726 45.7465C152.669 46.009 152.232 47.4715 152.487 48.634Z" fill="#00ADEF"/>
<path d="M157.224 49.684L157.151 46.309C157.151 45.634 157.078 44.9215 157.042 44.4715L157.771 44.3215C157.807 44.6965 157.844 45.034 157.88 45.4465H157.917C158.099 44.6965 158.5 44.059 159.156 43.909C159.228 43.909 159.301 43.8715 159.374 43.8715V44.7715C159.301 44.7715 159.228 44.7715 159.156 44.809C158.427 44.959 157.953 46.009 157.989 47.2465L158.026 49.5715L157.224 49.684Z" fill="#00ADEF"/>
<path d="M165.57 47.884C165.497 47.434 165.424 46.984 165.424 46.5715H165.387C165.059 47.734 164.476 48.259 163.784 48.409C162.909 48.5965 162.217 47.9965 162.035 47.059C161.597 45.109 162.764 43.159 164.658 42.709H164.695C165.132 42.5965 165.606 42.5965 166.043 42.634L166.08 45.3715C166.08 46.159 166.189 46.984 166.371 47.7715L165.57 47.884ZM165.205 43.3465C164.986 43.3465 164.804 43.3465 164.586 43.4215C163.31 43.684 162.581 45.2965 162.836 46.684C162.946 47.2465 163.274 47.734 163.893 47.6215C164.513 47.509 165.242 46.3465 165.205 44.959V43.3465Z" fill="#00ADEF"/>
<path d="M167.902 48.5589C168.339 48.7089 168.813 48.7089 169.287 48.5964C170.125 48.4089 170.671 47.8464 170.671 46.4214V45.6339H170.635C170.416 46.3464 169.87 46.9089 169.141 47.0589C168.157 47.2839 167.464 46.5339 167.282 45.6339C166.918 43.9089 167.792 41.9589 169.687 41.5464C170.234 41.4339 170.781 41.4339 171.327 41.5464L171.437 45.8964C171.437 46.9839 171.327 47.8089 170.89 48.3714C170.489 48.8589 169.906 49.1964 169.287 49.3089C168.776 49.4214 168.23 49.4214 167.756 49.2714L167.902 48.5589ZM170.526 42.2964C170.234 42.2214 169.942 42.2214 169.687 42.2964C168.448 42.5589 167.902 44.0589 168.12 45.3339C168.23 45.8964 168.558 46.4964 169.323 46.3464C170.088 46.1964 170.598 45.1089 170.562 44.0589L170.526 42.2964Z" fill="#00ADEF"/>
<path d="M176.684 40.1589L176.757 43.8714C176.757 44.4714 176.793 44.9589 176.83 45.4089L176.064 45.5589L175.991 44.5839H175.955C175.7 45.2964 175.153 45.8214 174.461 46.0089C173.841 46.1589 173.113 45.9714 172.857 44.8464C172.821 44.5464 172.785 44.2839 172.785 43.9839L172.712 41.0214L173.55 40.8339L173.623 43.7589C173.623 44.0214 173.623 44.2464 173.696 44.5089C173.805 45.0339 174.096 45.3339 174.679 45.2214C175.263 45.1089 175.918 44.1714 175.882 43.0464L175.809 40.3464L176.684 40.1589Z" fill="#00ADEF"/>
<path d="M181.494 44.3591C181.421 43.9091 181.348 43.4591 181.348 43.0091H181.312C180.984 44.1716 180.401 44.6965 179.709 44.8465C178.834 45.034 178.142 44.4341 177.959 43.4966C177.522 41.5466 178.688 39.6341 180.583 39.1841H180.62C181.057 39.0716 181.531 39.0341 181.968 39.0716L182.004 41.8091C182.004 42.5966 182.114 43.4216 182.296 44.2091L181.494 44.3591ZM181.13 39.8591C180.911 39.8591 180.729 39.8591 180.51 39.9341C179.235 40.2341 178.506 41.8091 178.761 43.1966C178.87 43.7591 179.198 44.2466 179.818 44.1341C180.437 44.0216 181.166 42.8591 181.13 41.4716V39.8591Z" fill="#00ADEF"/>
<path d="M166.08 33.1465C166.517 33.1465 166.918 33.259 167.282 33.484C167.683 33.709 168.011 34.009 168.193 34.4215C168.412 34.7965 168.521 35.2465 168.521 35.6965C168.521 36.1465 168.412 36.559 168.193 36.934C167.975 37.3465 167.683 37.6465 167.282 37.8715C166.517 38.3215 165.606 38.3215 164.841 37.8715C164.44 37.6465 164.148 37.3465 163.93 36.934C163.711 36.559 163.602 36.109 163.602 35.6965C163.602 35.2465 163.711 34.7965 163.93 34.4215C164.148 34.009 164.476 33.709 164.841 33.484C165.242 33.259 165.642 33.1465 166.08 33.1465ZM166.08 33.559C165.715 33.559 165.387 33.6715 165.059 33.8215C164.731 34.009 164.476 34.2715 164.294 34.609C164.112 34.9465 164.003 35.284 164.003 35.659C164.003 36.034 164.112 36.3715 164.294 36.709C164.476 37.0465 164.731 37.309 165.059 37.4965C165.351 37.684 165.715 37.7965 166.08 37.7965C166.444 37.7965 166.772 37.684 167.1 37.4965C167.428 37.309 167.683 37.0465 167.865 36.709C168.047 36.409 168.12 36.034 168.12 35.659C168.12 35.284 168.011 34.909 167.829 34.609C167.647 34.2715 167.392 34.009 167.064 33.8215C166.772 33.6715 166.444 33.559 166.08 33.559ZM164.986 37.0465V34.309H165.897C166.116 34.309 166.335 34.309 166.59 34.384C166.736 34.4215 166.845 34.534 166.918 34.6465C166.991 34.759 167.027 34.909 167.064 35.059C167.064 35.2465 166.991 35.434 166.845 35.584C166.699 35.734 166.517 35.809 166.298 35.8465C166.371 35.884 166.444 35.9215 166.517 35.9965C166.663 36.1465 166.808 36.334 166.918 36.5215L167.246 37.0465H166.736L166.481 36.5965C166.371 36.3715 166.225 36.1465 166.043 35.959C165.934 35.884 165.825 35.8465 165.679 35.8465H165.424V37.009L164.986 37.0465ZM165.424 35.5465H165.934C166.116 35.584 166.298 35.5465 166.444 35.434C166.517 35.359 166.59 35.2465 166.59 35.134C166.59 35.059 166.553 34.984 166.517 34.909C166.481 34.834 166.408 34.7965 166.335 34.759C166.189 34.7215 166.043 34.7215 165.897 34.7215H165.424V35.5465Z" fill="black"/>
<path d="M143.923 36.8214V29.8089C143.923 27.8589 143.523 26.3589 142.757 25.3089C142.065 24.2964 141.008 23.5464 139.842 23.2464C138.494 22.9464 137.145 22.9464 135.797 23.2839C133.72 23.7339 131.497 24.7839 129.201 26.3964V31.9464C130.841 30.2589 132.481 29.2089 134.048 28.7214C135.178 28.3839 136.307 28.1964 136.854 28.4589C137.728 28.8714 137.692 29.5464 137.692 30.3714C130.695 32.8089 127.197 36.1089 127.197 40.2714C127.197 42.1089 127.816 43.5714 129.055 44.5839C130.222 45.5964 131.789 45.9714 133.283 45.5964C134.121 45.4089 134.922 45.0339 135.615 44.4714C136.417 43.8339 137.145 43.0464 137.728 42.1839C137.728 44.0964 138.712 43.9839 139.15 43.8714C139.587 43.7589 145.162 42.5589 145.162 42.5589C144.361 42.2964 143.741 41.4714 143.923 36.8214ZM137.728 36.5214C137.765 37.3464 137.546 38.1714 137.182 38.9214C136.854 39.5589 136.307 40.0089 135.615 40.1589C135.068 40.3089 134.485 40.1214 134.084 39.7464C133.647 39.2964 133.392 38.6964 133.428 38.0964C133.428 36.1839 134.85 34.7589 137.692 33.8964L137.728 36.5214Z" fill="black"/>
<path d="M78.1099 41.284L75.0488 41.959V50.509C75.0488 51.8215 75.559 52.384 76.5793 52.159C77.1624 52.009 77.709 51.6715 78.1099 51.259V56.9215C76.9073 57.634 75.6319 58.1215 74.2835 58.4215C72.1699 58.8715 70.6394 58.684 69.6555 57.8965C68.6716 57.109 68.1614 55.5715 68.1614 53.434V43.534L65.6834 44.059V38.809C65.6834 38.809 67.7241 38.359 68.1614 38.284C67.9063 33.2965 69.1818 32.884 70.6394 32.5465L74.7208 31.759V36.8965L78.0734 36.184L78.1099 41.284Z" fill="black"/>
<path d="M122.131 19.8715C121.512 20.059 119.07 21.0715 119.034 25.459V48.2215L122.714 47.434C123.37 47.2465 125.775 46.234 125.812 41.884V19.084L122.131 19.8715Z" fill="black"/>
<path d="M115.608 30.8215C114.333 29.0215 112.62 28.309 110.47 28.7965C109.559 28.984 108.684 29.434 107.956 30.034C107.227 30.634 106.607 31.384 106.133 32.209C106.133 31.234 106.243 30.259 105.222 30.409C104.129 30.634 99.1003 31.759 99.1003 31.759C99.2825 32.0215 99.4283 32.359 99.4283 32.6965C99.4647 33.2965 99.4283 62.284 99.4283 62.284L103.583 61.384C105.077 60.9715 106.243 60.7465 106.243 57.2215V49.909C106.789 50.3215 107.409 50.584 108.065 50.7715C108.721 50.9215 109.413 50.9215 110.069 50.7715C111.563 50.434 112.912 49.609 113.895 48.409C115.062 47.059 115.973 45.484 116.556 43.7965C117.212 41.9215 117.54 39.8965 117.54 37.909C117.54 35.0215 116.884 32.659 115.608 30.8215ZM109.923 43.459C109.486 44.4715 108.83 45.034 108.028 45.2215C107.7 45.2965 107.336 45.2965 107.008 45.1465C106.68 44.9965 106.389 44.7715 106.133 44.4715V39.409C106.097 38.3965 106.279 37.4215 106.68 36.484C106.972 35.8465 107.555 35.359 108.247 35.209C108.976 35.059 109.522 35.359 109.96 36.109C110.397 36.859 110.616 38.0215 110.616 39.634C110.652 40.9465 110.434 42.259 109.923 43.459Z" fill="black"/>
<path d="M158.827 38.1714C157.224 39.9339 155.11 41.0964 152.778 41.5464C150.555 41.9964 148.259 41.8464 146.109 41.1714V34.7964C148.259 36.1839 150.154 36.6714 151.721 36.3339C152.304 36.2214 152.851 35.9214 153.288 35.5089C153.689 35.1339 153.944 34.6089 153.944 34.0464C153.944 33.6714 153.762 33.2964 153.434 33.1089C152.815 32.8089 152.159 32.6214 151.503 32.5464C149.243 32.1339 147.786 31.4589 147.093 30.5589C146.474 29.6964 146.109 28.6839 146.109 27.5964C146.109 25.6464 146.875 23.9214 148.442 22.4214C150.009 20.8839 151.976 19.8714 154.09 19.4214C155.985 19.0089 157.953 19.0464 159.811 19.5714V25.7589C158.244 24.7089 156.75 24.3339 155.293 24.6339C154.746 24.7089 154.272 24.9339 153.835 25.2714C153.507 25.5339 153.325 25.9464 153.361 26.3964C153.361 27.0339 154.054 27.4089 155.475 27.5589C159.265 28.0464 161.16 29.6964 161.196 32.5839C161.196 34.5339 160.431 36.4089 158.827 38.1714Z" fill="black"/>
<path d="M62.8779 41.809C61.0922 40.309 58.7964 39.8215 55.9905 40.459C53.2574 41.0215 50.8158 42.634 49.176 44.9965C47.4268 47.4715 46.5157 50.4715 46.5886 53.509C46.5886 56.659 47.4268 59.059 49.0666 60.7465C50.7065 62.434 53.0023 62.959 55.954 62.284C58.7964 61.7215 61.2745 60.0715 62.9508 57.6715C64.6999 55.1965 65.611 52.234 65.5381 49.159C65.5381 45.784 64.6635 43.309 62.8779 41.809ZM57.9219 55.084C57.521 56.0965 56.8651 56.6965 56.0269 56.884C55.2616 57.109 54.4599 56.6965 54.1684 55.909C53.7311 55.084 53.5489 53.734 53.5489 51.8965C53.5489 50.059 53.7676 48.5965 54.1684 47.584C54.5693 46.5715 55.2252 45.9715 56.0634 45.784C56.9015 45.5965 57.521 45.934 57.9583 46.759C58.3956 47.584 58.5778 48.934 58.5778 50.809C58.5414 52.684 58.3227 54.0715 57.9219 55.084Z" fill="black"/>
<path d="M95.3468 34.909C93.5612 33.409 91.2654 32.959 88.4594 33.559C85.6899 34.1215 83.2483 35.734 81.6449 38.0965C79.8957 40.5715 78.9847 43.5715 79.0576 46.6465C79.0576 49.7965 79.8957 52.1965 81.5356 53.884C83.1754 55.5715 85.4712 56.059 88.423 55.459C91.229 54.8965 93.7434 53.2465 95.4197 50.8465C97.1689 48.3715 98.0435 45.409 98.007 42.334C98.0435 38.884 97.1324 36.409 95.3468 34.909ZM90.3908 48.184C89.99 49.1965 89.334 49.7965 88.4959 49.984C87.7306 50.209 86.9289 49.759 86.6374 49.009C86.2001 48.184 86.0179 46.834 86.0179 45.034C86.0179 43.234 86.2365 41.734 86.6374 40.7215C87.0382 39.709 87.6942 39.109 88.5323 38.9215C89.3705 38.734 89.99 39.0715 90.4272 39.8965C90.8645 40.7215 91.0468 42.0715 91.0468 43.9465C91.0468 45.8215 90.8281 47.1715 90.3908 48.184Z" fill="black"/>
<path d="M44.8032 55.3089C44.4388 53.6214 43.4184 52.0464 41.9608 51.5964C44.4752 50.2089 46.516 47.8839 46.516 43.4589C46.516 41.2839 45.5685 38.9589 44.1837 38.0589C42.7989 37.1589 41.1955 37.0089 38.2073 37.7214C38.2073 37.7214 30.4453 39.4464 27.6758 39.9339C28.2589 40.0089 28.4046 40.3464 28.4411 41.0214C28.4775 41.6964 28.4411 67.5715 28.4411 67.5715L32.1581 66.8215C33.8708 66.409 35.1827 65.7715 35.2556 62.7715L35.2192 54.6714L35.8387 54.5214C36.7132 54.3339 38.0251 54.2589 38.6446 56.284C38.9362 57.334 39.4099 60.5965 39.7014 62.659C39.993 64.7215 41.3777 64.834 42.3981 64.6465C43.4184 64.459 47.3905 63.634 47.755 63.5215C45.9329 63.1089 45.277 57.6339 44.8032 55.3089ZM38.9362 47.9214C38.3531 48.6714 37.5514 49.1589 36.6404 49.3089L35.2556 49.6089L35.292 43.6089L37.0048 43.2714C37.9523 43.0839 38.6446 43.1589 39.0819 43.5339C39.5192 43.9089 39.7743 44.5464 39.7743 45.4839C39.7379 46.3464 39.4463 47.2089 38.9362 47.9214Z" fill="black"/>
<path d="M47.9002 26.8089C47.8638 26.7714 47.8274 26.7339 47.8274 26.7339C46.6612 25.6089 44.8027 25.5339 44.8027 25.5339C43.6366 25.4214 42.4341 25.4214 41.2679 25.6089C23.1202 27.3339 7.34109 43.7964 7.34109 63.5964C7.34109 65.9589 7.77839 70.0464 8.06992 72.1464L8.50722 72.0339C8.36145 70.8339 8.17924 68.1714 8.17924 66.9339C8.17924 48.1839 23.1202 32.8464 41.0493 32.8464C42.2519 32.8464 44.6934 33.0339 45.5316 32.9964H45.568C47.463 32.9214 48.957 31.3464 48.957 29.3964C48.9935 28.4214 48.6291 27.4839 47.9002 26.8089C47.9367 26.8089 47.9002 26.8089 47.9002 26.8089Z" fill="#8BD2F4"/>
<path d="M53.476 17.1339C52.3463 16.7589 50.2691 16.5714 48.9208 16.5714C35.802 16.5714 23.9585 22.5714 16.2694 31.9089C13.5363 35.2464 11.277 39.0714 9.27271 44.4339L10.0015 44.2464C11.7872 40.5339 14.1923 37.1589 17.0711 34.2714C24.1407 27.2964 33.6155 23.4714 43.4182 23.6214C45.2038 23.6964 46.953 23.8464 48.7022 24.1089C50.1598 24.2964 51.4717 24.5589 52.1641 24.5964C52.237 24.5964 52.3099 24.5964 52.3827 24.5964C54.4235 24.5964 56.0998 22.9089 56.0998 20.7714C56.0998 19.1214 55.043 17.6214 53.476 17.1339Z" fill="#00ADEF"/>
<path d="M33.6884 17.0215C35.802 16.4215 39.0088 15.9715 40.6851 15.634C42.1792 15.3715 43.1995 13.909 42.9444 12.3715C42.7258 11.0965 41.7054 10.159 40.4664 10.009C39.519 9.89647 38.1342 10.159 36.713 10.4965C34.2714 11.0965 31.9392 12.0715 29.7891 13.3465C22.4644 17.8465 19.4763 23.0965 17.472 26.809L18.1644 26.7715C22.5009 22.1215 27.3111 18.859 33.6884 17.0215Z" fill="#0081C6"/>
</svg>
