<svg width="232" height="80" viewBox="0 0 232 80" fill="none" xmlns="http://www.w3.org/2000/svg">
<rect width="231.028" height="80" fill="white"/>
<path d="M3.17056 74.2966H16.5265L17.0627 71.2659L7.30401 71.2547C4.97964 71.2547 3.97687 69.7345 4.2582 68.1333L4.75495 65.3235C5.03996 63.7185 6.59399 62.1058 8.91297 62.1058H18.6469C20.9922 62.1058 21.976 63.76 21.6966 65.3367L8.34256 65.3425L7.84967 68.1313L17.5707 68.1352C19.9291 68.1333 20.928 69.7439 20.6505 71.2678C20.658 71.2773 20.0971 74.3192 20.1141 74.3192C19.8308 75.8922 18.2749 77.4443 15.9466 77.4443H6.20882C3.89004 77.4443 2.88921 75.881 3.17056 74.2966Z" fill="#ED1C24"/>
<path d="M25.1446 77.4463H21.5436L24.2476 62.1058H27.8485" fill="#ED1C24"/>
<path d="M184.969 77.4538H181.366L184.068 62.1323H187.669" fill="#ED1C24"/>
<path d="M223.354 62.1323L222.309 68.0615H211.234L212.28 62.1323H208.654L205.955 77.4538H209.579L210.625 71.5265H221.697L220.652 77.4538H224.255L226.954 62.1323" fill="#ED1C24"/>
<path d="M130.647 74.3343L132.795 62.1323H129.2L126.5 77.4443H140.254L140.802 74.3343" fill="#ED1C24"/>
<path d="M42.1674 71.5946L41.6877 74.3136L30.9811 74.3192L32.5692 65.3235H46.7748C47.06 63.6978 46.3801 62.1058 43.8593 62.1058C41.3365 62.1058 33.1187 62.1058 33.1187 62.1058C30.781 62.1058 29.2666 63.7204 28.9833 65.3235L27.3916 74.3192C27.1178 75.8715 28.0732 77.4443 30.4129 77.4443H40.9382C43.6743 77.4443 44.9149 75.8715 45.1886 74.3192L46.0686 69.3381H36.7707L36.3741 71.5946" fill="#ED1C24"/>
<path d="M156.969 74.3136L146.247 74.3117L147.832 65.3442H158.55L156.969 74.3136ZM159.12 62.1058H144.833L142.125 77.4443H156.416C158.242 77.4443 160.253 76.0055 160.549 74.3192L162.132 65.3442C162.419 63.7185 160.997 62.1267 159.12 62.1058Z" fill="#ED1C24"/>
<path d="M190.707 74.3192L192.29 65.3348L206.526 65.3442C206.81 63.7185 205.818 62.1248 203.484 62.1248L192.858 62.1058C190.473 62.1058 189.002 63.7204 188.734 65.3235L187.148 74.3192C186.853 75.9773 187.769 77.4443 190.156 77.4443H200.686C203.115 77.4443 204.629 75.8885 204.907 74.325" fill="#ED1C24"/>
<path d="M58.7144 73.8095L54.5508 62.1304H48.9841L46.2819 77.4538H49.8772L51.9091 65.9504L55.9954 77.4501L60.1381 77.4443L68.254 65.9579L66.2202 77.4501H69.825L72.5253 62.1362H66.9888" fill="#ED1C24"/>
<path d="M86.0303 71.7191L83.7568 65.3972L79.2306 71.7191H86.0303ZM77.0816 74.7593L75.133 77.4501H71.1846L82.1347 62.1284L86.4967 62.1361L92.0916 77.4443L88.1225 77.4501L87.1708 74.7668" fill="#ED1C24"/>
<path d="M119.009 71.7191L116.735 65.3972L112.209 71.7191H119.009ZM110.062 74.7593L108.112 77.4501H104.161L115.114 62.1284L119.474 62.1361L125.059 77.4443L121.099 77.4501L120.148 74.7668" fill="#ED1C24"/>
<path d="M177.457 68.9188H166.73L167.362 65.3196L178.092 65.3254L177.457 68.9188ZM180.592 71.5945C180.826 70.2652 179.438 70.2652 179.438 70.2652C179.438 70.2652 180.826 70.2652 181.064 68.913C181.543 66.2071 181.185 68.2314 181.713 65.316C182 63.7184 180.875 62.1172 178.656 62.1172C177.463 62.1172 167.6 62.1191 167.6 62.1191C165.695 62.1153 164.36 62.1228 164.36 62.1228L161.667 77.4443H165.257L166.29 71.5945C173.709 71.5963 174.642 71.5945 175.367 71.5945C177.009 71.5945 176.794 72.6953 176.794 72.6953L175.956 77.4443H179.561" fill="#ED1C24"/>
<path d="M104.09 71.466L104.63 68.4146H94.9638L94.4274 71.466" fill="#ED1C24"/>
<path d="M127.669 41.146C127.204 40.7419 126.753 40.2113 126.385 39.5013L124.345 34.9336C124.738 34.892 125.127 34.8485 125.516 34.8032C126.407 37.0541 127.138 39.1954 127.669 41.146ZM128.466 49.8263C128.252 50.5572 127.905 51.0613 127.435 51.3181C126.966 51.5749 126.356 51.5977 125.622 51.3823C122.878 50.5818 118.956 46.8146 114.938 41.3612C115.758 40.2585 116.566 39.1123 117.346 37.9453H121.802L122.833 40.2303C122.833 40.2303 124.215 42.3791 121.196 42.3564V42.6981H128.062C128.764 45.742 128.934 48.2251 128.466 49.8263ZM101.252 51.1897C100.787 50.9273 100.447 50.4213 100.24 49.6828C99.4484 46.8524 100.67 41.3026 103.329 34.7731C104.739 34.9467 106.173 35.0826 107.608 35.1847L105.657 39.5448C105.657 39.5448 104.696 42.3791 101.85 42.3564V42.6981H109.815V42.3564C109.815 42.3564 107.255 42.3319 108.148 40.2303L109.143 37.9453H111.537C112.313 39.1312 113.097 40.266 113.879 41.3442C108.552 48.3744 103.487 52.4493 101.252 51.1897ZM87.5428 27.6164C87.5428 25.1542 93.3777 22.5692 102.849 21.3624C102.946 21.5985 103.042 21.8346 103.138 22.0743L98.7233 32.7789H103.249C103.095 33.1378 102.934 33.4984 102.791 33.8534C93.759 32.696 87.5428 30.2656 87.5428 27.6164ZM100.668 11.5964L104.435 18.9303L103.827 20.407C103.68 20.424 103.531 20.4428 103.386 20.458C102.06 17.0969 101.161 14.0944 100.668 11.5964ZM101.499 3.99788C101.969 3.74285 102.579 3.72022 103.314 3.93544C105.497 4.57371 108.427 7.08894 111.558 10.8391H100.53C99.8997 7.14753 100.24 4.69263 101.499 3.99788ZM114.583 13.307C114.581 13.3109 114.579 13.3165 114.576 13.3184C114.572 13.3165 114.57 13.3109 114.568 13.307H114.583ZM127.733 4.17345C129.869 5.37442 129.274 11.6793 125.716 20.4673C123.558 20.2049 121.296 20.018 119.007 19.9141C117.719 17.8049 116.403 15.8298 115.087 14.0151C115.269 13.7734 115.45 13.5412 115.629 13.307C116.974 13.3146 117.533 15.2255 117.533 15.2255L117.967 15.2482L117.045 11.5453C121.8 5.83887 125.879 3.12737 127.733 4.17345ZM119.791 24.735C119.791 24.735 119.077 23.4905 119.627 22.6521C119.944 23.1997 120.254 23.7531 120.563 24.3194C121.194 25.4676 121.785 26.6081 122.351 27.7448C122.138 28.1603 121.919 28.5757 121.694 28.9968L119.791 24.735ZM116.317 37.9453C115.68 38.88 115.044 39.779 114.411 40.6342C113.792 39.7731 113.171 38.8763 112.555 37.9453H116.317ZM115.484 35.2922C115.484 35.2922 112.466 35.2922 111.371 35.2922C110.559 35.2922 110.686 34.5163 110.686 34.5163L111.475 32.7789H115.637L116.768 28.3585L116.343 28.3454C116.343 28.3454 115.841 30.3111 114.436 30.3111H112.593L114.5 26.1059V23.7983H114.296C114.296 23.7983 113.952 23.5472 114.296 23.2262H115.484H116.673C116.673 23.2262 117.106 23.4774 116.673 23.7983H116.466V26.1059L120.282 34.5163C120.282 34.5163 120.444 35.2922 119.6 35.2922C118.501 35.2922 115.484 35.2922 115.484 35.2922ZM108.388 32.7789C108.442 32.8752 108.499 32.9735 108.552 33.0678L107.98 34.3519C106.488 34.2537 105.042 34.1216 103.663 33.9592C103.825 33.5702 104.001 33.1736 104.175 32.7789H108.388ZM106.141 28.5964C106.429 29.1685 106.726 29.7407 107.03 30.3111H105.3C105.57 29.7426 105.852 29.1685 106.141 28.5964ZM114.524 19.8103C113.369 19.8103 112.211 19.8329 111.059 19.8725C112.236 18.0089 113.405 16.2906 114.557 14.729C115.701 16.3188 116.847 18.0428 117.976 19.8725C116.828 19.8329 115.674 19.8103 114.524 19.8103ZM119.007 21.5815H111.005V21.9214C111.005 21.9214 113.518 22.4955 112.262 24.7783L109.787 30.3111H108.002C107.517 29.4122 107.056 28.5266 106.62 27.6541C107.196 26.5344 107.798 25.4054 108.435 24.2703C109.126 23.045 109.821 21.8703 110.514 20.745C111.811 20.6939 113.146 20.6676 114.524 20.6676C115.892 20.6676 117.221 20.6922 118.507 20.7411C118.673 21.0188 118.839 21.3001 119.007 21.5815ZM119.997 21.5815C119.842 21.3152 119.687 21.049 119.532 20.7885C121.602 20.8865 123.56 21.049 125.392 21.2644C124.655 23.0222 123.803 24.8746 122.833 26.7989C122.348 25.8396 121.845 24.8746 121.313 23.906C120.982 23.3018 120.648 22.7088 120.312 22.1215C120.518 22.0384 120.76 21.9705 121.058 21.9345V21.5815H119.997ZM105.716 13.307H113.512C113.692 13.5431 113.869 13.7809 114.049 14.0226C112.68 15.8638 111.326 17.8521 110.032 19.9161C109.264 19.9482 108.501 19.9953 107.738 20.0481L108.369 18.5169L105.716 13.307ZM107.385 20.913C108.072 20.8639 108.776 20.8243 109.49 20.7902C108.873 21.7967 108.27 22.8201 107.691 23.8494C107.153 24.8048 106.645 25.7565 106.148 26.7044C105.937 26.2739 105.733 25.8452 105.532 25.4185L107.385 20.913ZM103.523 30.3111L105.1 26.476C105.285 26.8668 105.47 27.2519 105.663 27.641C105.208 28.5399 104.775 29.4292 104.36 30.3111H103.523ZM122.136 29.9843C122.367 29.5556 122.597 29.1233 122.822 28.6909C123.698 30.4961 124.493 32.2692 125.193 33.9818C124.795 34.029 124.387 34.0706 123.979 34.1122L122.136 29.9843ZM141.504 27.6164C141.504 30.2355 135.207 32.7206 126.064 33.8761C125.263 31.8953 124.34 29.8372 123.309 27.7429C124.389 25.6074 125.38 23.4603 126.245 21.3682C135.688 22.5767 141.504 25.1579 141.504 27.6164ZM142.362 27.6164C142.362 24.1949 135.424 21.74 126.566 20.5731C129.876 12.3157 131.123 5.10063 128.152 3.42747C125.596 1.98869 121.151 5.34599 116.554 10.8391H112.644C109.218 6.65272 105.969 3.81652 103.554 3.1123C102.592 2.8327 101.764 2.87814 101.089 3.24823C98.0794 4.89855 99.2784 12.2043 102.536 20.5655C93.6532 21.7288 86.6874 24.1893 86.6874 27.6164C86.6874 31.1532 94.0007 33.54 102.462 34.6634C99.7978 41.2951 98.5912 46.9656 99.4163 49.9151C99.6845 50.8763 100.16 51.5579 100.831 51.9357C103.861 53.6388 109.332 48.7445 114.411 42.0637C118.507 47.5661 122.527 51.3711 125.384 52.2056C126.345 52.485 127.172 52.4379 127.848 52.0678C128.522 51.6977 129.009 51.0256 129.287 50.0644C129.774 48.3914 129.619 45.8251 128.913 42.6981H130.201V42.3564C130.201 42.3564 129.534 42.2847 128.704 41.856C128.169 39.6769 127.384 37.2599 126.383 34.6938C134.857 33.5835 142.362 31.1456 142.362 27.6164Z" fill="#ED1C24"/>
<path d="M133.236 16.402V15.6637H133.732C133.985 15.6637 134.255 15.7204 134.255 16.0149C134.255 16.383 133.981 16.402 133.672 16.402H133.236ZM133.236 16.7117H133.655L134.289 17.7464H134.691L134.013 16.6947C134.365 16.6493 134.633 16.4642 134.633 16.0375C134.633 15.5674 134.355 15.3596 133.787 15.3596H132.875V17.7464H133.236V16.7117ZM133.677 18.6225C134.807 18.6225 135.769 17.7464 135.769 16.5455C135.769 15.3596 134.807 14.474 133.677 14.474C132.539 14.474 131.577 15.3596 131.577 16.5455C131.577 17.7464 132.539 18.6225 133.677 18.6225ZM131.995 16.5455C131.995 15.5674 132.731 14.8178 133.677 14.8178C134.616 14.8178 135.352 15.5674 135.352 16.5455C135.352 17.5444 134.616 18.277 133.677 18.277C132.731 18.277 131.995 17.5444 131.995 16.5455Z" fill="#ED1C24"/>
</svg>
