<svg width="82" height="80" viewBox="0 0 82 80" fill="none" xmlns="http://www.w3.org/2000/svg">
<g clip-path="url(#clip0_253_26)">
<path fill-rule="evenodd" clip-rule="evenodd" d="M0.894043 0H81.2542V80H0.894043V0Z" fill="#144281"/>
<path fill-rule="evenodd" clip-rule="evenodd" d="M22.0068 21.1768L7.51385 29.6695V49.1109L22.0068 57.6036H60.1272L74.6711 49.1109V29.6695L60.1272 21.1768H22.0068ZM22.5171 22.9674H59.6679L72.885 30.6928V48.0876L59.6679 55.813H22.5171L9.24892 48.0876V30.6928L22.5171 22.9674ZM20.3738 32.8415L19.0469 32.9439L18.1284 33.1485L17.3629 33.5578L16.6485 34.2741L16.1892 35.0415L15.934 35.8601L15.832 36.6275L15.934 37.4461L16.2912 38.2135L16.8016 38.9809L17.516 39.5948L20.8841 41.9483L21.1392 42.1017L21.4454 42.5622L21.5475 43.0227L21.4964 43.4831L21.3433 43.8412L20.9861 44.1994L20.5779 44.3017H19.9655L19.6083 44.1994L19.2511 43.8924L19.0469 43.4319V42.8692V42.1017H15.832V42.9715L15.934 43.8412L16.2402 44.6598L16.7505 45.4784L16.9036 45.683L17.567 46.1435L18.1284 46.3481L19.4552 46.5528L20.3738 46.6039L21.6495 46.5016H21.7516L22.5171 46.297L23.2825 45.8877L24.048 45.1714L24.5073 44.404L24.7114 43.5854L24.8135 42.818L24.7114 41.9994L24.4052 41.232L23.8439 40.4646L23.1294 39.8507L19.6593 37.4972L19.5062 37.2926L19.149 36.8321L19.0469 36.3717V35.9112L19.2511 35.5531L19.6083 35.195L20.0165 35.0926H20.6289L20.9861 35.195L21.3433 35.5019L21.5475 35.9624L21.5985 36.5252V37.2926H24.8135V36.4228L24.7114 35.5531L24.4563 34.7345L23.8949 33.9159L23.6908 33.7113L23.1294 33.2508L22.5681 33.0462L21.2923 32.8927L20.3738 32.8415ZM25.4259 32.8415V35.5019H28.5388V46.5528H31.7537V35.5019H34.8156V32.8415H25.4259ZM37.7244 32.8415L33.9481 46.5528H37.3162L37.9796 43.8924H41.6538L42.2662 46.5528H45.6853L41.8579 32.8415H37.7244ZM46.9101 32.8415V46.5528H50.125V40.4646H53.0338V46.5528H56.2488V32.8415H53.0338V37.9577H50.125V32.8415H46.9101ZM59.1576 32.8415V46.5528H66.6082V43.9436H62.3726V32.8415H59.1576ZM39.8167 36.3205L41.0414 41.4367H38.5919L39.8167 36.3205Z" fill="white"/>
</g>
<defs>
<clipPath id="clip0_253_26">
<rect width="80.3601" height="80" fill="white" transform="translate(0.894043)"/>
</clipPath>
</defs>
</svg>
