<svg width="452" height="160" viewBox="0 0 452 160" fill="none" xmlns="http://www.w3.org/2000/svg">
<rect x="2.5" y="2.5" width="155" height="155" fill="black" stroke="url(#paint0_radial_192_80)" stroke-width="5"/>
<path d="M57.02 52.755H63.68V65.535C61.97 66.825 59.99 67.815 57.74 68.505C55.49 69.195 53.225 69.54 50.945 69.54C47.675 69.54 44.735 68.85 42.125 67.47C39.515 66.06 37.46 64.125 35.96 61.665C34.49 59.175 33.755 56.37 33.755 53.25C33.755 50.13 34.49 47.34 35.96 44.88C37.46 42.39 39.53 40.455 42.17 39.075C44.81 37.665 47.78 36.96 51.08 36.96C53.84 36.96 56.345 37.425 58.595 38.355C60.845 39.285 62.735 40.635 64.265 42.405L59.585 46.725C57.335 44.355 54.62 43.17 51.44 43.17C49.43 43.17 47.645 43.59 46.085 44.43C44.525 45.27 43.31 46.455 42.44 47.985C41.57 49.515 41.135 51.27 41.135 53.25C41.135 55.2 41.57 56.94 42.44 58.47C43.31 60 44.51 61.2 46.04 62.07C47.6 62.91 49.37 63.33 51.35 63.33C53.45 63.33 55.34 62.88 57.02 61.98V52.755Z" fill="white"/>
<path d="M112.81 69.54C109.6 69.54 106.69 68.85 104.08 67.47C101.5 66.06 99.46 64.125 97.96 61.665C96.49 59.175 95.755 56.37 95.755 53.25C95.755 50.13 96.49 47.34 97.96 44.88C99.46 42.39 101.5 40.455 104.08 39.075C106.69 37.665 109.615 36.96 112.855 36.96C115.585 36.96 118.045 37.44 120.235 38.4C122.455 39.36 124.315 40.74 125.815 42.54L121.135 46.86C119.005 44.4 116.365 43.17 113.215 43.17C111.265 43.17 109.525 43.605 107.995 44.475C106.465 45.315 105.265 46.5 104.395 48.03C103.555 49.56 103.135 51.3 103.135 53.25C103.135 55.2 103.555 56.94 104.395 58.47C105.265 60 106.465 61.2 107.995 62.07C109.525 62.91 111.265 63.33 113.215 63.33C116.365 63.33 119.005 62.085 121.135 59.595L125.815 63.915C124.315 65.745 122.455 67.14 120.235 68.1C118.015 69.06 115.54 69.54 112.81 69.54Z" fill="white"/>
<path d="M49.37 92.5C52.16 92.5 54.575 92.965 56.615 93.895C58.685 94.825 60.275 96.145 61.385 97.855C62.495 99.565 63.05 101.59 63.05 103.93C63.05 106.24 62.495 108.265 61.385 110.005C60.275 111.715 58.685 113.035 56.615 113.965C54.575 114.865 52.16 115.315 49.37 115.315H43.025V124H35.735V92.5H49.37ZM48.965 109.375C51.155 109.375 52.82 108.91 53.96 107.98C55.1 107.02 55.67 105.67 55.67 103.93C55.67 102.16 55.1 100.81 53.96 99.88C52.82 98.92 51.155 98.44 48.965 98.44H43.025V109.375H48.965Z" fill="white"/>
<path d="M113.085 124.54C110.595 124.54 108.18 124.21 105.84 123.55C103.53 122.86 101.67 121.975 100.26 120.895L102.735 115.405C104.085 116.395 105.69 117.19 107.55 117.79C109.41 118.39 111.27 118.69 113.13 118.69C115.2 118.69 116.73 118.39 117.72 117.79C118.71 117.16 119.205 116.335 119.205 115.315C119.205 114.565 118.905 113.95 118.305 113.47C117.735 112.96 116.985 112.555 116.055 112.255C115.155 111.955 113.925 111.625 112.365 111.265C109.965 110.695 108 110.125 106.47 109.555C104.94 108.985 103.62 108.07 102.51 106.81C101.43 105.55 100.89 103.87 100.89 101.77C100.89 99.94 101.385 98.29 102.375 96.82C103.365 95.32 104.85 94.135 106.83 93.265C108.84 92.395 111.285 91.96 114.165 91.96C116.175 91.96 118.14 92.2 120.06 92.68C121.98 93.16 123.66 93.85 125.1 94.75L122.85 100.285C119.94 98.635 117.03 97.81 114.12 97.81C112.08 97.81 110.565 98.14 109.575 98.8C108.615 99.46 108.135 100.33 108.135 101.41C108.135 102.49 108.69 103.3 109.8 103.84C110.94 104.35 112.665 104.86 114.975 105.37C117.375 105.94 119.34 106.51 120.87 107.08C122.4 107.65 123.705 108.55 124.785 109.78C125.895 111.01 126.45 112.675 126.45 114.775C126.45 116.575 125.94 118.225 124.92 119.725C123.93 121.195 122.43 122.365 120.42 123.235C118.41 124.105 115.965 124.54 113.085 124.54Z" fill="white"/>
<path d="M194.464 70.116H200.976V82.612C199.304 83.8733 197.368 84.8413 195.168 85.516C192.968 86.1907 190.753 86.528 188.524 86.528C185.327 86.528 182.452 85.8533 179.9 84.504C177.348 83.1253 175.339 81.2333 173.872 78.828C172.435 76.3933 171.716 73.6507 171.716 70.6C171.716 67.5493 172.435 64.8213 173.872 62.416C175.339 59.9813 177.363 58.0893 179.944 56.74C182.525 55.3613 185.429 54.672 188.656 54.672C191.355 54.672 193.804 55.1267 196.004 56.036C198.204 56.9453 200.052 58.2653 201.548 59.996L196.972 64.22C194.772 61.9027 192.117 60.744 189.008 60.744C187.043 60.744 185.297 61.1547 183.772 61.976C182.247 62.7973 181.059 63.956 180.208 65.452C179.357 66.948 178.932 68.664 178.932 70.6C178.932 72.5067 179.357 74.208 180.208 75.704C181.059 77.2 182.232 78.3733 183.728 79.224C185.253 80.0453 186.984 80.456 188.92 80.456C190.973 80.456 192.821 80.016 194.464 79.136V70.116ZM213.669 65.452C214.491 64.308 215.591 63.4427 216.969 62.856C218.377 62.2693 219.991 61.976 221.809 61.976V68.312C221.047 68.2533 220.533 68.224 220.269 68.224C218.304 68.224 216.764 68.7813 215.649 69.896C214.535 70.9813 213.977 72.624 213.977 74.824V86H207.113V62.328H213.669V65.452ZM249.911 62.328V86H243.399V83.184C242.489 84.2107 241.404 85.0027 240.143 85.56C238.881 86.088 237.517 86.352 236.051 86.352C232.941 86.352 230.477 85.4573 228.659 83.668C226.84 81.8787 225.931 79.224 225.931 75.704V62.328H232.795V74.692C232.795 78.5053 234.393 80.412 237.591 80.412C239.233 80.412 240.553 79.884 241.551 78.828C242.548 77.7427 243.047 76.144 243.047 74.032V62.328H249.911ZM270.262 61.976C272.462 61.976 274.456 62.4893 276.246 63.516C278.064 64.5133 279.487 65.936 280.514 67.784C281.54 69.6027 282.054 71.7293 282.054 74.164C282.054 76.5987 281.54 78.74 280.514 80.588C279.487 82.4067 278.064 83.8293 276.246 84.856C274.456 85.8533 272.462 86.352 270.262 86.352C267.24 86.352 264.864 85.3987 263.134 83.492V94.536H256.27V62.328H262.826V65.056C264.527 63.0027 267.006 61.976 270.262 61.976ZM269.074 80.72C270.834 80.72 272.271 80.1333 273.386 78.96C274.53 77.7573 275.102 76.1587 275.102 74.164C275.102 72.1693 274.53 70.5853 273.386 69.412C272.271 68.2093 270.834 67.608 269.074 67.608C267.314 67.608 265.862 68.2093 264.718 69.412C263.603 70.5853 263.046 72.1693 263.046 74.164C263.046 76.1587 263.603 77.7573 264.718 78.96C265.862 80.1333 267.314 80.72 269.074 80.72ZM297.912 86.352C295.419 86.352 293.175 85.8387 291.18 84.812C289.215 83.756 287.675 82.304 286.56 80.456C285.446 78.608 284.888 76.5107 284.888 74.164C284.888 71.8173 285.446 69.72 286.56 67.872C287.675 66.024 289.215 64.5867 291.18 63.56C293.175 62.504 295.419 61.976 297.912 61.976C300.406 61.976 302.635 62.504 304.6 63.56C306.566 64.5867 308.106 66.024 309.22 67.872C310.335 69.72 310.892 71.8173 310.892 74.164C310.892 76.5107 310.335 78.608 309.22 80.456C308.106 82.304 306.566 83.756 304.6 84.812C302.635 85.8387 300.406 86.352 297.912 86.352ZM297.912 80.72C299.672 80.72 301.11 80.1333 302.224 78.96C303.368 77.7573 303.94 76.1587 303.94 74.164C303.94 72.1693 303.368 70.5853 302.224 69.412C301.11 68.2093 299.672 67.608 297.912 67.608C296.152 67.608 294.7 68.2093 293.556 69.412C292.412 70.5853 291.84 72.1693 291.84 74.164C291.84 76.1587 292.412 77.7573 293.556 78.96C294.7 80.1333 296.152 80.72 297.912 80.72ZM349.237 70.116H355.749V82.612C354.077 83.8733 352.141 84.8413 349.941 85.516C347.741 86.1907 345.527 86.528 343.297 86.528C340.1 86.528 337.225 85.8533 334.673 84.504C332.121 83.1253 330.112 81.2333 328.645 78.828C327.208 76.3933 326.489 73.6507 326.489 70.6C326.489 67.5493 327.208 64.8213 328.645 62.416C330.112 59.9813 332.136 58.0893 334.717 56.74C337.299 55.3613 340.203 54.672 343.429 54.672C346.128 54.672 348.577 55.1267 350.777 56.036C352.977 56.9453 354.825 58.2653 356.321 59.996L351.745 64.22C349.545 61.9027 346.891 60.744 343.781 60.744C341.816 60.744 340.071 61.1547 338.545 61.976C337.02 62.7973 335.832 63.956 334.981 65.452C334.131 66.948 333.705 68.664 333.705 70.6C333.705 72.5067 334.131 74.208 334.981 75.704C335.832 77.2 337.005 78.3733 338.501 79.224C340.027 80.0453 341.757 80.456 343.693 80.456C345.747 80.456 347.595 80.016 349.237 79.136V70.116ZM377.111 86.528C373.972 86.528 371.127 85.8533 368.575 84.504C366.052 83.1253 364.057 81.2333 362.591 78.828C361.153 76.3933 360.435 73.6507 360.435 70.6C360.435 67.5493 361.153 64.8213 362.591 62.416C364.057 59.9813 366.052 58.0893 368.575 56.74C371.127 55.3613 373.987 54.672 377.155 54.672C379.824 54.672 382.229 55.1413 384.371 56.08C386.541 57.0187 388.36 58.368 389.827 60.128L385.251 64.352C383.168 61.9467 380.587 60.744 377.507 60.744C375.6 60.744 373.899 61.1693 372.403 62.02C370.907 62.8413 369.733 64 368.883 65.496C368.061 66.992 367.651 68.6933 367.651 70.6C367.651 72.5067 368.061 74.208 368.883 75.704C369.733 77.2 370.907 78.3733 372.403 79.224C373.899 80.0453 375.6 80.456 377.507 80.456C380.587 80.456 383.168 79.2387 385.251 76.804L389.827 81.028C388.36 82.8173 386.541 84.1813 384.371 85.12C382.2 86.0587 379.78 86.528 377.111 86.528ZM407.972 55.2C410.7 55.2 413.062 55.6547 415.056 56.564C417.08 57.4733 418.635 58.764 419.72 60.436C420.806 62.108 421.348 64.088 421.348 66.376C421.348 68.6347 420.806 70.6147 419.72 72.316C418.635 73.988 417.08 75.2787 415.056 76.188C413.062 77.068 410.7 77.508 407.972 77.508H401.768V86H394.64V55.2H407.972ZM407.576 71.7C409.718 71.7 411.346 71.2453 412.46 70.336C413.575 69.3973 414.132 68.0773 414.132 66.376C414.132 64.6453 413.575 63.3253 412.46 62.416C411.346 61.4773 409.718 61.008 407.576 61.008H401.768V71.7H407.576ZM436.987 86.528C434.552 86.528 432.191 86.2053 429.903 85.56C427.644 84.8853 425.826 84.02 424.447 82.964L426.867 77.596C428.187 78.564 429.756 79.3413 431.575 79.928C433.394 80.5147 435.212 80.808 437.031 80.808C439.055 80.808 440.551 80.5147 441.519 79.928C442.487 79.312 442.971 78.5053 442.971 77.508C442.971 76.7747 442.678 76.1733 442.091 75.704C441.534 75.2053 440.8 74.8093 439.891 74.516C439.011 74.2227 437.808 73.9 436.283 73.548C433.936 72.9907 432.015 72.4333 430.519 71.876C429.023 71.3187 427.732 70.424 426.647 69.192C425.591 67.96 425.063 66.3173 425.063 64.264C425.063 62.4747 425.547 60.8613 426.515 59.424C427.483 57.9573 428.935 56.7987 430.871 55.948C432.836 55.0973 435.227 54.672 438.043 54.672C440.008 54.672 441.93 54.9067 443.807 55.376C445.684 55.8453 447.327 56.52 448.735 57.4L446.535 62.812C443.69 61.1987 440.844 60.392 437.999 60.392C436.004 60.392 434.523 60.7147 433.555 61.36C432.616 62.0053 432.147 62.856 432.147 63.912C432.147 64.968 432.69 65.76 433.775 66.288C434.89 66.7867 436.576 67.2853 438.835 67.784C441.182 68.3413 443.103 68.8987 444.599 69.456C446.095 70.0133 447.371 70.8933 448.427 72.096C449.512 73.2987 450.055 74.9267 450.055 76.98C450.055 78.74 449.556 80.3533 448.559 81.82C447.591 83.2573 446.124 84.4013 444.159 85.252C442.194 86.1027 439.803 86.528 436.987 86.528Z" fill="white"/>
<path d="M179.913 112L177.369 108.422C177.083 108.454 176.786 108.47 176.478 108.47H173.489V112H172.313V100.87H176.478C177.899 100.87 179.012 101.209 179.817 101.888C180.623 102.566 181.026 103.499 181.026 104.686C181.026 105.555 180.803 106.292 180.358 106.896C179.923 107.49 179.298 107.919 178.482 108.184L181.201 112H179.913ZM176.447 107.468C177.549 107.468 178.392 107.225 178.975 106.737C179.558 106.249 179.849 105.566 179.849 104.686C179.849 103.785 179.558 103.096 178.975 102.619C178.392 102.131 177.549 101.888 176.447 101.888H173.489V107.468H176.447ZM190.847 108.168H183.851C183.914 109.037 184.248 109.742 184.852 110.283C185.456 110.813 186.22 111.078 187.142 111.078C187.661 111.078 188.138 110.988 188.573 110.807C189.007 110.617 189.384 110.341 189.702 109.981L190.338 110.712C189.967 111.157 189.5 111.496 188.939 111.73C188.387 111.963 187.778 112.08 187.11 112.08C186.251 112.08 185.488 111.899 184.82 111.539C184.163 111.168 183.649 110.659 183.278 110.013C182.907 109.366 182.722 108.634 182.722 107.818C182.722 107.002 182.897 106.271 183.246 105.624C183.607 104.977 184.094 104.474 184.709 104.114C185.335 103.753 186.034 103.573 186.808 103.573C187.582 103.573 188.276 103.753 188.891 104.114C189.506 104.474 189.988 104.977 190.338 105.624C190.688 106.26 190.862 106.991 190.862 107.818L190.847 108.168ZM186.808 104.543C186.002 104.543 185.324 104.803 184.773 105.322C184.232 105.831 183.925 106.499 183.851 107.325H189.781C189.707 106.499 189.394 105.831 188.843 105.322C188.303 104.803 187.624 104.543 186.808 104.543ZM195.927 101.077C195.439 101.077 195.068 101.209 194.814 101.474C194.57 101.739 194.448 102.131 194.448 102.651V103.637H197.024V104.591H194.48V112H193.351V104.591H191.856V103.637H193.351V102.603C193.351 101.84 193.568 101.236 194.003 100.79C194.448 100.345 195.074 100.123 195.879 100.123C196.197 100.123 196.505 100.17 196.801 100.266C197.098 100.351 197.347 100.478 197.549 100.647L197.167 101.49C196.838 101.214 196.425 101.077 195.927 101.077ZM200.903 105.274C201.168 104.713 201.56 104.288 202.079 104.002C202.609 103.716 203.261 103.573 204.035 103.573V104.67L203.765 104.654C202.885 104.654 202.196 104.924 201.698 105.465C201.199 106.006 200.95 106.764 200.95 107.739V112H199.821V103.637H200.903V105.274ZM206.079 103.637H207.208V112H206.079V103.637ZM206.651 101.808C206.418 101.808 206.222 101.729 206.063 101.57C205.904 101.411 205.825 101.22 205.825 100.997C205.825 100.785 205.904 100.6 206.063 100.441C206.222 100.282 206.418 100.202 206.651 100.202C206.885 100.202 207.081 100.282 207.24 100.441C207.399 100.589 207.478 100.769 207.478 100.981C207.478 101.215 207.399 101.411 207.24 101.57C207.081 101.729 206.885 101.808 206.651 101.808ZM218.092 103.637V110.982C218.092 112.403 217.743 113.452 217.043 114.131C216.354 114.82 215.31 115.164 213.911 115.164C213.137 115.164 212.4 115.048 211.701 114.814C211.012 114.592 210.45 114.279 210.015 113.876L210.588 113.018C210.99 113.378 211.478 113.659 212.05 113.86C212.633 114.062 213.243 114.162 213.879 114.162C214.939 114.162 215.718 113.913 216.216 113.415C216.714 112.928 216.963 112.164 216.963 111.125V110.06C216.614 110.59 216.153 110.993 215.58 111.269C215.018 111.544 214.393 111.682 213.704 111.682C212.92 111.682 212.204 111.512 211.557 111.173C210.921 110.823 210.418 110.341 210.047 109.726C209.687 109.101 209.506 108.396 209.506 107.612C209.506 106.827 209.687 106.128 210.047 105.513C210.418 104.898 210.921 104.421 211.557 104.082C212.193 103.743 212.909 103.573 213.704 103.573C214.414 103.573 215.055 103.716 215.628 104.002C216.2 104.288 216.661 104.702 217.011 105.242V103.637H218.092ZM213.815 110.68C214.419 110.68 214.965 110.553 215.453 110.299C215.941 110.034 216.317 109.668 216.582 109.202C216.857 108.735 216.995 108.205 216.995 107.612C216.995 107.018 216.857 106.493 216.582 106.037C216.317 105.571 215.941 105.211 215.453 104.956C214.976 104.691 214.43 104.559 213.815 104.559C213.211 104.559 212.665 104.686 212.178 104.94C211.701 105.195 211.324 105.555 211.049 106.022C210.784 106.488 210.651 107.018 210.651 107.612C210.651 108.205 210.784 108.735 211.049 109.202C211.324 109.668 211.701 110.034 212.178 110.299C212.665 110.553 213.211 110.68 213.815 110.68ZM228.531 108.168H221.535C221.599 109.037 221.933 109.742 222.537 110.283C223.141 110.813 223.904 111.078 224.827 111.078C225.346 111.078 225.823 110.988 226.258 110.807C226.692 110.617 227.069 110.341 227.387 109.981L228.023 110.712C227.652 111.157 227.185 111.496 226.623 111.73C226.072 111.963 225.463 112.08 224.795 112.08C223.936 112.08 223.173 111.899 222.505 111.539C221.848 111.168 221.334 110.659 220.963 110.013C220.592 109.366 220.406 108.634 220.406 107.818C220.406 107.002 220.581 106.271 220.931 105.624C221.292 104.977 221.779 104.474 222.394 104.114C223.019 103.753 223.719 103.573 224.493 103.573C225.267 103.573 225.961 103.753 226.576 104.114C227.19 104.474 227.673 104.977 228.023 105.624C228.372 106.26 228.547 106.991 228.547 107.818L228.531 108.168ZM224.493 104.543C223.687 104.543 223.009 104.803 222.458 105.322C221.917 105.831 221.61 106.499 221.535 107.325H227.466C227.392 106.499 227.079 105.831 226.528 105.322C225.987 104.803 225.309 104.543 224.493 104.543ZM231.926 105.274C232.191 104.713 232.583 104.288 233.103 104.002C233.633 103.716 234.285 103.573 235.059 103.573V104.67L234.788 104.654C233.908 104.654 233.219 104.924 232.721 105.465C232.223 106.006 231.974 106.764 231.974 107.739V112H230.845V103.637H231.926V105.274ZM240.013 103.573C241.104 103.573 241.942 103.849 242.525 104.4C243.108 104.94 243.399 105.746 243.399 106.817V112H242.318V110.696C242.064 111.131 241.687 111.47 241.189 111.714C240.702 111.958 240.119 112.08 239.44 112.08C238.507 112.08 237.765 111.857 237.214 111.412C236.663 110.966 236.387 110.378 236.387 109.647C236.387 108.937 236.642 108.364 237.151 107.93C237.67 107.495 238.492 107.278 239.615 107.278H242.27V106.769C242.27 106.048 242.069 105.502 241.666 105.131C241.263 104.75 240.675 104.559 239.901 104.559C239.371 104.559 238.863 104.649 238.375 104.829C237.887 104.999 237.469 105.237 237.119 105.545L236.61 104.702C237.034 104.341 237.543 104.066 238.136 103.875C238.73 103.674 239.355 103.573 240.013 103.573ZM239.615 111.189C240.251 111.189 240.797 111.046 241.253 110.76C241.709 110.463 242.048 110.039 242.27 109.488V108.12H239.647C238.216 108.12 237.5 108.619 237.5 109.615C237.5 110.103 237.686 110.489 238.057 110.776C238.428 111.051 238.947 111.189 239.615 111.189ZM249.963 112.08C249.136 112.08 248.394 111.899 247.737 111.539C247.09 111.179 246.581 110.675 246.21 110.028C245.839 109.371 245.654 108.634 245.654 107.818C245.654 107.002 245.839 106.271 246.21 105.624C246.581 104.977 247.09 104.474 247.737 104.114C248.394 103.753 249.136 103.573 249.963 103.573C250.684 103.573 251.325 103.716 251.887 104.002C252.459 104.278 252.91 104.686 253.238 105.227L252.396 105.799C252.12 105.386 251.77 105.078 251.346 104.877C250.922 104.665 250.461 104.559 249.963 104.559C249.359 104.559 248.813 104.697 248.325 104.972C247.848 105.237 247.472 105.619 247.196 106.117C246.931 106.615 246.799 107.182 246.799 107.818C246.799 108.465 246.931 109.037 247.196 109.536C247.472 110.023 247.848 110.405 248.325 110.68C248.813 110.945 249.359 111.078 249.963 111.078C250.461 111.078 250.922 110.977 251.346 110.776C251.77 110.574 252.12 110.267 252.396 109.853L253.238 110.426C252.91 110.966 252.459 111.38 251.887 111.666C251.314 111.942 250.673 112.08 249.963 112.08ZM255.456 103.637H256.585V112H255.456V103.637ZM256.028 101.808C255.795 101.808 255.599 101.729 255.44 101.57C255.281 101.411 255.202 101.22 255.202 100.997C255.202 100.785 255.281 100.6 255.44 100.441C255.599 100.282 255.795 100.202 256.028 100.202C256.262 100.202 256.458 100.282 256.617 100.441C256.776 100.589 256.855 100.769 256.855 100.981C256.855 101.215 256.776 101.411 256.617 101.57C256.458 101.729 256.262 101.808 256.028 101.808ZM263.144 112.08C262.339 112.08 261.613 111.899 260.966 111.539C260.32 111.168 259.811 110.659 259.44 110.013C259.069 109.366 258.883 108.634 258.883 107.818C258.883 107.002 259.069 106.271 259.44 105.624C259.811 104.977 260.32 104.474 260.966 104.114C261.613 103.753 262.339 103.573 263.144 103.573C263.95 103.573 264.676 103.753 265.323 104.114C265.969 104.474 266.473 104.977 266.833 105.624C267.204 106.271 267.39 107.002 267.39 107.818C267.39 108.634 267.204 109.366 266.833 110.013C266.473 110.659 265.969 111.168 265.323 111.539C264.676 111.899 263.95 112.08 263.144 112.08ZM263.144 111.078C263.738 111.078 264.268 110.945 264.734 110.68C265.211 110.405 265.582 110.018 265.847 109.52C266.112 109.021 266.245 108.454 266.245 107.818C266.245 107.182 266.112 106.615 265.847 106.117C265.582 105.619 265.211 105.237 264.734 104.972C264.268 104.697 263.738 104.559 263.144 104.559C262.551 104.559 262.016 104.697 261.539 104.972C261.072 105.237 260.701 105.619 260.426 106.117C260.161 106.615 260.028 107.182 260.028 107.818C260.028 108.454 260.161 109.021 260.426 109.52C260.701 110.018 261.072 110.405 261.539 110.68C262.016 110.945 262.551 111.078 263.144 111.078ZM264.273 100.361H265.784L263.208 102.333H262.095L264.273 100.361ZM273.956 103.573C275.005 103.573 275.837 103.88 276.452 104.495C277.077 105.099 277.39 105.984 277.39 107.151V112H276.261V107.262C276.261 106.393 276.044 105.73 275.609 105.274C275.175 104.818 274.555 104.591 273.749 104.591C272.848 104.591 272.133 104.861 271.603 105.401C271.083 105.931 270.823 106.668 270.823 107.612V112H269.695V103.637H270.776V105.179C271.083 104.67 271.507 104.278 272.048 104.002C272.599 103.716 273.235 103.573 273.956 103.573ZM291.644 103.637L287.462 113.002C287.123 113.786 286.731 114.343 286.286 114.671C285.841 115 285.305 115.164 284.68 115.164C284.277 115.164 283.901 115.101 283.551 114.973C283.201 114.846 282.899 114.655 282.645 114.401L283.169 113.558C283.593 113.982 284.102 114.194 284.696 114.194C285.077 114.194 285.401 114.088 285.666 113.876C285.941 113.664 286.196 113.304 286.429 112.795L286.795 111.984L283.058 103.637H284.235L287.383 110.744L290.531 103.637H291.644ZM304.614 109.027H298.413L297.077 112H295.853L300.941 100.87H302.102L307.19 112H305.949L304.614 109.027ZM304.185 108.073L301.513 102.094L298.842 108.073H304.185ZM308.792 103.637H309.921V112H308.792V103.637ZM309.365 101.808C309.132 101.808 308.935 101.729 308.776 101.57C308.617 101.411 308.538 101.22 308.538 100.997C308.538 100.785 308.617 100.6 308.776 100.441C308.935 100.282 309.132 100.202 309.365 100.202C309.598 100.202 309.794 100.282 309.953 100.441C310.112 100.589 310.192 100.769 310.192 100.981C310.192 101.215 310.112 101.411 309.953 101.57C309.794 101.729 309.598 101.808 309.365 101.808ZM314.144 105.274C314.409 104.713 314.801 104.288 315.32 104.002C315.85 103.716 316.502 103.573 317.276 103.573V104.67L317.006 104.654C316.126 104.654 315.437 104.924 314.939 105.465C314.44 106.006 314.191 106.764 314.191 107.739V112H313.062V103.637H314.144V105.274ZM326.524 108.168H319.528C319.592 109.037 319.926 109.742 320.53 110.283C321.134 110.813 321.898 111.078 322.82 111.078C323.339 111.078 323.816 110.988 324.251 110.807C324.685 110.617 325.062 110.341 325.38 109.981L326.016 110.712C325.645 111.157 325.178 111.496 324.616 111.73C324.065 111.963 323.456 112.08 322.788 112.08C321.929 112.08 321.166 111.899 320.498 111.539C319.841 111.168 319.327 110.659 318.956 110.013C318.585 109.366 318.4 108.634 318.4 107.818C318.4 107.002 318.574 106.271 318.924 105.624C319.285 104.977 319.772 104.474 320.387 104.114C321.012 103.753 321.712 103.573 322.486 103.573C323.26 103.573 323.954 103.753 324.569 104.114C325.184 104.474 325.666 104.977 326.016 105.624C326.365 106.26 326.54 106.991 326.54 107.818L326.524 108.168ZM322.486 104.543C321.68 104.543 321.002 104.803 320.451 105.322C319.91 105.831 319.603 106.499 319.528 107.325H325.459C325.385 106.499 325.072 105.831 324.521 105.322C323.98 104.803 323.302 104.543 322.486 104.543ZM340.218 109.027H334.017L332.681 112H331.457L336.545 100.87H337.706L342.794 112H341.554L340.218 109.027ZM339.789 108.073L337.118 102.094L334.446 108.073H339.789ZM347.785 112.08C346.958 112.08 346.216 111.899 345.559 111.539C344.913 111.179 344.404 110.675 344.033 110.028C343.662 109.371 343.476 108.634 343.476 107.818C343.476 107.002 343.662 106.271 344.033 105.624C344.404 104.977 344.913 104.474 345.559 104.114C346.216 103.753 346.958 103.573 347.785 103.573C348.506 103.573 349.147 103.716 349.709 104.002C350.281 104.278 350.732 104.686 351.061 105.227L350.218 105.799C349.942 105.386 349.592 105.078 349.168 104.877C348.744 104.665 348.283 104.559 347.785 104.559C347.181 104.559 346.635 104.697 346.147 104.972C345.67 105.237 345.294 105.619 345.019 106.117C344.754 106.615 344.621 107.182 344.621 107.818C344.621 108.465 344.754 109.037 345.019 109.536C345.294 110.023 345.67 110.405 346.147 110.68C346.635 110.945 347.181 111.078 347.785 111.078C348.283 111.078 348.744 110.977 349.168 110.776C349.592 110.574 349.942 110.267 350.218 109.853L351.061 110.426C350.732 110.966 350.281 111.38 349.709 111.666C349.137 111.942 348.495 112.08 347.785 112.08ZM356.557 112.08C355.751 112.08 355.025 111.899 354.379 111.539C353.732 111.168 353.223 110.659 352.852 110.013C352.481 109.366 352.296 108.634 352.296 107.818C352.296 107.002 352.481 106.271 352.852 105.624C353.223 104.977 353.732 104.474 354.379 104.114C355.025 103.753 355.751 103.573 356.557 103.573C357.363 103.573 358.089 103.753 358.735 104.114C359.382 104.474 359.885 104.977 360.246 105.624C360.617 106.271 360.802 107.002 360.802 107.818C360.802 108.634 360.617 109.366 360.246 110.013C359.885 110.659 359.382 111.168 358.735 111.539C358.089 111.899 357.363 112.08 356.557 112.08ZM356.557 111.078C357.151 111.078 357.681 110.945 358.147 110.68C358.624 110.405 358.995 110.018 359.26 109.52C359.525 109.021 359.657 108.454 359.657 107.818C359.657 107.182 359.525 106.615 359.26 106.117C358.995 105.619 358.624 105.237 358.147 104.972C357.681 104.697 357.151 104.559 356.557 104.559C355.963 104.559 355.428 104.697 354.951 104.972C354.485 105.237 354.114 105.619 353.838 106.117C353.573 106.615 353.441 107.182 353.441 107.818C353.441 108.454 353.573 109.021 353.838 109.52C354.114 110.018 354.485 110.405 354.951 110.68C355.428 110.945 355.963 111.078 356.557 111.078ZM367.368 103.573C368.418 103.573 369.25 103.88 369.865 104.495C370.49 105.099 370.803 105.984 370.803 107.151V112H369.674V107.262C369.674 106.393 369.456 105.73 369.022 105.274C368.587 104.818 367.967 104.591 367.162 104.591C366.261 104.591 365.545 104.861 365.015 105.401C364.496 105.931 364.236 106.668 364.236 107.612V112H363.107V103.637H364.188V105.179C364.496 104.67 364.92 104.278 365.46 104.002C366.011 103.716 366.647 103.573 367.368 103.573ZM381.531 100.202V112H380.449V110.346C380.11 110.908 379.66 111.337 379.098 111.634C378.547 111.931 377.921 112.08 377.222 112.08C376.437 112.08 375.727 111.899 375.091 111.539C374.455 111.179 373.957 110.675 373.596 110.028C373.236 109.382 373.056 108.645 373.056 107.818C373.056 106.991 373.236 106.255 373.596 105.608C373.957 104.962 374.455 104.463 375.091 104.114C375.727 103.753 376.437 103.573 377.222 103.573C377.9 103.573 378.51 103.716 379.05 104.002C379.601 104.278 380.052 104.686 380.402 105.227V100.202H381.531ZM377.317 111.078C377.9 111.078 378.425 110.945 378.891 110.68C379.368 110.405 379.739 110.018 380.004 109.52C380.28 109.021 380.418 108.454 380.418 107.818C380.418 107.182 380.28 106.615 380.004 106.117C379.739 105.619 379.368 105.237 378.891 104.972C378.425 104.697 377.9 104.559 377.317 104.559C376.723 104.559 376.188 104.697 375.711 104.972C375.245 105.237 374.874 105.619 374.598 106.117C374.333 106.615 374.201 107.182 374.201 107.818C374.201 108.454 374.333 109.021 374.598 109.52C374.874 110.018 375.245 110.405 375.711 110.68C376.188 110.945 376.723 111.078 377.317 111.078ZM384.674 103.637H385.803V112H384.674V103.637ZM385.247 101.808C385.014 101.808 384.818 101.729 384.659 101.57C384.5 101.411 384.42 101.22 384.42 100.997C384.42 100.785 384.5 100.6 384.659 100.441C384.818 100.282 385.014 100.202 385.247 100.202C385.48 100.202 385.676 100.282 385.835 100.441C385.994 100.589 386.074 100.769 386.074 100.981C386.074 101.215 385.994 101.411 385.835 101.57C385.676 101.729 385.48 101.808 385.247 101.808ZM392.411 112.08C391.584 112.08 390.842 111.899 390.185 111.539C389.538 111.179 389.029 110.675 388.658 110.028C388.287 109.371 388.102 108.634 388.102 107.818C388.102 107.002 388.287 106.271 388.658 105.624C389.029 104.977 389.538 104.474 390.185 104.114C390.842 103.753 391.584 103.573 392.411 103.573C393.132 103.573 393.773 103.716 394.335 104.002C394.907 104.278 395.358 104.686 395.686 105.227L394.843 105.799C394.568 105.386 394.218 105.078 393.794 104.877C393.37 104.665 392.909 104.559 392.411 104.559C391.807 104.559 391.261 104.697 390.773 104.972C390.296 105.237 389.92 105.619 389.644 106.117C389.379 106.615 389.247 107.182 389.247 107.818C389.247 108.465 389.379 109.037 389.644 109.536C389.92 110.023 390.296 110.405 390.773 110.68C391.261 110.945 391.807 111.078 392.411 111.078C392.909 111.078 393.37 110.977 393.794 110.776C394.218 110.574 394.568 110.267 394.843 109.853L395.686 110.426C395.358 110.966 394.907 111.38 394.335 111.666C393.762 111.942 393.121 112.08 392.411 112.08ZM397.904 103.637H399.033V112H397.904V103.637ZM398.476 101.808C398.243 101.808 398.047 101.729 397.888 101.57C397.729 101.411 397.649 101.22 397.649 100.997C397.649 100.785 397.729 100.6 397.888 100.441C398.047 100.282 398.243 100.202 398.476 100.202C398.709 100.202 398.905 100.282 399.064 100.441C399.223 100.589 399.303 100.769 399.303 100.981C399.303 101.215 399.223 101.411 399.064 101.57C398.905 101.729 398.709 101.808 398.476 101.808ZM405.592 112.08C404.787 112.08 404.061 111.899 403.414 111.539C402.767 111.168 402.259 110.659 401.888 110.013C401.517 109.366 401.331 108.634 401.331 107.818C401.331 107.002 401.517 106.271 401.888 105.624C402.259 104.977 402.767 104.474 403.414 104.114C404.061 103.753 404.787 103.573 405.592 103.573C406.398 103.573 407.124 103.753 407.771 104.114C408.417 104.474 408.921 104.977 409.281 105.624C409.652 106.271 409.838 107.002 409.838 107.818C409.838 108.634 409.652 109.366 409.281 110.013C408.921 110.659 408.417 111.168 407.771 111.539C407.124 111.899 406.398 112.08 405.592 112.08ZM405.592 111.078C406.186 111.078 406.716 110.945 407.182 110.68C407.659 110.405 408.03 110.018 408.295 109.52C408.56 109.021 408.693 108.454 408.693 107.818C408.693 107.182 408.56 106.615 408.295 106.117C408.03 105.619 407.659 105.237 407.182 104.972C406.716 104.697 406.186 104.559 405.592 104.559C404.999 104.559 404.463 104.697 403.986 104.972C403.52 105.237 403.149 105.619 402.873 106.117C402.608 106.615 402.476 107.182 402.476 107.818C402.476 108.454 402.608 109.021 402.873 109.52C403.149 110.018 403.52 110.405 403.986 110.68C404.463 110.945 404.999 111.078 405.592 111.078ZM416.404 103.573C417.453 103.573 418.285 103.88 418.9 104.495C419.525 105.099 419.838 105.984 419.838 107.151V112H418.709V107.262C418.709 106.393 418.492 105.73 418.057 105.274C417.623 104.818 417.002 104.591 416.197 104.591C415.296 104.591 414.58 104.861 414.05 105.401C413.531 105.931 413.271 106.668 413.271 107.612V112H412.142V103.637H413.224V105.179C413.531 104.67 413.955 104.278 414.496 104.002C415.047 103.716 415.683 103.573 416.404 103.573ZM425.828 103.573C426.92 103.573 427.758 103.849 428.341 104.4C428.924 104.94 429.215 105.746 429.215 106.817V112H428.134V110.696C427.88 111.131 427.503 111.47 427.005 111.714C426.517 111.958 425.934 112.08 425.256 112.08C424.323 112.08 423.581 111.857 423.03 111.412C422.479 110.966 422.203 110.378 422.203 109.647C422.203 108.937 422.458 108.364 422.966 107.93C423.486 107.495 424.307 107.278 425.431 107.278H428.086V106.769C428.086 106.048 427.885 105.502 427.482 105.131C427.079 104.75 426.491 104.559 425.717 104.559C425.187 104.559 424.678 104.649 424.191 104.829C423.703 104.999 423.284 105.237 422.935 105.545L422.426 104.702C422.85 104.341 423.359 104.066 423.952 103.875C424.546 103.674 425.171 103.573 425.828 103.573ZM425.431 111.189C426.067 111.189 426.613 111.046 427.069 110.76C427.524 110.463 427.864 110.039 428.086 109.488V108.12H425.463C424.032 108.12 423.316 108.619 423.316 109.615C423.316 110.103 423.502 110.489 423.873 110.776C424.244 111.051 424.763 111.189 425.431 111.189ZM439.944 100.202V112H438.863V110.346C438.524 110.908 438.073 111.337 437.512 111.634C436.96 111.931 436.335 112.08 435.635 112.08C434.851 112.08 434.141 111.899 433.505 111.539C432.869 111.179 432.371 110.675 432.01 110.028C431.65 109.382 431.47 108.645 431.47 107.818C431.47 106.991 431.65 106.255 432.01 105.608C432.371 104.962 432.869 104.463 433.505 104.114C434.141 103.753 434.851 103.573 435.635 103.573C436.314 103.573 436.923 103.716 437.464 104.002C438.015 104.278 438.466 104.686 438.815 105.227V100.202H439.944ZM435.731 111.078C436.314 111.078 436.839 110.945 437.305 110.68C437.782 110.405 438.153 110.018 438.418 109.52C438.694 109.021 438.831 108.454 438.831 107.818C438.831 107.182 438.694 106.615 438.418 106.117C438.153 105.619 437.782 105.237 437.305 104.972C436.839 104.697 436.314 104.559 435.731 104.559C435.137 104.559 434.602 104.697 434.125 104.972C433.659 105.237 433.288 105.619 433.012 106.117C432.747 106.615 432.614 107.182 432.614 107.818C432.614 108.454 432.747 109.021 433.012 109.52C433.288 110.018 433.659 110.405 434.125 110.68C434.602 110.945 435.137 111.078 435.731 111.078ZM446.507 112.08C445.701 112.08 444.975 111.899 444.329 111.539C443.682 111.168 443.173 110.659 442.802 110.013C442.431 109.366 442.246 108.634 442.246 107.818C442.246 107.002 442.431 106.271 442.802 105.624C443.173 104.977 443.682 104.474 444.329 104.114C444.975 103.753 445.701 103.573 446.507 103.573C447.312 103.573 448.039 103.753 448.685 104.114C449.332 104.474 449.835 104.977 450.196 105.624C450.567 106.271 450.752 107.002 450.752 107.818C450.752 108.634 450.567 109.366 450.196 110.013C449.835 110.659 449.332 111.168 448.685 111.539C448.039 111.899 447.312 112.08 446.507 112.08ZM446.507 111.078C447.1 111.078 447.63 110.945 448.097 110.68C448.574 110.405 448.945 110.018 449.21 109.52C449.475 109.021 449.607 108.454 449.607 107.818C449.607 107.182 449.475 106.615 449.21 106.117C448.945 105.619 448.574 105.237 448.097 104.972C447.63 104.697 447.1 104.559 446.507 104.559C445.913 104.559 445.378 104.697 444.901 104.972C444.435 105.237 444.064 105.619 443.788 106.117C443.523 106.615 443.39 107.182 443.39 107.818C443.39 108.454 443.523 109.021 443.788 109.52C444.064 110.018 444.435 110.405 444.901 110.68C445.378 110.945 445.913 111.078 446.507 111.078Z" fill="white"/>
<path d="M178.375 125.466V127H171.979V118.74H178.222V120.274H173.879V122.068H177.714V123.554H173.879V125.466H178.375ZM185.019 127L183.025 124.133L181.066 127H178.871L181.928 122.799L179.025 118.74H181.196L183.096 121.419L184.96 118.74H187.025L184.146 122.728L187.226 127H185.019ZM191.892 127.142C191.051 127.142 190.288 126.961 189.603 126.599C188.927 126.229 188.392 125.722 187.998 125.077C187.613 124.424 187.42 123.688 187.42 122.87C187.42 122.052 187.613 121.32 187.998 120.675C188.392 120.022 188.927 119.515 189.603 119.153C190.288 118.783 191.055 118.598 191.904 118.598C192.62 118.598 193.265 118.724 193.839 118.976C194.421 119.228 194.909 119.59 195.303 120.062L194.075 121.194C193.517 120.549 192.825 120.227 191.999 120.227C191.487 120.227 191.031 120.341 190.63 120.569C190.229 120.789 189.914 121.1 189.686 121.501C189.465 121.902 189.355 122.359 189.355 122.87C189.355 123.381 189.465 123.838 189.686 124.239C189.914 124.64 190.229 124.955 190.63 125.183C191.031 125.403 191.487 125.513 191.999 125.513C192.825 125.513 193.517 125.187 194.075 124.534L195.303 125.667C194.909 126.146 194.421 126.512 193.839 126.764C193.257 127.016 192.608 127.142 191.892 127.142ZM202.989 125.466V127H196.593V118.74H202.836V120.274H198.493V122.068H202.328V123.554H198.493V125.466H202.989ZM204.51 118.74H206.422V125.442H210.563V127H204.51V118.74ZM218.027 125.466V127H211.632V118.74H217.874V120.274H213.531V122.068H217.366V123.554H213.531V125.466H218.027ZM227.124 118.74V127H225.554L221.436 121.985V127H219.548V118.74H221.129L225.236 123.755V118.74H227.124ZM233.031 127.142C232.189 127.142 231.426 126.961 230.742 126.599C230.065 126.229 229.53 125.722 229.137 125.077C228.752 124.424 228.559 123.688 228.559 122.87C228.559 122.052 228.752 121.32 229.137 120.675C229.53 120.022 230.065 119.515 230.742 119.153C231.426 118.783 232.193 118.598 233.043 118.598C233.759 118.598 234.404 118.724 234.978 118.976C235.56 119.228 236.048 119.59 236.441 120.062L235.214 121.194C234.655 120.549 233.963 120.227 233.137 120.227C232.626 120.227 232.17 120.341 231.768 120.569C231.367 120.789 231.053 121.1 230.824 121.501C230.604 121.902 230.494 122.359 230.494 122.87C230.494 123.381 230.604 123.838 230.824 124.239C231.053 124.64 231.367 124.955 231.768 125.183C232.17 125.403 232.626 125.513 233.137 125.513C233.963 125.513 234.655 125.187 235.214 124.534L236.441 125.667C236.048 126.146 235.56 126.512 234.978 126.764C234.396 127.016 233.747 127.142 233.031 127.142ZM237.732 118.74H239.644V127H237.732V118.74ZM247.044 125.23H243.209L242.477 127H240.518L244.2 118.74H246.088L249.781 127H247.775L247.044 125.23ZM246.442 123.779L245.132 120.616L243.822 123.779H246.442ZM257.933 127.142C257.091 127.142 256.328 126.961 255.644 126.599C254.967 126.229 254.433 125.722 254.039 125.077C253.654 124.424 253.461 123.688 253.461 122.87C253.461 122.052 253.654 121.32 254.039 120.675C254.433 120.022 254.967 119.515 255.644 119.153C256.328 118.783 257.095 118.598 257.945 118.598C258.661 118.598 259.306 118.724 259.88 118.976C260.462 119.228 260.95 119.59 261.343 120.062L260.116 121.194C259.558 120.549 258.865 120.227 258.039 120.227C257.528 120.227 257.072 120.341 256.671 120.569C256.269 120.789 255.955 121.1 255.727 121.501C255.506 121.902 255.396 122.359 255.396 122.87C255.396 123.381 255.506 123.838 255.727 124.239C255.955 124.64 256.269 124.955 256.671 125.183C257.072 125.403 257.528 125.513 258.039 125.513C258.865 125.513 259.558 125.187 260.116 124.534L261.343 125.667C260.95 126.146 260.462 126.512 259.88 126.764C259.298 127.016 258.649 127.142 257.933 127.142ZM266.462 127.142C265.604 127.142 264.829 126.957 264.137 126.587C263.453 126.217 262.914 125.71 262.52 125.065C262.135 124.412 261.942 123.68 261.942 122.87C261.942 122.06 262.135 121.332 262.52 120.687C262.914 120.034 263.453 119.523 264.137 119.153C264.829 118.783 265.604 118.598 266.462 118.598C267.319 118.598 268.09 118.783 268.774 119.153C269.459 119.523 269.998 120.034 270.391 120.687C270.784 121.332 270.981 122.06 270.981 122.87C270.981 123.68 270.784 124.412 270.391 125.065C269.998 125.71 269.459 126.217 268.774 126.587C268.09 126.957 267.319 127.142 266.462 127.142ZM266.462 125.513C266.949 125.513 267.39 125.403 267.783 125.183C268.177 124.955 268.483 124.64 268.704 124.239C268.932 123.838 269.046 123.381 269.046 122.87C269.046 122.359 268.932 121.902 268.704 121.501C268.483 121.1 268.177 120.789 267.783 120.569C267.39 120.341 266.949 120.227 266.462 120.227C265.974 120.227 265.533 120.341 265.14 120.569C264.747 120.789 264.436 121.1 264.208 121.501C263.988 121.902 263.877 122.359 263.877 122.87C263.877 123.381 263.988 123.838 264.208 124.239C264.436 124.64 264.747 124.955 265.14 125.183C265.533 125.403 265.974 125.513 266.462 125.513ZM279.934 127L279.922 122.044L277.492 126.127H276.63L274.211 122.15V127H272.418V118.74H273.999L277.09 123.873L280.135 118.74H281.704L281.728 127H279.934ZM287.263 118.74C287.995 118.74 288.628 118.862 289.163 119.106C289.706 119.35 290.123 119.696 290.414 120.144C290.705 120.593 290.85 121.124 290.85 121.737C290.85 122.343 290.705 122.874 290.414 123.33C290.123 123.779 289.706 124.125 289.163 124.369C288.628 124.605 287.995 124.723 287.263 124.723H285.599V127H283.688V118.74H287.263ZM287.157 123.165C287.731 123.165 288.168 123.043 288.467 122.799C288.766 122.547 288.915 122.193 288.915 121.737C288.915 121.273 288.766 120.919 288.467 120.675C288.168 120.423 287.731 120.298 287.157 120.298H285.599V123.165H287.157ZM297.478 127L295.885 124.699H295.79H294.127V127H292.215V118.74H295.79C296.522 118.74 297.155 118.862 297.69 119.106C298.233 119.35 298.65 119.696 298.941 120.144C299.232 120.593 299.378 121.124 299.378 121.737C299.378 122.351 299.228 122.882 298.929 123.33C298.638 123.771 298.221 124.109 297.678 124.345L299.531 127H297.478ZM297.442 121.737C297.442 121.273 297.293 120.919 296.994 120.675C296.695 120.423 296.258 120.298 295.684 120.298H294.127V123.177H295.684C296.258 123.177 296.695 123.051 296.994 122.799C297.293 122.547 297.442 122.193 297.442 121.737ZM304.892 127.142C304.035 127.142 303.26 126.957 302.568 126.587C301.883 126.217 301.344 125.71 300.951 125.065C300.566 124.412 300.373 123.68 300.373 122.87C300.373 122.06 300.566 121.332 300.951 120.687C301.344 120.034 301.883 119.523 302.568 119.153C303.26 118.783 304.035 118.598 304.892 118.598C305.75 118.598 306.521 118.783 307.205 119.153C307.889 119.523 308.428 120.034 308.822 120.687C309.215 121.332 309.412 122.06 309.412 122.87C309.412 123.68 309.215 124.412 308.822 125.065C308.428 125.71 307.889 126.217 307.205 126.587C306.521 126.957 305.75 127.142 304.892 127.142ZM304.892 125.513C305.38 125.513 305.821 125.403 306.214 125.183C306.607 124.955 306.914 124.64 307.134 124.239C307.362 123.838 307.476 123.381 307.476 122.87C307.476 122.359 307.362 121.902 307.134 121.501C306.914 121.1 306.607 120.789 306.214 120.569C305.821 120.341 305.38 120.227 304.892 120.227C304.405 120.227 303.964 120.341 303.571 120.569C303.177 120.789 302.867 121.1 302.638 121.501C302.418 121.902 302.308 122.359 302.308 122.87C302.308 123.381 302.418 123.838 302.638 124.239C302.867 124.64 303.177 124.955 303.571 125.183C303.964 125.403 304.405 125.513 304.892 125.513ZM318.365 127L318.353 122.044L315.922 126.127H315.061L312.642 122.15V127H310.848V118.74H312.43L315.521 123.873L318.566 118.74H320.135L320.159 127H318.365ZM322.118 118.74H324.03V127H322.118V118.74ZM328.704 127.142C328.051 127.142 327.418 127.055 326.804 126.882C326.199 126.701 325.711 126.469 325.341 126.186L325.99 124.746C326.344 125.006 326.765 125.214 327.253 125.372C327.74 125.529 328.228 125.608 328.716 125.608C329.259 125.608 329.66 125.529 329.92 125.372C330.179 125.206 330.309 124.99 330.309 124.723C330.309 124.526 330.23 124.365 330.073 124.239C329.923 124.105 329.727 123.999 329.483 123.92C329.247 123.842 328.924 123.755 328.515 123.661C327.886 123.511 327.371 123.362 326.97 123.212C326.568 123.063 326.222 122.823 325.931 122.492C325.648 122.162 325.506 121.721 325.506 121.171C325.506 120.691 325.636 120.258 325.896 119.873C326.155 119.479 326.545 119.169 327.064 118.941C327.591 118.712 328.232 118.598 328.987 118.598C329.514 118.598 330.03 118.661 330.533 118.787C331.037 118.913 331.477 119.094 331.855 119.33L331.265 120.781C330.502 120.349 329.739 120.132 328.976 120.132C328.441 120.132 328.043 120.219 327.784 120.392C327.532 120.565 327.406 120.793 327.406 121.076C327.406 121.36 327.552 121.572 327.843 121.714C328.142 121.847 328.594 121.981 329.2 122.115C329.829 122.264 330.344 122.414 330.746 122.563C331.147 122.713 331.489 122.949 331.772 123.271C332.063 123.594 332.209 124.03 332.209 124.581C332.209 125.053 332.075 125.486 331.808 125.879C331.548 126.264 331.155 126.571 330.628 126.799C330.1 127.028 329.459 127.142 328.704 127.142ZM337.515 127.142C336.658 127.142 335.883 126.957 335.191 126.587C334.506 126.217 333.967 125.71 333.574 125.065C333.188 124.412 332.996 123.68 332.996 122.87C332.996 122.06 333.188 121.332 333.574 120.687C333.967 120.034 334.506 119.523 335.191 119.153C335.883 118.783 336.658 118.598 337.515 118.598C338.373 118.598 339.144 118.783 339.828 119.153C340.512 119.523 341.051 120.034 341.445 120.687C341.838 121.332 342.035 122.06 342.035 122.87C342.035 123.68 341.838 124.412 341.445 125.065C341.051 125.71 340.512 126.217 339.828 126.587C339.144 126.957 338.373 127.142 337.515 127.142ZM337.515 125.513C338.003 125.513 338.443 125.403 338.837 125.183C339.23 124.955 339.537 124.64 339.757 124.239C339.985 123.838 340.099 123.381 340.099 122.87C340.099 122.359 339.985 121.902 339.757 121.501C339.537 121.1 339.23 120.789 338.837 120.569C338.443 120.341 338.003 120.227 337.515 120.227C337.027 120.227 336.587 120.341 336.194 120.569C335.8 120.789 335.489 121.1 335.261 121.501C335.041 121.902 334.931 122.359 334.931 122.87C334.931 123.381 335.041 123.838 335.261 124.239C335.489 124.64 335.8 124.955 336.194 125.183C336.587 125.403 337.027 125.513 337.515 125.513ZM352.253 125.23H348.418L347.686 127H345.727L349.409 118.74H351.297L354.99 127H352.984L352.253 125.23ZM351.651 123.779L350.341 120.616L349.031 123.779H351.651ZM355.847 118.74H359.6C360.497 118.74 361.287 118.913 361.972 119.259C362.664 119.597 363.199 120.077 363.576 120.699C363.962 121.32 364.155 122.044 364.155 122.87C364.155 123.696 363.962 124.42 363.576 125.041C363.199 125.663 362.664 126.146 361.972 126.493C361.287 126.831 360.497 127 359.6 127H355.847V118.74ZM359.505 125.431C360.331 125.431 360.988 125.202 361.476 124.746C361.972 124.282 362.219 123.657 362.219 122.87C362.219 122.083 361.972 121.462 361.476 121.006C360.988 120.541 360.331 120.309 359.505 120.309H357.759V125.431H359.505ZM370.921 125.23H367.086L366.354 127H364.395L368.077 118.74H369.965L373.658 127H371.652L370.921 125.23ZM370.319 123.779L369.009 120.616L367.699 123.779H370.319ZM378.091 118.74C378.822 118.74 379.456 118.862 379.991 119.106C380.533 119.35 380.95 119.696 381.241 120.144C381.532 120.593 381.678 121.124 381.678 121.737C381.678 122.343 381.532 122.874 381.241 123.33C380.95 123.779 380.533 124.125 379.991 124.369C379.456 124.605 378.822 124.723 378.091 124.723H376.427V127H374.515V118.74H378.091ZM377.985 123.165C378.559 123.165 378.995 123.043 379.294 122.799C379.593 122.547 379.743 122.193 379.743 121.737C379.743 121.273 379.593 120.919 379.294 120.675C378.995 120.423 378.559 120.298 377.985 120.298H376.427V123.165H377.985ZM384.523 120.298H381.88V118.74H389.078V120.298H386.435V127H384.523V120.298ZM395.132 125.23H391.297L390.565 127H388.606L392.288 118.74H394.176L397.869 127H395.863L395.132 125.23ZM394.53 123.779L393.22 120.616L391.91 123.779H394.53ZM404.791 122.705C405.263 122.854 405.633 123.106 405.9 123.46C406.168 123.806 406.302 124.235 406.302 124.746C406.302 125.47 406.018 126.028 405.452 126.422C404.894 126.807 404.075 127 402.998 127H398.726V118.74H402.762C403.769 118.74 404.54 118.933 405.074 119.318C405.617 119.704 405.889 120.227 405.889 120.888C405.889 121.289 405.79 121.647 405.594 121.961C405.405 122.276 405.137 122.524 404.791 122.705ZM400.626 120.18V122.127H402.526C402.998 122.127 403.356 122.044 403.599 121.879C403.843 121.714 403.965 121.47 403.965 121.147C403.965 120.825 403.843 120.585 403.599 120.427C403.356 120.262 402.998 120.18 402.526 120.18H400.626ZM402.856 125.56C403.36 125.56 403.737 125.478 403.989 125.313C404.248 125.147 404.378 124.892 404.378 124.546C404.378 123.861 403.871 123.519 402.856 123.519H400.626V125.56H402.856ZM407.749 118.74H409.661V127H407.749V118.74ZM411.621 118.74H413.532V125.442H417.674V127H411.621V118.74ZM418.742 118.74H420.654V127H418.742V118.74ZM422.614 118.74H426.367C427.263 118.74 428.054 118.913 428.738 119.259C429.431 119.597 429.966 120.077 430.343 120.699C430.729 121.32 430.921 122.044 430.921 122.87C430.921 123.696 430.729 124.42 430.343 125.041C429.966 125.663 429.431 126.146 428.738 126.493C428.054 126.831 427.263 127 426.367 127H422.614V118.74ZM426.272 125.431C427.098 125.431 427.755 125.202 428.243 124.746C428.738 124.282 428.986 123.657 428.986 122.87C428.986 122.083 428.738 121.462 428.243 121.006C427.755 120.541 427.098 120.309 426.272 120.309H424.526V125.431H426.272ZM437.688 125.23H433.853L433.121 127H431.162L434.844 118.74H436.732L440.425 127H438.419L437.688 125.23ZM437.086 123.779L435.776 120.616L434.466 123.779H437.086ZM441.282 118.74H445.035C445.931 118.74 446.722 118.913 447.406 119.259C448.099 119.597 448.634 120.077 449.011 120.699C449.397 121.32 449.589 122.044 449.589 122.87C449.589 123.696 449.397 124.42 449.011 125.041C448.634 125.663 448.099 126.146 447.406 126.493C446.722 126.831 445.931 127 445.035 127H441.282V118.74ZM444.94 125.431C445.766 125.431 446.423 125.202 446.911 124.746C447.406 124.282 447.654 123.657 447.654 122.87C447.654 122.083 447.406 121.462 446.911 121.006C446.423 120.541 445.766 120.309 444.94 120.309H443.194V125.431H444.94Z" fill="white"/>
<defs>
<radialGradient id="paint0_radial_192_80" cx="0" cy="0" r="1" gradientUnits="userSpaceOnUse" gradientTransform="translate(-22.4622 -23.351) rotate(45) scale(289.807)">
<stop stop-color="#FC0000"/>
<stop offset="1" stop-color="#00C8D5"/>
</radialGradient>
</defs>
</svg>
